{
    "accessors": {
        "accessor_38": {
            "bufferView": "bufferView_49",
            "byteOffset": 0,
            "byteStride": 2,
            "componentType": 5123,
            "count": 14595,
            "max": [
                4426
            ],
            "min": [
                0
            ],
            "type": "SCALAR"
        },
        "accessor_41": {
            "bufferView": "bufferView_49",
            "byteOffset": 29190,
            "byteStride": 2,
            "componentType": 5123,
            "count": 195,
            "max": [
                7128
            ],
            "min": [
                0
            ],
            "type": "SCALAR"
        },
        "accessor_43": {
            "bufferView": "bufferView_50",
            "byteOffset": 0,
            "byteStride": 12,
            "componentType": 5126,
            "count": 7173,
            "max": [
                5.356,
                1.848,
                1.372
            ],
            "min": [
                -5.364,
                -4.85686,
                -1.52133
            ],
            "type": "VEC3"
        },
        "accessor_45": {
            "bufferView": "bufferView_50",
            "byteOffset": 86076,
            "byteStride": 12,
            "componentType": 5126,
            "count": 7173,
            "max": [
                1,
                1,
                1
            ],
            "min": [
                -1,
                -1,
                -1
            ],
            "type": "VEC3"
        },
        "accessor_47": {
            "bufferView": "bufferView_50",
            "byteOffset": 172152,
            "byteStride": 8,
            "componentType": 5126,
            "count": 7173,
            "max": [
                0.99982,
                1.0014
            ],
            "min": [
                0.00014,
                -0.93131
            ],
            "type": "VEC2"
        }
    },
    "animations": {},
    "asset": {
        "generator": "collada2gltf@6779c094d694e951beeb1012d03d4faa1edb0ddf",
        "premultipliedAlpha": true,
        "profile": {
            "api": "WebGL",
            "version": "1.0.2"
        },
        "version": "1.0.1"
    },
    "bufferViews": {
        "bufferView_49": {
            "buffer": "multiplayer",
            "byteLength": 29580,
            "byteOffset": 0,
            "target": 34963
        },
        "bufferView_50": {
            "buffer": "multiplayer",
            "byteLength": 229536,
            "byteOffset": 29580,
            "target": 34962
        }
    },
    "buffers": {
        "multiplayer": {
            "byteLength": 259116,
            "type": "arraybuffer",
            "uri": "data:application/octet-stream;base64,"
        }
    },
    "images": {
        "texture_jpg": {
            "name": "texture_jpg",
            "uri": "texture-low_0.jpg"
        }
    },
    "materials": {
        "glass": {
            "name": "glass",
            "technique": "technique0",
            "values": {
                "ambient": [
                    0.556863,
                    0.807843,
                    1,
                    1
                ],
                "diffuse": [
                    0.556863,
                    0.807843,
                    1,
                    1
                ],
                "emission": [
                    0,
                    0,
                    0,
                    1
                ],
                "shininess": 35,
                "transparency": 0.2
            }
        },
        "texture": {
            "name": "texture",
            "technique": "technique1",
            "values": {
                "ambient": "texture_texture_jpg",
                "diffuse": "texture_texture_jpg",
                "emission": [
                    0,
                    0,
                    0,
                    1
                ],
                "shininess": 60,
                "specular": [
                    0,
                    0,
                    0,
                    1
                ]
            }
        }
    },
    "meshes": {
        "geom-cub": {
            "name": "cub",
            "primitives": [
                {
                    "attributes": {
                        "NORMAL": "accessor_45",
                        "POSITION": "accessor_43",
                        "TEXCOORD_0": "accessor_47"
                    },
                    "indices": "accessor_38",
                    "material": "texture",
                    "mode": 4
                },
                {
                    "attributes": {
                        "NORMAL": "accessor_45",
                        "POSITION": "accessor_43"
                    },
                    "indices": "accessor_41",
                    "material": "glass",
                    "mode": 4
                }
            ]
        }
    },
    "nodes": {
        "node-cub": {
            "children": [
                "node_2"
            ],
            "matrix": [
                1,
                0,
                0,
                0,
                0,
                1,
                0,
                0,
                0,
                0,
                1,
                0,
                -0.00399995,
                -1.242,
                0.07,
                1
            ],
            "name": "cub"
        },
        "node_0": {
            "children": [],
            "name": "EnvironmentAmbientLight"
        },
        "node_2": {
            "children": [],
            "matrix": [
                1,
                0,
                0,
                0,
                0,
                1,
                0,
                0,
                0,
                0,
                1,
                0,
                0.00399995,
                1.242,
                -0.07,
                1
            ],
            "meshes": [
                "geom-cub"
            ],
            "name": ""
        },
        "node_3": {
            "children": [
                "node_0",
                "node-cub"
            ],
            "matrix": [
                1,
                0,
                0,
                0,
                0,
                0,
                -1,
                0,
                0,
                1,
                0,
                0,
                0,
                0,
                0,
                1
            ],
            "name": "Y_UP_Transform"
        }
    },
    "programs": {
        "program_0": {
            "attributes": [
                "a_normal",
                "a_position"
            ],
            "fragmentShader": "multiplayer0FS",
            "vertexShader": "multiplayer0VS"
        },
        "program_1": {
            "attributes": [
                "a_normal",
                "a_position",
                "a_texcoord0"
            ],
            "fragmentShader": "multiplayer1FS",
            "vertexShader": "multiplayer1VS"
        }
    },
    "samplers": {
        "sampler_0": {
            "magFilter": 9729,
            "minFilter": 9729,
            "wrapS": 10497,
            "wrapT": 10497
        }
    },
    "scene": "defaultScene",
    "scenes": {
        "defaultScene": {
            "nodes": [
                "node_3"
            ]
        }
    },
    "shaders": {
        "multiplayer0FS": {
            "type": 35632,
            "uri": "../../../../shaders/simpleGlassFS.glsl"
        },
        "multiplayer0VS": {
            "type": 35633,
            "uri": "../../../../shaders/baseVS.glsl"
        },
        "multiplayer1FS": {
            "type": 35632,
            "uri": "../../../../shaders/multiplayerFS.glsl"
        },
        "multiplayer1VS": {
            "type": 35633,
            "uri": "../../../../shaders/baseVS.glsl"
        }
    },
    "skins": {},
    "techniques": {
        "technique0": {
            "attributes": {
                "a_normal": "normal",
                "a_position": "position"
            },
            "parameters": {
                "ambient": {
                    "type": 35666
                },
                "diffuse": {
                    "type": 35666
                },
                "emission": {
                    "type": 35666
                },
                "modelViewMatrix": {
                    "semantic": "MODELVIEW",
                    "type": 35676
                },
                "normal": {
                    "semantic": "NORMAL",
                    "type": 35665
                },
                "normalMatrix": {
                    "semantic": "MODELVIEWINVERSETRANSPOSE",
                    "type": 35675
                },
                "position": {
                    "semantic": "POSITION",
                    "type": 35665
                },
                "projectionMatrix": {
                    "semantic": "PROJECTION",
                    "type": 35676
                },
                "shininess": {
                    "type": 5126
                },
                "transparency": {
                    "type": 5126
                }
            },
            "program": "program_0",
            "states": {
                "enable": [
                    2929,
                    3042
                ],
                "functions": {
                    "blendEquationSeparate": [
                        32774,
                        32774
                    ],
                    "blendFuncSeparate": [
                        1,
                        771,
                        1,
                        771
                    ],
                    "depthMask": [
                        false
                    ]
                }
            },
            "uniforms": {
                "u_ambient": "ambient",
                "u_diffuse": "diffuse",
                "u_emission": "emission",
                "u_modelViewMatrix": "modelViewMatrix",
                "u_normalMatrix": "normalMatrix",
                "u_projectionMatrix": "projectionMatrix",
                "u_shininess": "shininess",
                "u_transparency": "transparency"
            }
        },
        "technique1": {
            "attributes": {
                "a_normal": "normal",
                "a_position": "position",
                "a_texcoord0": "texcoord0"
            },
            "parameters": {
                "ambient": {
                    "type": 35678
                },
                "diffuse": {
                    "type": 35678
                },
                "emission": {
                    "type": 35666
                },
                "modelViewMatrix": {
                    "semantic": "MODELVIEW",
                    "type": 35676
                },
                "normal": {
                    "semantic": "NORMAL",
                    "type": 35665
                },
                "normalMatrix": {
                    "semantic": "MODELVIEWINVERSETRANSPOSE",
                    "type": 35675
                },
                "position": {
                    "semantic": "POSITION",
                    "type": 35665
                },
                "projectionMatrix": {
                    "semantic": "PROJECTION",
                    "type": 35676
                },
                "shininess": {
                    "type": 5126
                },
                "specular": {
                    "type": 35666
                },
                "texcoord0": {
                    "semantic": "TEXCOORD_0",
                    "type": 35664
                }
            },
            "program": "program_1",
            "states": {
                "enable": [
                    2929,
                    2884
                ]
            },
            "uniforms": {
                "u_ambient": "ambient",
                "u_diffuse": "diffuse",
                "u_emission": "emission",
                "u_modelViewMatrix": "modelViewMatrix",
                "u_normalMatrix": "normalMatrix",
                "u_projectionMatrix": "projectionMatrix",
                "u_shininess": "shininess",
                "u_specular": "specular"
            }
        }
    },
    "textures": {
        "texture_texture_jpg": {
            "format": 6408,
            "internalFormat": 6408,
            "sampler": "sampler_0",
            "source": "texture_jpg",
            "target": 3553,
            "type": 5121
        }
    }
}