{
    "accessors": {
        "accessor_28": {
            "bufferView": "bufferView_37",
            "byteOffset": 0,
            "byteStride": 2,
            "componentType": 5123,
            "count": 1146,
            "max": [
                309
            ],
            "min": [
                0
            ],
            "type": "SCALAR"
        },
        "accessor_31": {
            "bufferView": "bufferView_37",
            "byteOffset": 2292,
            "byteStride": 2,
            "componentType": 5123,
            "count": 354,
            "max": [
                580
            ],
            "min": [
                0
            ],
            "type": "SCALAR"
        },
        "accessor_33": {
            "bufferView": "bufferView_38",
            "byteOffset": 0,
            "byteStride": 12,
            "componentType": 5126,
            "count": 596,
            "max": [
                5.356,
                1.664,
                1.36
            ],
            "min": [
                -5.364,
                -4.85456,
                -1.51715
            ],
            "type": "VEC3"
        },
        "accessor_35": {
            "bufferView": "bufferView_38",
            "byteOffset": 7152,
            "byteStride": 12,
            "componentType": 5126,
            "count": 596,
            "max": [
                1,
                1,
                1
            ],
            "min": [
                -1,
                -1,
                -1
            ],
            "type": "VEC3"
        }
    },
    "animations": {},
    "asset": {
        "generator": "collada2gltf@6779c094d694e951beeb1012d03d4faa1edb0ddf",
        "premultipliedAlpha": true,
        "profile": {
            "api": "WebGL",
            "version": "1.0.2"
        },
        "version": "1.0.1"
    },
    "bufferViews": {
        "bufferView_37": {
            "buffer": "multiplayer-low",
            "byteLength": 3000,
            "byteOffset": 0,
            "target": 34963
        },
        "bufferView_38": {
            "buffer": "multiplayer-low",
            "byteLength": 14304,
            "byteOffset": 3000,
            "target": 34962
        }
    },
    "buffers": {
        "multiplayer-low": {
            "byteLength": 17304,
            "type": "arraybuffer",
            "uri": "data:application/octet-stream;base64,"
        }
    },
    "materials": {
        "_7_-_Default": {
            "name": "_7_-_Default",
            "technique": "technique0",
            "values": {
                "ambient": [
                    0.862745,
                    0.588235,
                    0,
                    1
                ],
                "diffuse": [
                    0.862745,
                    0.588235,
                    0,
                    1
                ],
                "emission": [
                    0,
                    0,
                    0,
                    1
                ],
                "shininess": 10,
                "specular": [
                    0,
                    0,
                    0,
                    1
                ]
            }
        },
        "_8_-_Default": {
            "name": "_8_-_Default",
            "technique": "technique0",
            "values": {
                "ambient": [
                    0,
                    0,
                    0,
                    1
                ],
                "diffuse": [
                    0,
                    0,
                    0,
                    1
                ],
                "emission": [
                    0,
                    0,
                    0,
                    1
                ],
                "shininess": 10,
                "specular": [
                    0,
                    0,
                    0,
                    1
                ]
            }
        }
    },
    "meshes": {
        "geom-cub": {
            "name": "cub",
            "primitives": [
                {
                    "attributes": {
                        "NORMAL": "accessor_35",
                        "POSITION": "accessor_33"
                    },
                    "indices": "accessor_28",
                    "material": "_7_-_Default",
                    "mode": 4
                },
                {
                    "attributes": {
                        "NORMAL": "accessor_35",
                        "POSITION": "accessor_33"
                    },
                    "indices": "accessor_31",
                    "material": "_8_-_Default",
                    "mode": 4
                }
            ]
        }
    },
    "nodes": {
        "node-cub": {
            "children": [
                "node_2"
            ],
            "matrix": [
                1,
                0,
                0,
                0,
                0,
                1,
                0,
                0,
                0,
                0,
                1,
                0,
                -0.00399995,
                -1.242,
                0.07,
                1
            ],
            "name": "cub"
        },
        "node_0": {
            "children": [],
            "name": "EnvironmentAmbientLight"
        },
        "node_2": {
            "children": [],
            "matrix": [
                1,
                0,
                0,
                0,
                0,
                1,
                0,
                0,
                0,
                0,
                1,
                0,
                0.00399995,
                1.242,
                -0.07,
                1
            ],
            "meshes": [
                "geom-cub"
            ],
            "name": ""
        },
        "node_3": {
            "children": [
                "node_0",
                "node-cub"
            ],
            "matrix": [
                1,
                0,
                0,
                0,
                0,
                0,
                -1,
                0,
                0,
                1,
                0,
                0,
                0,
                0,
                0,
                1
            ],
            "name": "Y_UP_Transform"
        }
    },
    "programs": {
        "program_0": {
            "attributes": [
                "a_normal",
                "a_position"
            ],
            "fragmentShader": "multiplayer-low0FS",
            "vertexShader": "multiplayer-low0VS"
        }
    },
    "scene": "defaultScene",
    "scenes": {
        "defaultScene": {
            "nodes": [
                "node_3"
            ]
        }
    },
    "shaders": {
        "multiplayer-low0FS": {
            "type": 35632,
            "uri": "data:text/plain;base64,"
        },
        "multiplayer-low0VS": {
            "type": 35633,
            "uri": "data:text/plain;base64,"
        }
    },
    "skins": {},
    "techniques": {
        "technique0": {
            "attributes": {
                "a_normal": "normal",
                "a_position": "position"
            },
            "parameters": {
                "ambient": {
                    "type": 35666
                },
                "diffuse": {
                    "type": 35666
                },
                "emission": {
                    "type": 35666
                },
                "modelViewMatrix": {
                    "semantic": "MODELVIEW",
                    "type": 35676
                },
                "normal": {
                    "semantic": "NORMAL",
                    "type": 35665
                },
                "normalMatrix": {
                    "semantic": "MODELVIEWINVERSETRANSPOSE",
                    "type": 35675
                },
                "position": {
                    "semantic": "POSITION",
                    "type": 35665
                },
                "projectionMatrix": {
                    "semantic": "PROJECTION",
                    "type": 35676
                },
                "shininess": {
                    "type": 5126
                },
                "specular": {
                    "type": 35666
                }
            },
            "program": "program_0",
            "states": {
                "enable": [
                    2929,
                    2884
                ]
            },
            "uniforms": {
                "u_ambient": "ambient",
                "u_diffuse": "diffuse",
                "u_emission": "emission",
                "u_modelViewMatrix": "modelViewMatrix",
                "u_normalMatrix": "normalMatrix",
                "u_projectionMatrix": "projectionMatrix",
                "u_shininess": "shininess",
                "u_specular": "specular"
            }
        }
    }
}