{
    "accessors": {
        "accessor_55": {
            "bufferView": "bufferView_69",
            "byteOffset": 0,
            "byteStride": 2,
            "componentType": 5123,
            "count": 22524,
            "max": [
                7699
            ],
            "min": [
                0
            ],
            "type": "SCALAR"
        },
        "accessor_58": {
            "bufferView": "bufferView_69",
            "byteOffset": 45048,
            "byteStride": 2,
            "componentType": 5123,
            "count": 2760,
            "max": [
                16283
            ],
            "min": [
                0
            ],
            "type": "SCALAR"
        },
        "accessor_61": {
            "bufferView": "bufferView_69",
            "byteOffset": 50568,
            "byteStride": 2,
            "componentType": 5123,
            "count": 132,
            "max": [
                17271
            ],
            "min": [
                0
            ],
            "type": "SCALAR"
        },
        "accessor_63": {
            "bufferView": "bufferView_70",
            "byteOffset": 0,
            "byteStride": 12,
            "componentType": 5126,
            "count": 17316,
            "max": [
                209.858,
                208.558,
                343.354
            ],
            "min": [
                -209.858,
                16.7336,
                -332.001
            ],
            "type": "VEC3"
        },
        "accessor_65": {
            "bufferView": "bufferView_70",
            "byteOffset": 207792,
            "byteStride": 12,
            "componentType": 5126,
            "count": 17316,
            "max": [
                1,
                0.999999,
                1
            ],
            "min": [
                -1,
                -0.999996,
                -1
            ],
            "type": "VEC3"
        }
    },
    "animations": {},
    "asset": {
        "generator": "collada2gltf@6779c094d694e951beeb1012d03d4faa1edb0ddf",
        "premultipliedAlpha": true,
        "profile": {
            "api": "WebGL",
            "version": "1.0.2"
        },
        "version": "1.0.1"
    },
    "bufferViews": {
        "bufferView_69": {
            "buffer": "\\PROJECTS\\GeoFS\\tools\\collada2gltf\\convert\\gltf\\floats",
            "byteLength": 50832,
            "byteOffset": 0,
            "target": 34963
        },
        "bufferView_70": {
            "buffer": "\\PROJECTS\\GeoFS\\tools\\collada2gltf\\convert\\gltf\\floats",
            "byteLength": 415584,
            "byteOffset": 50832,
            "target": 34962
        }
    },
    "buffers": {
        "\\PROJECTS\\GeoFS\\tools\\collada2gltf\\convert\\gltf\\floats": {
            "byteLength": 466416,
            "type": "arraybuffer",
            "uri": "data:application/octet-stream;base64,"
        }
    },
    "materials": {
        "Material__5": {
            "name": "Material__5",
            "technique": "technique0",
            "values": {
                "ambient": [
                    0.494118,
                    0.494118,
                    0.494118,
                    1
                ],
                "diffuse": [
                    0.494118,
                    0.494118,
                    0.494118,
                    1
                ],
                "emission": [
                    0,
                    0,
                    0,
                    1
                ],
                "shininess": 32,
                "specular": [
                    0.711,
                    0.711,
                    0.711,
                    1
                ]
            }
        },
        "Material__6": {
            "name": "Material__6",
            "technique": "technique0",
            "values": {
                "ambient": [
                    0.0313726,
                    0.0313726,
                    0.0313726,
                    1
                ],
                "diffuse": [
                    0.0313726,
                    0.0313726,
                    0.0313726,
                    1
                ],
                "emission": [
                    0,
                    0,
                    0,
                    1
                ],
                "shininess": 10,
                "specular": [
                    0,
                    0,
                    0,
                    1
                ]
            }
        },
        "Material__7": {
            "name": "Material__7",
            "technique": "technique0",
            "values": {
                "ambient": [
                    0.960784,
                    0.611765,
                    0,
                    1
                ],
                "diffuse": [
                    0.960784,
                    0.611765,
                    0,
                    1
                ],
                "emission": [
                    0,
                    0,
                    0,
                    1
                ],
                "shininess": 42,
                "specular": [
                    0.81,
                    0.81,
                    0.81,
                    1
                ]
            }
        }
    },
    "meshes": {
        "geom-Pontoon": {
            "name": "Pontoon",
            "primitives": [
                {
                    "attributes": {
                        "NORMAL": "accessor_65",
                        "POSITION": "accessor_63"
                    },
                    "indices": "accessor_55",
                    "material": "Material__5",
                    "mode": 4
                },
                {
                    "attributes": {
                        "NORMAL": "accessor_65",
                        "POSITION": "accessor_63"
                    },
                    "indices": "accessor_58",
                    "material": "Material__7",
                    "mode": 4
                },
                {
                    "attributes": {
                        "NORMAL": "accessor_65",
                        "POSITION": "accessor_63"
                    },
                    "indices": "accessor_61",
                    "material": "Material__6",
                    "mode": 4
                }
            ]
        }
    },
    "nodes": {
        "node-Doors": {
            "children": [],
            "matrix": [
                0.01,
                0,
                0,
                0,
                0,
                -4.37114e-010,
                0.01,
                0,
                0,
                -0.01,
                -4.37114e-010,
                0,
                0,
                0,
                0,
                1
            ],
            "name": "Doors"
        },
        "node-Pontoon": {
            "children": [],
            "matrix": [
                -1,
                0,
                8.74228e-008,
                0,
                0,
                1,
                3.55271e-015,
                0,
                -8.74228e-008,
                3.55271e-015,
                -1,
                0,
                0,
                -170.771,
                -1.47848e-012,
                1
            ],
            "meshes": [
                "geom-Pontoon"
            ],
            "name": "Pontoon"
        },
        "node-Static": {
            "children": [
                "node-Pontoon"
            ],
            "matrix": [
                0.01,
                0,
                0,
                0,
                0,
                -4.37114e-010,
                0.01,
                0,
                0,
                -0.01,
                -4.37114e-010,
                0,
                0,
                0,
                0,
                1
            ],
            "name": "Static"
        },
        "node-Wings": {
            "children": [],
            "matrix": [
                0.01,
                0,
                0,
                0,
                0,
                -4.37114e-010,
                0.01,
                0,
                0,
                -0.01,
                -4.37114e-010,
                0,
                0,
                0,
                0,
                1
            ],
            "name": "Wings"
        },
        "node_0": {
            "children": [],
            "name": "EnvironmentAmbientLight"
        },
        "node_5": {
            "children": [
                "node_0",
                "node-Wings",
                "node-Doors",
                "node-Static"
            ],
            "matrix": [
                1,
                0,
                0,
                0,
                0,
                0,
                -1,
                0,
                0,
                1,
                0,
                0,
                0,
                0,
                0,
                1
            ],
            "name": "Y_UP_Transform"
        }
    },
    "programs": {
        "program_0": {
            "attributes": [
                "a_normal",
                "a_position"
            ],
            "fragmentShader": "\\PROJECTS\\GeoFS\\tools\\collada2gltf\\convert\\gltf\\floats0FS",
            "vertexShader": "\\PROJECTS\\GeoFS\\tools\\collada2gltf\\convert\\gltf\\floats0VS"
        }
    },
    "scene": "defaultScene",
    "scenes": {
        "defaultScene": {
            "nodes": [
                "node_5"
            ]
        }
    },
    "shaders": {
        "\\PROJECTS\\GeoFS\\tools\\collada2gltf\\convert\\gltf\\floats0FS": {
            "type": 35632,
            "uri": "data:text/plain;base64,"
        },
        "\\PROJECTS\\GeoFS\\tools\\collada2gltf\\convert\\gltf\\floats0VS": {
            "type": 35633,
            "uri": "data:text/plain;base64,"
        }
    },
    "skins": {},
    "techniques": {
        "technique0": {
            "attributes": {
                "a_normal": "normal",
                "a_position": "position"
            },
            "parameters": {
                "ambient": {
                    "type": 35666
                },
                "diffuse": {
                    "type": 35666
                },
                "emission": {
                    "type": 35666
                },
                "modelViewMatrix": {
                    "semantic": "MODELVIEW",
                    "type": 35676
                },
                "normal": {
                    "semantic": "NORMAL",
                    "type": 35665
                },
                "normalMatrix": {
                    "semantic": "MODELVIEWINVERSETRANSPOSE",
                    "type": 35675
                },
                "position": {
                    "semantic": "POSITION",
                    "type": 35665
                },
                "projectionMatrix": {
                    "semantic": "PROJECTION",
                    "type": 35676
                },
                "shininess": {
                    "type": 5126
                },
                "specular": {
                    "type": 35666
                }
            },
            "program": "program_0",
            "states": {
                "enable": [
                    2929,
                    2884
                ]
            },
            "uniforms": {
                "u_ambient": "ambient",
                "u_diffuse": "diffuse",
                "u_emission": "emission",
                "u_modelViewMatrix": "modelViewMatrix",
                "u_normalMatrix": "normalMatrix",
                "u_projectionMatrix": "projectionMatrix",
                "u_shininess": "shininess",
                "u_specular": "specular"
            }
        }
    }
}