{
    "accessors": {
        "accessor_115": {
            "bufferView": "bufferView_123",
            "byteOffset": 26784,
            "byteStride": 2,
            "componentType": 5123,
            "count": 3126,
            "max": [
                768
            ],
            "min": [
                0
            ],
            "type": "SCALAR"
        },
        "accessor_117": {
            "bufferView": "bufferView_124",
            "byteOffset": 158368,
            "byteStride": 12,
            "componentType": 5126,
            "count": 1214,
            "max": [
                0.496711,
                0.337687,
                0.351369
            ],
            "min": [
                -6.54238,
                -1.69355,
                -2.39039
            ],
            "type": "VEC3"
        },
        "accessor_119": {
            "bufferView": "bufferView_124",
            "byteOffset": 172936,
            "byteStride": 12,
            "componentType": 5126,
            "count": 1214,
            "max": [
                1,
                1,
                0.999999
            ],
            "min": [
                -1,
                -1,
                -1
            ],
            "type": "VEC3"
        },
        "accessor_121": {
            "bufferView": "bufferView_124",
            "byteOffset": 187504,
            "byteStride": 8,
            "componentType": 5126,
            "count": 1214,
            "max": [
                0.997841,
                0.683129
            ],
            "min": [
                0.637918,
                0.0708259
            ],
            "type": "VEC2"
        },
        "accessor_55": {
            "bufferView": "bufferView_123",
            "byteOffset": 0,
            "byteStride": 2,
            "componentType": 5123,
            "count": 12900,
            "max": [
                3385
            ],
            "min": [
                0
            ],
            "type": "SCALAR"
        },
        "accessor_58": {
            "bufferView": "bufferView_123",
            "byteOffset": 25800,
            "byteStride": 2,
            "componentType": 5123,
            "count": 456,
            "max": [
                4774
            ],
            "min": [
                0
            ],
            "type": "SCALAR"
        },
        "accessor_61": {
            "bufferView": "bufferView_123",
            "byteOffset": 26712,
            "byteStride": 2,
            "componentType": 5123,
            "count": 36,
            "max": [
                4936
            ],
            "min": [
                0
            ],
            "type": "SCALAR"
        },
        "accessor_63": {
            "bufferView": "bufferView_124",
            "byteOffset": 0,
            "byteStride": 12,
            "componentType": 5126,
            "count": 4949,
            "max": [
                36.4395,
                25.6752,
                9.74467
            ],
            "min": [
                -36.4383,
                -25.0074,
                -5.65016
            ],
            "type": "VEC3"
        },
        "accessor_65": {
            "bufferView": "bufferView_124",
            "byteOffset": 59388,
            "byteStride": 12,
            "componentType": 5126,
            "count": 4949,
            "max": [
                1,
                1,
                1
            ],
            "min": [
                -1,
                -1,
                -1
            ],
            "type": "VEC3"
        },
        "accessor_67": {
            "bufferView": "bufferView_124",
            "byteOffset": 118776,
            "byteStride": 8,
            "componentType": 5126,
            "count": 4949,
            "max": [
                0.999867,
                0.999928
            ],
            "min": [
                0.000985094,
                0.000654459
            ],
            "type": "VEC2"
        },
        "accessor_88": {
            "bufferView": "bufferView_123",
            "byteOffset": 33036,
            "byteStride": 2,
            "componentType": 5123,
            "count": 48,
            "max": [
                15
            ],
            "min": [
                0
            ],
            "type": "SCALAR"
        },
        "accessor_90": {
            "bufferView": "bufferView_124",
            "byteOffset": 197216,
            "byteStride": 12,
            "componentType": 5126,
            "count": 30,
            "max": [
                0.017557,
                25.6961,
                0.901965
            ],
            "min": [
                -0.017557,
                25.6679,
                0.871556
            ],
            "type": "VEC3"
        },
        "accessor_92": {
            "bufferView": "bufferView_124",
            "byteOffset": 197576,
            "byteStride": 12,
            "componentType": 5126,
            "count": 30,
            "max": [
                0.842086,
                1,
                0.972364
            ],
            "min": [
                -0.842084,
                0.233442,
                -0.972364
            ],
            "type": "VEC3"
        },
        "accessor_94": {
            "bufferView": "bufferView_124",
            "byteOffset": 197936,
            "byteStride": 8,
            "componentType": 5126,
            "count": 30,
            "max": [
                0.898449,
                0.720736
            ],
            "min": [
                0.867009,
                0.693509
            ],
            "type": "VEC2"
        }
    },
    "animations": {},
    "asset": {
        "generator": "collada2gltf@6779c094d694e951beeb1012d03d4faa1edb0ddf",
        "premultipliedAlpha": true,
        "profile": {
            "api": "WebGL",
            "version": "1.0.2"
        },
        "version": "1.0.1"
    },
    "bufferViews": {
        "bufferView_123": {
            "buffer": "multiplayer",
            "byteLength": 33132,
            "byteOffset": 0,
            "target": 34963
        },
        "bufferView_124": {
            "buffer": "multiplayer",
            "byteLength": 198176,
            "byteOffset": 33132,
            "target": 34962
        }
    },
    "buffers": {
        "multiplayer": {
            "byteLength": 231308,
            "type": "arraybuffer",
            "uri": "data:application/octet-stream;base64,"
        }
    },
    "images": {
        "texture_jpg": {
            "name": "texture_jpg",
            "uri": "texture-low.jpg"
        }
    },
    "materials": {
        "exterior": {
            "name": "exterior",
            "technique": "technique0",
            "values": {
                "ambient": "texture_texture_jpg",
                "diffuse": "texture_texture_jpg",
                "emission": [
                    0,
                    0,
                    0,
                    1
                ],
                "shininess": 100,
                "specular": [
                    0.9,
                    0.9,
                    0.9,
                    1
                ]
            }
        },
        "glass": {
            "name": "glass",
            "technique": "technique1",
            "values": {
                "ambient": [
                    0.588235,
                    0.67451,
                    0.721569,
                    1
                ],
                "diffuse": [
                    0.588235,
                    0.67451,
                    0.721569,
                    1
                ],
                "emission": [
                    0,
                    0,
                    0,
                    1
                ],
                "shininess": 35,
                "transparency": 0.09
            }
        },
        "interior": {
            "name": "interior",
            "technique": "technique0",
            "values": {
                "ambient": "texture_interior-lowres_jpg",
                "diffuse": "texture_interior-lowres_jpg",
                "emission": [
                    0,
                    0,
                    0,
                    1
                ],
                "shininess": 10,
                "specular": [
                    0,
                    0,
                    0,
                    1
                ]
            }
        }
    },
    "meshes": {
        "geom-fuselage_1_400": {
            "name": "fuselage_1_400",
            "primitives": [
                {
                    "attributes": {
                        "NORMAL": "accessor_65",
                        "POSITION": "accessor_63",
                        "TEXCOORD_0": "accessor_67"
                    },
                    "indices": "accessor_55",
                    "material": "exterior",
                    "mode": 4
                },
                {
                    "attributes": {
                        "NORMAL": "accessor_65",
                        "POSITION": "accessor_63"
                    },
                    "indices": "accessor_58",
                    "material": "glass",
                    "mode": 4
                },
                {
                    "attributes": {
                        "NORMAL": "accessor_65",
                        "POSITION": "accessor_63",
                        "TEXCOORD_0": "accessor_67"
                    },
                    "indices": "accessor_61",
                    "material": "interior",
                    "mode": 4
                }
            ]
        },
        "geom-gear": {
            "name": "gear",
            "primitives": [
                {
                    "attributes": {
                        "NORMAL": "accessor_119",
                        "POSITION": "accessor_117",
                        "TEXCOORD_0": "accessor_121"
                    },
                    "indices": "accessor_115",
                    "material": "exterior",
                    "mode": 4
                }
            ]
        },
        "geom-light_tail_400": {
            "name": "light_tail_400",
            "primitives": [
                {
                    "attributes": {
                        "NORMAL": "accessor_92",
                        "POSITION": "accessor_90",
                        "TEXCOORD_0": "accessor_94"
                    },
                    "indices": "accessor_88",
                    "material": "exterior",
                    "mode": 4
                }
            ]
        }
    },
    "nodes": {
        "node-DC3_LOD_400": {
            "children": [
                "node-Fuselage_400",
                "node-Lights"
            ],
            "name": "DC3_LOD_400"
        },
        "node-Douglas_DC3": {
            "children": [
                "node-DC3_LOD_400"
            ],
            "name": "Douglas_DC3"
        },
        "node-Fuselage_400": {
            "children": [
                "node-fuselage_1_400",
                "node-back_400",
                "node-c_wheel_400",
                "node-nose_400",
                "node-l_wing_400",
                "node-r_wing_400",
                "node-engine_left_400",
                "node-f_canopy_400",
                "node-engineright_400",
                "node-l_gear_400",
                "node-r_gear_400",
                "node-interior_400",
                "node-pilot_400",
                "node-Nnumbers_400"
            ],
            "name": "Fuselage_400"
        },
        "node-Lights": {
            "children": [],
            "name": "Lights"
        },
        "node-Nnumbers_400": {
            "children": [],
            "name": "Nnumbers_400"
        },
        "node-Particle_View_01": {
            "children": [],
            "name": "Particle_View_01"
        },
        "node-back_400": {
            "children": [
                "node-light_tail_400"
            ],
            "name": "back_400"
        },
        "node-c_wheel_400": {
            "children": [],
            "name": "c_wheel_400"
        },
        "node-cowl_flaps0_400": {
            "children": [],
            "name": "cowl_flaps0_400"
        },
        "node-cowl_flaps1_400": {
            "children": [],
            "name": "cowl_flaps1_400"
        },
        "node-engine_left_400": {
            "children": [
                "node-cowl_flaps0_400"
            ],
            "name": "engine_left_400"
        },
        "node-engineright_400": {
            "children": [
                "node-cowl_flaps1_400"
            ],
            "name": "engineright_400"
        },
        "node-f_canopy_400": {
            "children": [],
            "name": "f_canopy_400"
        },
        "node-fuselage_1_400": {
            "children": [
                "node_5"
            ],
            "matrix": [
                1,
                0,
                0,
                0,
                0,
                1,
                0,
                0,
                0,
                0,
                1,
                0,
                0.0187254,
                -2.48248,
                0.16791,
                1
            ],
            "name": "fuselage_1_400"
        },
        "node-gear": {
            "children": [
                "node_26"
            ],
            "matrix": [
                1,
                0,
                0,
                0,
                0,
                1,
                -0.00127101,
                0,
                0,
                0.00127101,
                1,
                0,
                2.77033,
                0.253447,
                -0.0592923,
                1
            ],
            "name": "gear"
        },
        "node-interior_400": {
            "children": [],
            "name": "interior_400"
        },
        "node-l_gear_400": {
            "children": [],
            "name": "l_gear_400"
        },
        "node-l_wing_400": {
            "children": [],
            "name": "l_wing_400"
        },
        "node-light_tail_400": {
            "children": [
                "node_8"
            ],
            "matrix": [
                1,
                0,
                0,
                0,
                0,
                1,
                0,
                0,
                0,
                0,
                1,
                0,
                0.0187263,
                -13.5946,
                0.838025,
                1
            ],
            "name": "light_tail_400"
        },
        "node-nose_400": {
            "children": [],
            "name": "nose_400"
        },
        "node-pilot_400": {
            "children": [],
            "name": "pilot_400"
        },
        "node-r_gear_400": {
            "children": [],
            "name": "r_gear_400"
        },
        "node-r_wing_400": {
            "children": [],
            "name": "r_wing_400"
        },
        "node_0": {
            "children": [],
            "name": "EnvironmentAmbientLight"
        },
        "node_26": {
            "children": [],
            "matrix": [
                0.915768,
                0,
                0,
                0,
                0,
                1,
                0,
                0,
                0,
                0,
                1,
                0,
                -2.18336e-007,
                0.305725,
                -0.339427,
                1
            ],
            "meshes": [
                "geom-gear"
            ],
            "name": ""
        },
        "node_27": {
            "children": [
                "node_0",
                "node-Douglas_DC3",
                "node-Particle_View_01",
                "node-gear"
            ],
            "matrix": [
                1,
                0,
                0,
                0,
                0,
                0,
                -1,
                0,
                0,
                1,
                0,
                0,
                0,
                0,
                0,
                1
            ],
            "name": "Y_UP_Transform"
        },
        "node_5": {
            "children": [],
            "matrix": [
                -0.386504,
                -3.37893e-008,
                0,
                0,
                3.37893e-008,
                -0.386504,
                0,
                0,
                0,
                0,
                0.386504,
                0,
                1.03681e-007,
                -1.18597,
                0.327379,
                1
            ],
            "meshes": [
                "geom-fuselage_1_400"
            ],
            "name": ""
        },
        "node_8": {
            "children": [],
            "matrix": [
                -0.386504,
                -3.37893e-008,
                0,
                0,
                3.37893e-008,
                -0.386504,
                0,
                0,
                0,
                0,
                0.386504,
                0,
                -8.67776e-007,
                9.9262,
                -0.342737,
                1
            ],
            "meshes": [
                "geom-light_tail_400"
            ],
            "name": ""
        }
    },
    "programs": {
        "program_0": {
            "attributes": [
                "a_normal",
                "a_position",
                "a_texcoord0"
            ],
            "fragmentShader": "multiplayer0FS",
            "vertexShader": "multiplayer0VS"
        },
        "program_1": {
            "attributes": [
                "a_normal",
                "a_position"
            ],
            "fragmentShader": "multiplayer1FS",
            "vertexShader": "multiplayer1VS"
        }
    },
    "samplers": {
        "sampler_0": {
            "magFilter": 9729,
            "minFilter": 9729,
            "wrapS": 10497,
            "wrapT": 10497
        }
    },
    "scene": "defaultScene",
    "scenes": {
        "defaultScene": {
            "nodes": [
                "node_27"
            ]
        }
    },
    "shaders": {
        "multiplayer0FS": {
            "type": 35632,
            "uri": "../../../../shaders/multiplayerFS.glsl"
        },
        "multiplayer0VS": {
            "type": 35633,
            "uri": "../../../../shaders/baseVS.glsl"
        },
        "multiplayer1FS": {
            "type": 35632,
            "uri": "../../../../shaders/simpleGlassFS.glsl"
        },
        "multiplayer1VS": {
            "type": 35633,
            "uri": "../../../../shaders/baseVS.glsl"
        }
    },
    "skins": {},
    "techniques": {
        "technique0": {
            "attributes": {
                "a_normal": "normal",
                "a_position": "position",
                "a_texcoord0": "texcoord0"
            },
            "parameters": {
                "ambient": {
                    "type": 35678
                },
                "diffuse": {
                    "type": 35678
                },
                "emission": {
                    "type": 35666
                },
                "modelViewMatrix": {
                    "semantic": "MODELVIEW",
                    "type": 35676
                },
                "normal": {
                    "semantic": "NORMAL",
                    "type": 35665
                },
                "normalMatrix": {
                    "semantic": "MODELVIEWINVERSETRANSPOSE",
                    "type": 35675
                },
                "position": {
                    "semantic": "POSITION",
                    "type": 35665
                },
                "projectionMatrix": {
                    "semantic": "PROJECTION",
                    "type": 35676
                },
                "shininess": {
                    "type": 5126
                },
                "specular": {
                    "type": 35666
                },
                "texcoord0": {
                    "semantic": "TEXCOORD_0",
                    "type": 35664
                }
            },
            "program": "program_0",
            "states": {
                "enable": [
                    2929,
                    2884
                ]
            },
            "uniforms": {
                "u_ambient": "ambient",
                "u_diffuse": "diffuse",
                "u_emission": "emission",
                "u_modelViewMatrix": "modelViewMatrix",
                "u_normalMatrix": "normalMatrix",
                "u_projectionMatrix": "projectionMatrix",
                "u_shininess": "shininess",
                "u_specular": "specular"
            }
        },
        "technique1": {
            "attributes": {
                "a_normal": "normal",
                "a_position": "position"
            },
            "parameters": {
                "ambient": {
                    "type": 35666
                },
                "diffuse": {
                    "type": 35666
                },
                "emission": {
                    "type": 35666
                },
                "modelViewMatrix": {
                    "semantic": "MODELVIEW",
                    "type": 35676
                },
                "normal": {
                    "semantic": "NORMAL",
                    "type": 35665
                },
                "normalMatrix": {
                    "semantic": "MODELVIEWINVERSETRANSPOSE",
                    "type": 35675
                },
                "position": {
                    "semantic": "POSITION",
                    "type": 35665
                },
                "projectionMatrix": {
                    "semantic": "PROJECTION",
                    "type": 35676
                },
                "shininess": {
                    "type": 5126
                },
                "transparency": {
                    "type": 5126
                }
            },
            "program": "program_1",
            "states": {
                "enable": [
                    2929,
                    3042
                ],
                "functions": {
                    "blendEquationSeparate": [
                        32774,
                        32774
                    ],
                    "blendFuncSeparate": [
                        1,
                        771,
                        1,
                        771
                    ],
                    "depthMask": [
                        false
                    ]
                }
            },
            "uniforms": {
                "u_ambient": "ambient",
                "u_diffuse": "diffuse",
                "u_emission": "emission",
                "u_modelViewMatrix": "modelViewMatrix",
                "u_normalMatrix": "normalMatrix",
                "u_projectionMatrix": "projectionMatrix",
                "u_shininess": "shininess",
                "u_transparency": "transparency"
            }
        }
    },
    "textures": {
        "texture_interior-lowres_jpg": {
            "format": 6408,
            "internalFormat": 6408,
            "sampler": "sampler_0",
            "source": "texture_jpg",
            "target": 3553,
            "type": 5121
        },
        "texture_texture_jpg": {
            "format": 6408,
            "internalFormat": 6408,
            "sampler": "sampler_0",
            "source": "texture_jpg",
            "target": 3553,
            "type": 5121
        }
    }
}