{
    "accessors": {
        "accessor_16": {
            "bufferView": "bufferView_49",
            "byteOffset": 0,
            "byteStride": 2,
            "componentType": 5123,
            "count": 846,
            "max": [
                164
            ],
            "min": [
                0
            ],
            "type": "SCALAR"
        },
        "accessor_18": {
            "bufferView": "bufferView_50",
            "byteOffset": 0,
            "byteStride": 12,
            "componentType": 5126,
            "count": 275,
            "max": [
                36.3877,
                25.66,
                9.73439
            ],
            "min": [
                -36.3865,
                -24.9335,
                -5.61482
            ],
            "type": "VEC3"
        },
        "accessor_20": {
            "bufferView": "bufferView_50",
            "byteOffset": 3300,
            "byteStride": 12,
            "componentType": 5126,
            "count": 275,
            "max": [
                1,
                0.999653,
                0.99994
            ],
            "min": [
                -1,
                -0.981683,
                -1
            ],
            "type": "VEC3"
        },
        "accessor_41": {
            "bufferView": "bufferView_49",
            "byteOffset": 1692,
            "byteStride": 2,
            "componentType": 5123,
            "count": 48,
            "max": [
                15
            ],
            "min": [
                0
            ],
            "type": "SCALAR"
        },
        "accessor_43": {
            "bufferView": "bufferView_50",
            "byteOffset": 6600,
            "byteStride": 12,
            "componentType": 5126,
            "count": 30,
            "max": [
                0.017557,
                25.6961,
                0.901965
            ],
            "min": [
                -0.017557,
                25.6679,
                0.871556
            ],
            "type": "VEC3"
        },
        "accessor_45": {
            "bufferView": "bufferView_50",
            "byteOffset": 6960,
            "byteStride": 12,
            "componentType": 5126,
            "count": 30,
            "max": [
                0.842086,
                1,
                0.972364
            ],
            "min": [
                -0.842084,
                0.233442,
                -0.972364
            ],
            "type": "VEC3"
        }
    },
    "animations": {},
    "asset": {
        "generator": "collada2gltf@6779c094d694e951beeb1012d03d4faa1edb0ddf",
        "premultipliedAlpha": true,
        "profile": {
            "api": "WebGL",
            "version": "1.0.2"
        },
        "version": "1.0.1"
    },
    "bufferViews": {
        "bufferView_49": {
            "buffer": "multiplayer-low",
            "byteLength": 1788,
            "byteOffset": 0,
            "target": 34963
        },
        "bufferView_50": {
            "buffer": "multiplayer-low",
            "byteLength": 7320,
            "byteOffset": 1788,
            "target": 34962
        }
    },
    "buffers": {
        "multiplayer-low": {
            "byteLength": 9108,
            "type": "arraybuffer",
            "uri": "data:application/octet-stream;base64,"
        }
    },
    "materials": {
        "_8_-_Default": {
            "name": "_8_-_Default",
            "technique": "technique0",
            "values": {
                "ambient": [
                    0.588235,
                    0.588235,
                    0.588235,
                    1
                ],
                "diffuse": [
                    0.588235,
                    0.588235,
                    0.588235,
                    1
                ],
                "emission": [
                    0,
                    0,
                    0,
                    1
                ],
                "shininess": 10,
                "specular": [
                    0,
                    0,
                    0,
                    1
                ]
            }
        },
        "_8_-_Default-variant-1": {
            "name": "_8_-_Default",
            "technique": "technique1",
            "values": {
                "ambient": [
                    0.588235,
                    0.588235,
                    0.588235,
                    1
                ],
                "diffuse": [
                    0.588235,
                    0.588235,
                    0.588235,
                    1
                ],
                "emission": [
                    0,
                    0,
                    0,
                    1
                ],
                "shininess": 10,
                "specular": [
                    0,
                    0,
                    0,
                    1
                ]
            }
        }
    },
    "meshes": {
        "geom-fuselage_1_400": {
            "name": "fuselage_1_400",
            "primitives": [
                {
                    "attributes": {
                        "NORMAL": "accessor_20",
                        "POSITION": "accessor_18"
                    },
                    "indices": "accessor_16",
                    "material": "_8_-_Default",
                    "mode": 4
                }
            ]
        },
        "geom-light_tail_400": {
            "name": "light_tail_400",
            "primitives": [
                {
                    "attributes": {
                        "NORMAL": "accessor_45",
                        "POSITION": "accessor_43"
                    },
                    "indices": "accessor_41",
                    "material": "_8_-_Default-variant-1",
                    "mode": 4
                }
            ]
        }
    },
    "nodes": {
        "node-DC3_LOD_400": {
            "children": [
                "node-Fuselage_400",
                "node-Lights"
            ],
            "name": "DC3_LOD_400"
        },
        "node-Douglas_DC3": {
            "children": [
                "node-DC3_LOD_400"
            ],
            "name": "Douglas_DC3"
        },
        "node-Fuselage_400": {
            "children": [
                "node-fuselage_1_400",
                "node-back_400",
                "node-c_wheel_400",
                "node-nose_400",
                "node-l_wing_400",
                "node-r_wing_400",
                "node-engine_left_400",
                "node-f_canopy_400",
                "node-engineright_400",
                "node-l_gear_400",
                "node-r_gear_400",
                "node-interior_400",
                "node-pilot_400",
                "node-Nnumbers_400"
            ],
            "name": "Fuselage_400"
        },
        "node-Lights": {
            "children": [],
            "name": "Lights"
        },
        "node-Nnumbers_400": {
            "children": [],
            "name": "Nnumbers_400"
        },
        "node-Particle_View_01": {
            "children": [],
            "name": "Particle_View_01"
        },
        "node-back_400": {
            "children": [
                "node-light_tail_400"
            ],
            "name": "back_400"
        },
        "node-c_wheel_400": {
            "children": [],
            "name": "c_wheel_400"
        },
        "node-cowl_flaps0_400": {
            "children": [],
            "name": "cowl_flaps0_400"
        },
        "node-cowl_flaps1_400": {
            "children": [],
            "name": "cowl_flaps1_400"
        },
        "node-engine_left_400": {
            "children": [
                "node-cowl_flaps0_400"
            ],
            "name": "engine_left_400"
        },
        "node-engineright_400": {
            "children": [
                "node-cowl_flaps1_400"
            ],
            "name": "engineright_400"
        },
        "node-f_canopy_400": {
            "children": [],
            "name": "f_canopy_400"
        },
        "node-fuselage_1_400": {
            "children": [
                "node_5"
            ],
            "matrix": [
                1,
                0,
                0,
                0,
                0,
                1,
                0,
                0,
                0,
                0,
                1,
                0,
                0.0187254,
                -2.48248,
                0.16791,
                1
            ],
            "name": "fuselage_1_400"
        },
        "node-interior_400": {
            "children": [],
            "name": "interior_400"
        },
        "node-l_gear_400": {
            "children": [],
            "name": "l_gear_400"
        },
        "node-l_wing_400": {
            "children": [],
            "name": "l_wing_400"
        },
        "node-light_tail_400": {
            "children": [
                "node_8"
            ],
            "matrix": [
                1,
                0,
                0,
                0,
                0,
                1,
                0,
                0,
                0,
                0,
                1,
                0,
                0.0187263,
                -13.5946,
                0.838025,
                1
            ],
            "name": "light_tail_400"
        },
        "node-nose_400": {
            "children": [],
            "name": "nose_400"
        },
        "node-pilot_400": {
            "children": [],
            "name": "pilot_400"
        },
        "node-r_gear_400": {
            "children": [],
            "name": "r_gear_400"
        },
        "node-r_wing_400": {
            "children": [],
            "name": "r_wing_400"
        },
        "node_0": {
            "children": [],
            "name": "EnvironmentAmbientLight"
        },
        "node_25": {
            "children": [
                "node_0",
                "node-Douglas_DC3",
                "node-Particle_View_01"
            ],
            "matrix": [
                1,
                0,
                0,
                0,
                0,
                0,
                -1,
                0,
                0,
                1,
                0,
                0,
                0,
                0,
                0,
                1
            ],
            "name": "Y_UP_Transform"
        },
        "node_5": {
            "children": [],
            "matrix": [
                -0.386504,
                -3.37893e-008,
                0,
                0,
                3.37893e-008,
                -0.386504,
                0,
                0,
                0,
                0,
                0.386504,
                0,
                1.03681e-007,
                -1.18597,
                0.327379,
                1
            ],
            "meshes": [
                "geom-fuselage_1_400"
            ],
            "name": ""
        },
        "node_8": {
            "children": [],
            "matrix": [
                -0.386504,
                -3.37893e-008,
                0,
                0,
                3.37893e-008,
                -0.386504,
                0,
                0,
                0,
                0,
                0.386504,
                0,
                -8.67776e-007,
                9.9262,
                -0.342737,
                1
            ],
            "meshes": [
                "geom-light_tail_400"
            ],
            "name": ""
        }
    },
    "programs": {
        "program_0": {
            "attributes": [
                "a_normal",
                "a_position"
            ],
            "fragmentShader": "multiplayer-low0FS",
            "vertexShader": "multiplayer-low0VS"
        },
        "program_1": {
            "attributes": [
                "a_normal",
                "a_position"
            ],
            "fragmentShader": "multiplayer-low1FS",
            "vertexShader": "multiplayer-low1VS"
        }
    },
    "scene": "defaultScene",
    "scenes": {
        "defaultScene": {
            "nodes": [
                "node_25"
            ]
        }
    },
    "shaders": {
        "multiplayer-low0FS": {
            "type": 35632,
            "uri": "data:text/plain;base64,"
        },
        "multiplayer-low0VS": {
            "type": 35633,
            "uri": "data:text/plain;base64,"
        },
        "multiplayer-low1FS": {
            "type": 35632,
            "uri": "data:text/plain;base64,"
        },
        "multiplayer-low1VS": {
            "type": 35633,
            "uri": "data:text/plain;base64,"
        }
    },
    "skins": {},
    "techniques": {
        "technique0": {
            "attributes": {
                "a_normal": "normal",
                "a_position": "position"
            },
            "parameters": {
                "ambient": {
                    "type": 35666
                },
                "diffuse": {
                    "type": 35666
                },
                "emission": {
                    "type": 35666
                },
                "modelViewMatrix": {
                    "semantic": "MODELVIEW",
                    "type": 35676
                },
                "normal": {
                    "semantic": "NORMAL",
                    "type": 35665
                },
                "normalMatrix": {
                    "semantic": "MODELVIEWINVERSETRANSPOSE",
                    "type": 35675
                },
                "position": {
                    "semantic": "POSITION",
                    "type": 35665
                },
                "projectionMatrix": {
                    "semantic": "PROJECTION",
                    "type": 35676
                },
                "shininess": {
                    "type": 5126
                },
                "specular": {
                    "type": 35666
                }
            },
            "program": "program_0",
            "states": {
                "enable": [
                    2929,
                    2884
                ]
            },
            "uniforms": {
                "u_ambient": "ambient",
                "u_diffuse": "diffuse",
                "u_emission": "emission",
                "u_modelViewMatrix": "modelViewMatrix",
                "u_normalMatrix": "normalMatrix",
                "u_projectionMatrix": "projectionMatrix",
                "u_shininess": "shininess",
                "u_specular": "specular"
            }
        },
        "technique1": {
            "attributes": {
                "a_normal": "normal",
                "a_position": "position"
            },
            "parameters": {
                "ambient": {
                    "type": 35666
                },
                "diffuse": {
                    "type": 35666
                },
                "emission": {
                    "type": 35666
                },
                "modelViewMatrix": {
                    "semantic": "MODELVIEW",
                    "type": 35676
                },
                "normal": {
                    "semantic": "NORMAL",
                    "type": 35665
                },
                "normalMatrix": {
                    "semantic": "MODELVIEWINVERSETRANSPOSE",
                    "type": 35675
                },
                "position": {
                    "semantic": "POSITION",
                    "type": 35665
                },
                "projectionMatrix": {
                    "semantic": "PROJECTION",
                    "type": 35676
                },
                "shininess": {
                    "type": 5126
                },
                "specular": {
                    "type": 35666
                }
            },
            "program": "program_1",
            "states": {
                "enable": [
                    2929,
                    2884
                ]
            },
            "uniforms": {
                "u_ambient": "ambient",
                "u_diffuse": "diffuse",
                "u_emission": "emission",
                "u_modelViewMatrix": "modelViewMatrix",
                "u_normalMatrix": "normalMatrix",
                "u_projectionMatrix": "projectionMatrix",
                "u_shininess": "shininess",
                "u_specular": "specular"
            }
        }
    }
}