{
    "accessors": {
        "accessor_100": {
            "bufferView": "bufferView_132",
            "byteOffset": 318208,
            "byteStride": 12,
            "componentType": 5126,
            "count": 16,
            "max": [
                0.982376,
                0.722717,
                0.751726
            ],
            "min": [
                -0.985784,
                -0.453641,
                -0.465079
            ],
            "type": "VEC3"
        },
        "accessor_102": {
            "bufferView": "bufferView_132",
            "byteOffset": 318400,
            "byteStride": 8,
            "componentType": 5126,
            "count": 16,
            "max": [
                0.102392,
                0.551834
            ],
            "min": [
                0.0993153,
                0.544605
            ],
            "type": "VEC2"
        },
        "accessor_123": {
            "bufferView": "bufferView_131",
            "byteOffset": 44448,
            "byteStride": 2,
            "componentType": 5123,
            "count": 24,
            "max": [
                9
            ],
            "min": [
                0
            ],
            "type": "SCALAR"
        },
        "accessor_125": {
            "bufferView": "bufferView_132",
            "byteOffset": 317536,
            "byteStride": 12,
            "componentType": 5126,
            "count": 15,
            "max": [
                0.000298119,
                0.0136788,
                0.00422793
            ],
            "min": [
                -0.0102531,
                -0.0539302,
                -0.00422791
            ],
            "type": "VEC3"
        },
        "accessor_127": {
            "bufferView": "bufferView_132",
            "byteOffset": 317716,
            "byteStride": 12,
            "componentType": 5126,
            "count": 15,
            "max": [
                0.759459,
                0.436323,
                0.783238
            ],
            "min": [
                -0.988918,
                -1,
                -0.989892
            ],
            "type": "VEC3"
        },
        "accessor_129": {
            "bufferView": "bufferView_132",
            "byteOffset": 317896,
            "byteStride": 8,
            "componentType": 5126,
            "count": 15,
            "max": [
                0.103132,
                0.551834
            ],
            "min": [
                0.0993153,
                0.531773
            ],
            "type": "VEC2"
        },
        "accessor_39": {
            "bufferView": "bufferView_131",
            "byteOffset": 0,
            "byteStride": 2,
            "componentType": 5123,
            "count": 16845,
            "max": [
                3558
            ],
            "min": [
                0
            ],
            "type": "SCALAR"
        },
        "accessor_42": {
            "bufferView": "bufferView_131",
            "byteOffset": 33690,
            "byteStride": 2,
            "componentType": 5123,
            "count": 255,
            "max": [
                7462
            ],
            "min": [
                0
            ],
            "type": "SCALAR"
        },
        "accessor_44": {
            "bufferView": "bufferView_132",
            "byteOffset": 0,
            "byteStride": 12,
            "componentType": 5126,
            "count": 7508,
            "max": [
                16.709,
                16.2211,
                9.61556
            ],
            "min": [
                -16.709,
                -18.0717,
                -2.30873
            ],
            "type": "VEC3"
        },
        "accessor_46": {
            "bufferView": "bufferView_132",
            "byteOffset": 90096,
            "byteStride": 12,
            "componentType": 5126,
            "count": 7508,
            "max": [
                1,
                1,
                1
            ],
            "min": [
                -1,
                -1,
                -1
            ],
            "type": "VEC3"
        },
        "accessor_48": {
            "bufferView": "bufferView_132",
            "byteOffset": 180192,
            "byteStride": 8,
            "componentType": 5126,
            "count": 7508,
            "max": [
                137.653,
                10.0119
            ],
            "min": [
                -0.565952,
                -5.86002
            ],
            "type": "VEC2"
        },
        "accessor_69": {
            "bufferView": "bufferView_131",
            "byteOffset": 34200,
            "byteStride": 2,
            "componentType": 5123,
            "count": 5124,
            "max": [
                1133
            ],
            "min": [
                0
            ],
            "type": "SCALAR"
        },
        "accessor_71": {
            "bufferView": "bufferView_132",
            "byteOffset": 240256,
            "byteStride": 12,
            "componentType": 5126,
            "count": 2415,
            "max": [
                21609.1,
                791.033,
                5830.53
            ],
            "min": [
                -2130.46,
                -4062.45,
                -5763.37
            ],
            "type": "VEC3"
        },
        "accessor_73": {
            "bufferView": "bufferView_132",
            "byteOffset": 269236,
            "byteStride": 12,
            "componentType": 5126,
            "count": 2415,
            "max": [
                1,
                1,
                1
            ],
            "min": [
                -1,
                -1,
                -1
            ],
            "type": "VEC3"
        },
        "accessor_75": {
            "bufferView": "bufferView_132",
            "byteOffset": 298216,
            "byteStride": 8,
            "componentType": 5126,
            "count": 2415,
            "max": [
                0.385732,
                0.754217
            ],
            "min": [
                0.00302851,
                0.000904977
            ],
            "type": "VEC2"
        },
        "accessor_96": {
            "bufferView": "bufferView_131",
            "byteOffset": 44496,
            "byteStride": 2,
            "componentType": 5123,
            "count": 24,
            "max": [
                7
            ],
            "min": [
                0
            ],
            "type": "SCALAR"
        },
        "accessor_98": {
            "bufferView": "bufferView_132",
            "byteOffset": 318016,
            "byteStride": 12,
            "componentType": 5126,
            "count": 16,
            "max": [
                -1.63819,
                -3.07211,
                -8.00174
            ],
            "min": [
                -1.64441,
                -3.09101,
                -8.01996
            ],
            "type": "VEC3"
        }
    },
    "animations": {},
    "asset": {
        "generator": "collada2gltf@6779c094d694e951beeb1012d03d4faa1edb0ddf",
        "premultipliedAlpha": true,
        "profile": {
            "api": "WebGL",
            "version": "1.0.2"
        },
        "version": "1.0.1"
    },
    "bufferViews": {
        "bufferView_131": {
            "buffer": "multiplayer",
            "byteLength": 44544,
            "byteOffset": 0,
            "target": 34963
        },
        "bufferView_132": {
            "buffer": "multiplayer",
            "byteLength": 318528,
            "byteOffset": 44544,
            "target": 34962
        }
    },
    "buffers": {
        "multiplayer": {
            "byteLength": 363072,
            "type": "arraybuffer",
            "uri": "data:application/octet-stream;base64,"
        }
    },
    "images": {
        "texture-low_jpg": {
            "name": "texture-low_jpg",
            "uri": "texture-low_0.jpg"
        }
    },
    "materials": {
        "_37Material": {
            "name": "_37Material",
            "technique": "technique0",
            "values": {
                "ambient": "texture_texture-low_jpg",
                "diffuse": "texture_texture-low_jpg",
                "emission": [
                    0,
                    0,
                    0,
                    1
                ],
                "shininess": 500,
                "specular": [
                    1,
                    1,
                    1,
                    1
                ]
            }
        },
        "glass": {
            "name": "glass",
            "technique": "technique1",
            "values": {
                "ambient": [
                    0.0392157,
                    0.109804,
                    0.164706,
                    1
                ],
                "diffuse": [
                    0.0392157,
                    0.109804,
                    0.164706,
                    1
                ],
                "emission": [
                    0,
                    0,
                    0,
                    1
                ],
                "shininess": 35,
                "transparency": 1.0
            }
        }
    },
    "meshes": {
        "geom-fuselage": {
            "name": "fuselage",
            "primitives": [
                {
                    "attributes": {
                        "NORMAL": "accessor_46",
                        "POSITION": "accessor_44",
                        "TEXCOORD_0": "accessor_48"
                    },
                    "indices": "accessor_39",
                    "material": "_37Material",
                    "mode": 4
                },
                {
                    "attributes": {
                        "NORMAL": "accessor_46",
                        "POSITION": "accessor_44"
                    },
                    "indices": "accessor_42",
                    "material": "glass",
                    "mode": 4
                }
            ]
        },
        "geom-gear": {
            "name": "gear",
            "primitives": [
                {
                    "attributes": {
                        "NORMAL": "accessor_73",
                        "POSITION": "accessor_71",
                        "TEXCOORD_0": "accessor_75"
                    },
                    "indices": "accessor_69",
                    "material": "_37Material",
                    "mode": 4
                }
            ]
        },
        "geom-gear_bit_left": {
            "name": "gear_bit_left",
            "primitives": [
                {
                    "attributes": {
                        "NORMAL": "accessor_127",
                        "POSITION": "accessor_125",
                        "TEXCOORD_0": "accessor_129"
                    },
                    "indices": "accessor_123",
                    "material": "_37Material",
                    "mode": 4
                }
            ]
        },
        "geom-gear_bit_left002": {
            "name": "gear_bit_left002",
            "primitives": [
                {
                    "attributes": {
                        "NORMAL": "accessor_100",
                        "POSITION": "accessor_98",
                        "TEXCOORD_0": "accessor_102"
                    },
                    "indices": "accessor_96",
                    "material": "_37Material",
                    "mode": 4
                }
            ]
        }
    },
    "nodes": {
        "node-aileron_left": {
            "children": [
                "node_2"
            ],
            "matrix": [
                4.59957,
                1.62118,
                -0.475083,
                0,
                -1.61259,
                4.62405,
                0.166563,
                0,
                0.50344,
                2.38419e-007,
                4.87406,
                0,
                -12.5847,
                -3.18168,
                0.656354,
                1
            ],
            "name": "aileron_left"
        },
        "node-fuselage": {
            "children": [],
            "matrix": [
                1.06914,
                0,
                0,
                0,
                0,
                1,
                0,
                0,
                0,
                0,
                1,
                0,
                -4.15229e-006,
                1.02868,
                0.124617,
                1
            ],
            "meshes": [
                "geom-fuselage"
            ],
            "name": "fuselage"
        },
        "node-gear": {
            "children": [
                "node_5"
            ],
            "matrix": [
                0.00100641,
                0,
                0,
                0,
                0,
                0.000777385,
                0.000639162,
                0,
                0,
                -0.000639162,
                0.000777385,
                0,
                0.0211729,
                13.4901,
                -0.722333,
                1
            ],
            "name": "gear"
        },
        "node-gear_bit_left": {
            "children": [
                "node_9"
            ],
            "matrix": [
                -0.0927971,
                -0.149754,
                -0.462937,
                0,
                -0.232671,
                -0.580112,
                0.234298,
                0,
                -0.644319,
                0.274697,
                0.0402948,
                0,
                -3.05838,
                0.0185739,
                -1.60157,
                1
            ],
            "name": "gear_bit_left"
        },
        "node-gear_bit_left002": {
            "children": [
                "node_7"
            ],
            "matrix": [
                -0.0927971,
                -0.149754,
                -0.462937,
                0,
                -0.232671,
                -0.580112,
                0.234298,
                0,
                -0.644319,
                0.274697,
                0.0402948,
                0,
                -3.05838,
                0.0185744,
                -1.60359,
                1
            ],
            "name": "gear_bit_left002"
        },
        "node_0": {
            "children": [],
            "name": "EnvironmentAmbientLight"
        },
        "node_10": {
            "children": [
                "node_0",
                "node-aileron_left",
                "node-fuselage",
                "node-gear",
                "node-gear_bit_left002",
                "node-gear_bit_left"
            ],
            "matrix": [
                1,
                0,
                0,
                0,
                0,
                0,
                -1,
                0,
                0,
                1,
                0,
                0,
                0,
                0,
                0,
                1
            ],
            "name": "Y_UP_Transform"
        },
        "node_2": {
            "children": [],
            "matrix": [
                -0.938687,
                0.329103,
                -0.102746,
                0,
                -0.0969591,
                0.0339937,
                0.994708,
                0,
                0.330854,
                0.943682,
                2.98023e-007,
                0,
                3.41962,
                2.01365,
                0.202487,
                1
            ],
            "name": ""
        },
        "node_5": {
            "children": [],
            "matrix": [
                -7.64359e-008,
                -0.491181,
                0.412149,
                0,
                1.9109e-008,
                0.412149,
                0.491181,
                0,
                -0.641191,
                7.64359e-008,
                0,
                0,
                -9.48451e-014,
                39.8769,
                56.8464,
                1
            ],
            "meshes": [
                "geom-gear"
            ],
            "name": ""
        },
        "node_7": {
            "children": [],
            "matrix": [
                1,
                0,
                0,
                0,
                0,
                1,
                0,
                0,
                0,
                0,
                1,
                0,
                0.00456754,
                0.0495722,
                -2.71136e-009,
                1
            ],
            "meshes": [
                "geom-gear_bit_left002"
            ],
            "name": ""
        },
        "node_9": {
            "children": [],
            "matrix": [
                1,
                0,
                0,
                0,
                0,
                1,
                0,
                0,
                0,
                0,
                1,
                0,
                0.00456754,
                0.0495722,
                -2.71136e-009,
                1
            ],
            "meshes": [
                "geom-gear_bit_left"
            ],
            "name": ""
        }
    },
    "programs": {
        "program_0": {
            "attributes": [
                "a_normal",
                "a_position",
                "a_texcoord0"
            ],
            "fragmentShader": "multiplayer0FS",
            "vertexShader": "multiplayer0VS"
        },
        "program_1": {
            "attributes": [
                "a_normal",
                "a_position"
            ],
            "fragmentShader": "multiplayer1FS",
            "vertexShader": "multiplayer1VS"
        }
    },
    "samplers": {
        "sampler_0": {
            "magFilter": 9729,
            "minFilter": 9729,
            "wrapS": 10497,
            "wrapT": 10497
        }
    },
    "scene": "defaultScene",
    "scenes": {
        "defaultScene": {
            "nodes": [
                "node_10"
            ]
        }
    },
    "shaders": {
        "multiplayer0FS": {
            "type": 35632,
            "uri": "../../../../shaders/multiplayerFS.glsl"
        },
        "multiplayer0VS": {
            "type": 35633,
            "uri": "../../../../shaders/baseVS.glsl"
        },
        "multiplayer1FS": {
            "type": 35632,
            "uri": "../../../../shaders/simpleGlassFS.glsl"
        },
        "multiplayer1VS": {
            "type": 35633,
            "uri": "../../../../shaders/baseVS.glsl"
        }
    },
    "skins": {},
    "techniques": {
        "technique0": {
            "attributes": {
                "a_normal": "normal",
                "a_position": "position",
                "a_texcoord0": "texcoord0"
            },
            "parameters": {
                "ambient": {
                    "type": 35678
                },
                "diffuse": {
                    "type": 35678
                },
                "emission": {
                    "type": 35666
                },
                "modelViewMatrix": {
                    "semantic": "MODELVIEW",
                    "type": 35676
                },
                "normal": {
                    "semantic": "NORMAL",
                    "type": 35665
                },
                "normalMatrix": {
                    "semantic": "MODELVIEWINVERSETRANSPOSE",
                    "type": 35675
                },
                "position": {
                    "semantic": "POSITION",
                    "type": 35665
                },
                "projectionMatrix": {
                    "semantic": "PROJECTION",
                    "type": 35676
                },
                "shininess": {
                    "type": 5126
                },
                "specular": {
                    "type": 35666
                },
                "texcoord0": {
                    "semantic": "TEXCOORD_0",
                    "type": 35664
                }
            },
            "program": "program_0",
            "states": {
                "enable": [
                    2929,
                    2884
                ]
            },
            "uniforms": {
                "u_ambient": "ambient",
                "u_diffuse": "diffuse",
                "u_emission": "emission",
                "u_modelViewMatrix": "modelViewMatrix",
                "u_normalMatrix": "normalMatrix",
                "u_projectionMatrix": "projectionMatrix",
                "u_shininess": "shininess",
                "u_specular": "specular"
            }
        },
        "technique1": {
            "attributes": {
                "a_normal": "normal",
                "a_position": "position"
            },
            "parameters": {
                "ambient": {
                    "type": 35666
                },
                "diffuse": {
                    "type": 35666
                },
                "emission": {
                    "type": 35666
                },
                "modelViewMatrix": {
                    "semantic": "MODELVIEW",
                    "type": 35676
                },
                "normal": {
                    "semantic": "NORMAL",
                    "type": 35665
                },
                "normalMatrix": {
                    "semantic": "MODELVIEWINVERSETRANSPOSE",
                    "type": 35675
                },
                "position": {
                    "semantic": "POSITION",
                    "type": 35665
                },
                "projectionMatrix": {
                    "semantic": "PROJECTION",
                    "type": 35676
                },
                "shininess": {
                    "type": 5126
                },
                "transparency": {
                    "type": 5126
                }
            },
            "program": "program_1",
            "states": {
                "enable": [
                    2929,
                    3042
                ],
                "functions": {
                    "blendEquationSeparate": [
                        32774,
                        32774
                    ],
                    "blendFuncSeparate": [
                        1,
                        771,
                        1,
                        771
                    ],
                    "depthMask": [
                        false
                    ]
                }
            },
            "uniforms": {
                "u_ambient": "ambient",
                "u_diffuse": "diffuse",
                "u_emission": "emission",
                "u_modelViewMatrix": "modelViewMatrix",
                "u_normalMatrix": "normalMatrix",
                "u_projectionMatrix": "projectionMatrix",
                "u_shininess": "shininess",
                "u_transparency": "transparency"
            }
        }
    },
    "textures": {
        "texture_texture-low_jpg": {
            "format": 6408,
            "internalFormat": 6408,
            "sampler": "sampler_0",
            "source": "texture-low_jpg",
            "target": 3553,
            "type": 5121
        }
    }
}