{
    "accessors": {
        "accessor_17": {
            "bufferView": "bufferView_77",
            "byteOffset": 0,
            "byteStride": 2,
            "componentType": 5123,
            "count": 894,
            "max": [
                178
            ],
            "min": [
                0
            ],
            "type": "SCALAR"
        },
        "accessor_19": {
            "bufferView": "bufferView_78",
            "byteOffset": 0,
            "byteStride": 12,
            "componentType": 5126,
            "count": 327,
            "max": [
                16.2299,
                16.1537,
                9.40104
            ],
            "min": [
                -16.2299,
                -17.5533,
                -2.27888
            ],
            "type": "VEC3"
        },
        "accessor_21": {
            "bufferView": "bufferView_78",
            "byteOffset": 3924,
            "byteStride": 12,
            "componentType": 5126,
            "count": 327,
            "max": [
                0.999694,
                0.888227,
                0.999852
            ],
            "min": [
                -0.999693,
                -1,
                -1
            ],
            "type": "VEC3"
        },
        "accessor_42": {
            "bufferView": "bufferView_77",
            "byteOffset": 1836,
            "byteStride": 2,
            "componentType": 5123,
            "count": 24,
            "max": [
                7
            ],
            "min": [
                0
            ],
            "type": "SCALAR"
        },
        "accessor_44": {
            "bufferView": "bufferView_78",
            "byteOffset": 8208,
            "byteStride": 12,
            "componentType": 5126,
            "count": 16,
            "max": [
                -1.63819,
                -3.07211,
                -8.00174
            ],
            "min": [
                -1.64441,
                -3.09101,
                -8.01996
            ],
            "type": "VEC3"
        },
        "accessor_46": {
            "bufferView": "bufferView_78",
            "byteOffset": 8400,
            "byteStride": 12,
            "componentType": 5126,
            "count": 16,
            "max": [
                0.982376,
                0.722717,
                0.751726
            ],
            "min": [
                -0.985784,
                -0.453641,
                -0.465079
            ],
            "type": "VEC3"
        },
        "accessor_69": {
            "bufferView": "bufferView_77",
            "byteOffset": 1788,
            "byteStride": 2,
            "componentType": 5123,
            "count": 24,
            "max": [
                9
            ],
            "min": [
                0
            ],
            "type": "SCALAR"
        },
        "accessor_71": {
            "bufferView": "bufferView_78",
            "byteOffset": 7848,
            "byteStride": 12,
            "componentType": 5126,
            "count": 15,
            "max": [
                0.000298119,
                0.0136788,
                0.00422793
            ],
            "min": [
                -0.0102531,
                -0.0539302,
                -0.00422791
            ],
            "type": "VEC3"
        },
        "accessor_73": {
            "bufferView": "bufferView_78",
            "byteOffset": 8028,
            "byteStride": 12,
            "componentType": 5126,
            "count": 15,
            "max": [
                0.759459,
                0.436323,
                0.783238
            ],
            "min": [
                -0.988918,
                -1,
                -0.989892
            ],
            "type": "VEC3"
        }
    },
    "animations": {},
    "asset": {
        "generator": "collada2gltf@6779c094d694e951beeb1012d03d4faa1edb0ddf",
        "premultipliedAlpha": true,
        "profile": {
            "api": "WebGL",
            "version": "1.0.2"
        },
        "version": "1.0.1"
    },
    "bufferViews": {
        "bufferView_77": {
            "buffer": "multiplayer-low",
            "byteLength": 1884,
            "byteOffset": 0,
            "target": 34963
        },
        "bufferView_78": {
            "buffer": "multiplayer-low",
            "byteLength": 8592,
            "byteOffset": 1884,
            "target": 34962
        }
    },
    "buffers": {
        "multiplayer-low": {
            "byteLength": 10476,
            "type": "arraybuffer",
            "uri": "data:application/octet-stream;base64,"
        }
    },
    "materials": {
        "_3_-_Default": {
            "name": "_3_-_Default",
            "technique": "technique0",
            "values": {
                "ambient": [
                    0.176471,
                    0.627451,
                    0.945098,
                    1
                ],
                "diffuse": [
                    0.176471,
                    0.627451,
                    0.945098,
                    1
                ],
                "emission": [
                    0,
                    0,
                    0,
                    1
                ],
                "shininess": 10,
                "specular": [
                    0,
                    0,
                    0,
                    1
                ]
            }
        },
        "_3_-_Default-variant-1": {
            "name": "_3_-_Default",
            "technique": "technique1",
            "values": {
                "ambient": [
                    0.176471,
                    0.627451,
                    0.945098,
                    1
                ],
                "diffuse": [
                    0.176471,
                    0.627451,
                    0.945098,
                    1
                ],
                "emission": [
                    0,
                    0,
                    0,
                    1
                ],
                "shininess": 10,
                "specular": [
                    0,
                    0,
                    0,
                    1
                ]
            }
        },
        "_3_-_Default-variant-2": {
            "name": "_3_-_Default",
            "technique": "technique1",
            "values": {
                "ambient": [
                    0.176471,
                    0.627451,
                    0.945098,
                    1
                ],
                "diffuse": [
                    0.176471,
                    0.627451,
                    0.945098,
                    1
                ],
                "emission": [
                    0,
                    0,
                    0,
                    1
                ],
                "shininess": 10,
                "specular": [
                    0,
                    0,
                    0,
                    1
                ]
            }
        }
    },
    "meshes": {
        "geom-fuselage": {
            "name": "fuselage",
            "primitives": [
                {
                    "attributes": {
                        "NORMAL": "accessor_21",
                        "POSITION": "accessor_19"
                    },
                    "indices": "accessor_17",
                    "material": "_3_-_Default",
                    "mode": 4
                }
            ]
        },
        "geom-gear_bit_left": {
            "name": "gear_bit_left",
            "primitives": [
                {
                    "attributes": {
                        "NORMAL": "accessor_73",
                        "POSITION": "accessor_71"
                    },
                    "indices": "accessor_69",
                    "material": "_3_-_Default-variant-2",
                    "mode": 4
                }
            ]
        },
        "geom-gear_bit_left002": {
            "name": "gear_bit_left002",
            "primitives": [
                {
                    "attributes": {
                        "NORMAL": "accessor_46",
                        "POSITION": "accessor_44"
                    },
                    "indices": "accessor_42",
                    "material": "_3_-_Default-variant-1",
                    "mode": 4
                }
            ]
        }
    },
    "nodes": {
        "node-aileron_left": {
            "children": [
                "node_2"
            ],
            "matrix": [
                4.59957,
                1.62118,
                -0.475083,
                0,
                -1.61259,
                4.62405,
                0.166563,
                0,
                0.50344,
                2.38419e-007,
                4.87406,
                0,
                -12.5847,
                -3.18168,
                0.656354,
                1
            ],
            "name": "aileron_left"
        },
        "node-fuselage": {
            "children": [],
            "matrix": [
                1.06914,
                0,
                0,
                0,
                0,
                1,
                0,
                0,
                0,
                0,
                1,
                0,
                -4.15229e-006,
                1.02868,
                0.124617,
                1
            ],
            "meshes": [
                "geom-fuselage"
            ],
            "name": "fuselage"
        },
        "node-gear_bit_left": {
            "children": [
                "node_7"
            ],
            "matrix": [
                -0.0927971,
                -0.149754,
                -0.462937,
                0,
                -0.232671,
                -0.580112,
                0.234298,
                0,
                -0.644319,
                0.274697,
                0.0402948,
                0,
                -3.05838,
                0.0185739,
                -1.60157,
                1
            ],
            "name": "gear_bit_left"
        },
        "node-gear_bit_left002": {
            "children": [
                "node_5"
            ],
            "matrix": [
                -0.0927971,
                -0.149754,
                -0.462937,
                0,
                -0.232671,
                -0.580112,
                0.234298,
                0,
                -0.644319,
                0.274697,
                0.0402948,
                0,
                -3.05838,
                0.0185744,
                -1.60359,
                1
            ],
            "name": "gear_bit_left002"
        },
        "node_0": {
            "children": [],
            "name": "EnvironmentAmbientLight"
        },
        "node_2": {
            "children": [],
            "matrix": [
                -0.938687,
                0.329103,
                -0.102746,
                0,
                -0.0969591,
                0.0339937,
                0.994708,
                0,
                0.330854,
                0.943682,
                2.98023e-007,
                0,
                3.41962,
                2.01365,
                0.202487,
                1
            ],
            "name": ""
        },
        "node_5": {
            "children": [],
            "matrix": [
                1,
                0,
                0,
                0,
                0,
                1,
                0,
                0,
                0,
                0,
                1,
                0,
                0.00456754,
                0.0495722,
                -2.71136e-009,
                1
            ],
            "meshes": [
                "geom-gear_bit_left002"
            ],
            "name": ""
        },
        "node_7": {
            "children": [],
            "matrix": [
                1,
                0,
                0,
                0,
                0,
                1,
                0,
                0,
                0,
                0,
                1,
                0,
                0.00456754,
                0.0495722,
                -2.71136e-009,
                1
            ],
            "meshes": [
                "geom-gear_bit_left"
            ],
            "name": ""
        },
        "node_8": {
            "children": [
                "node_0",
                "node-aileron_left",
                "node-fuselage",
                "node-gear_bit_left002",
                "node-gear_bit_left"
            ],
            "matrix": [
                1,
                0,
                0,
                0,
                0,
                0,
                -1,
                0,
                0,
                1,
                0,
                0,
                0,
                0,
                0,
                1
            ],
            "name": "Y_UP_Transform"
        }
    },
    "programs": {
        "program_0": {
            "attributes": [
                "a_normal",
                "a_position"
            ],
            "fragmentShader": "multiplayer-low0FS",
            "vertexShader": "multiplayer-low0VS"
        },
        "program_1": {
            "attributes": [
                "a_normal",
                "a_position"
            ],
            "fragmentShader": "multiplayer-low1FS",
            "vertexShader": "multiplayer-low1VS"
        }
    },
    "scene": "defaultScene",
    "scenes": {
        "defaultScene": {
            "nodes": [
                "node_8"
            ]
        }
    },
    "shaders": {
        "multiplayer-low0FS": {
            "type": 35632,
            "uri": "data:text/plain;base64,"
        },
        "multiplayer-low0VS": {
            "type": 35633,
            "uri": "data:text/plain;base64,"
        },
        "multiplayer-low1FS": {
            "type": 35632,
            "uri": "data:text/plain;base64,"
        },
        "multiplayer-low1VS": {
            "type": 35633,
            "uri": "data:text/plain;base64,"
        }
    },
    "skins": {},
    "techniques": {
        "technique0": {
            "attributes": {
                "a_normal": "normal",
                "a_position": "position"
            },
            "parameters": {
                "ambient": {
                    "type": 35666
                },
                "diffuse": {
                    "type": 35666
                },
                "emission": {
                    "type": 35666
                },
                "modelViewMatrix": {
                    "semantic": "MODELVIEW",
                    "type": 35676
                },
                "normal": {
                    "semantic": "NORMAL",
                    "type": 35665
                },
                "normalMatrix": {
                    "semantic": "MODELVIEWINVERSETRANSPOSE",
                    "type": 35675
                },
                "position": {
                    "semantic": "POSITION",
                    "type": 35665
                },
                "projectionMatrix": {
                    "semantic": "PROJECTION",
                    "type": 35676
                },
                "shininess": {
                    "type": 5126
                },
                "specular": {
                    "type": 35666
                }
            },
            "program": "program_0",
            "states": {
                "enable": [
                    2929,
                    2884
                ]
            },
            "uniforms": {
                "u_ambient": "ambient",
                "u_diffuse": "diffuse",
                "u_emission": "emission",
                "u_modelViewMatrix": "modelViewMatrix",
                "u_normalMatrix": "normalMatrix",
                "u_projectionMatrix": "projectionMatrix",
                "u_shininess": "shininess",
                "u_specular": "specular"
            }
        },
        "technique1": {
            "attributes": {
                "a_normal": "normal",
                "a_position": "position"
            },
            "parameters": {
                "ambient": {
                    "type": 35666
                },
                "diffuse": {
                    "type": 35666
                },
                "emission": {
                    "type": 35666
                },
                "modelViewMatrix": {
                    "semantic": "MODELVIEW",
                    "type": 35676
                },
                "normal": {
                    "semantic": "NORMAL",
                    "type": 35665
                },
                "normalMatrix": {
                    "semantic": "MODELVIEWINVERSETRANSPOSE",
                    "type": 35675
                },
                "position": {
                    "semantic": "POSITION",
                    "type": 35665
                },
                "projectionMatrix": {
                    "semantic": "PROJECTION",
                    "type": 35676
                },
                "shininess": {
                    "type": 5126
                },
                "specular": {
                    "type": 35666
                }
            },
            "program": "program_1",
            "states": {
                "enable": [
                    2929,
                    2884
                ]
            },
            "uniforms": {
                "u_ambient": "ambient",
                "u_diffuse": "diffuse",
                "u_emission": "emission",
                "u_modelViewMatrix": "modelViewMatrix",
                "u_normalMatrix": "normalMatrix",
                "u_projectionMatrix": "projectionMatrix",
                "u_shininess": "shininess",
                "u_specular": "specular"
            }
        }
    }
}