{
    "accessors": {
        "accessor_21": {
            "bufferView": "bufferView_56",
            "byteOffset": 0,
            "byteStride": 2,
            "componentType": 5123,
            "count": 18468,
            "max": [
                4991
            ],
            "min": [
                0
            ],
            "type": "SCALAR"
        },
        "accessor_23": {
            "bufferView": "bufferView_57",
            "byteOffset": 0,
            "byteStride": 12,
            "componentType": 5126,
            "count": 7136,
            "max": [
                39.7076,
                36.612,
                19.1951
            ],
            "min": [
                -39.7076,
                -36.5064,
                -3.87266
            ],
            "type": "VEC3"
        },
        "accessor_25": {
            "bufferView": "bufferView_57",
            "byteOffset": 85632,
            "byteStride": 12,
            "componentType": 5126,
            "count": 7136,
            "max": [
                1,
                1,
                1
            ],
            "min": [
                -1,
                -1,
                -1
            ],
            "type": "VEC3"
        },
        "accessor_27": {
            "bufferView": "bufferView_57",
            "byteOffset": 171264,
            "byteStride": 8,
            "componentType": 5126,
            "count": 7136,
            "max": [
                0.998704,
                1.99737
            ],
            "min": [
                0.00138999,
                0.00106949
            ],
            "type": "VEC2"
        },
        "accessor_48": {
            "bufferView": "bufferView_56",
            "byteOffset": 36936,
            "byteStride": 2,
            "componentType": 5123,
            "count": 5382,
            "max": [
                1492
            ],
            "min": [
                0
            ],
            "type": "SCALAR"
        },
        "accessor_50": {
            "bufferView": "bufferView_57",
            "byteOffset": 228352,
            "byteStride": 12,
            "componentType": 5126,
            "count": 2150,
            "max": [
                7.08777,
                13.0288,
                0.247787
            ],
            "min": [
                -29.2507,
                -1.13718,
                -4.30455
            ],
            "type": "VEC3"
        },
        "accessor_52": {
            "bufferView": "bufferView_57",
            "byteOffset": 254152,
            "byteStride": 12,
            "componentType": 5126,
            "count": 2150,
            "max": [
                1,
                0.9999,
                1
            ],
            "min": [
                -0.999814,
                -1,
                -1
            ],
            "type": "VEC3"
        },
        "accessor_54": {
            "bufferView": "bufferView_57",
            "byteOffset": 279952,
            "byteStride": 8,
            "componentType": 5126,
            "count": 2150,
            "max": [
                0.997519,
                0.991338
            ],
            "min": [
                0.00148796,
                0.00239658
            ],
            "type": "VEC2"
        }
    },
    "animations": {},
    "asset": {
        "generator": "collada2gltf@6779c094d694e951beeb1012d03d4faa1edb0ddf",
        "premultipliedAlpha": true,
        "profile": {
            "api": "WebGL",
            "version": "1.0.2"
        },
        "version": "1.0.1"
    },
    "bufferViews": {
        "bufferView_56": {
            "buffer": "multiplayer",
            "byteLength": 47700,
            "byteOffset": 0,
            "target": 34963
        },
        "bufferView_57": {
            "buffer": "multiplayer",
            "byteLength": 297152,
            "byteOffset": 47700,
            "target": 34962
        }
    },
    "buffers": {
        "multiplayer": {
            "byteLength": 344852,
            "type": "arraybuffer",
            "uri": "data:application/octet-stream;base64,"
        }
    },
    "images": {
        "texture_0_jpg": {
            "name": "texture_0_jpg",
            "uri": "texture-low_0.jpg"
        }
    },
    "materials": {
        "Material__0": {
            "name": "Material__0",
            "technique": "technique0",
            "values": {
                "ambient": "texture_texture_0_jpg",
                "diffuse": "texture_texture_0_jpg",
                "emission": [
                    0,
                    0,
                    0,
                    1
                ],
                "shininess": 60,
                "specular": [
                    0.9,
                    0.9,
                    0.9,
                    1
                ]
            }
        }
    },
    "meshes": {
        "geom-a380": {
            "name": "a380",
            "primitives": [
                {
                    "attributes": {
                        "NORMAL": "accessor_25",
                        "POSITION": "accessor_23",
                        "TEXCOORD_0": "accessor_27"
                    },
                    "indices": "accessor_21",
                    "material": "Material__0",
                    "mode": 4
                }
            ]
        },
        "geom-gear": {
            "name": "gear",
            "primitives": [
                {
                    "attributes": {
                        "NORMAL": "accessor_52",
                        "POSITION": "accessor_50",
                        "TEXCOORD_0": "accessor_54"
                    },
                    "indices": "accessor_48",
                    "material": "Material__0",
                    "mode": 4
                }
            ]
        }
    },
    "nodes": {
        "node-a380": {
            "children": [],
            "matrix": [
                1,
                0,
                0,
                0,
                0,
                1,
                0,
                0,
                0,
                0,
                1,
                0,
                2.71638e-006,
                -2.67443,
                0.551265,
                1
            ],
            "meshes": [
                "geom-a380"
            ],
            "name": "a380"
        },
        "node-gear": {
            "children": [
                "node_3"
            ],
            "matrix": [
                0.121868,
                -0.992546,
                -5.82077e-011,
                0,
                0.992395,
                0.12185,
                -0.0174544,
                0,
                0.0173243,
                0.00212713,
                0.999848,
                0,
                -1.41988,
                11.9661,
                -2.69141,
                1
            ],
            "name": "gear"
        },
        "node_0": {
            "children": [],
            "name": "EnvironmentAmbientLight"
        },
        "node_3": {
            "children": [],
            "matrix": [
                1,
                0,
                0,
                0,
                0,
                1,
                0,
                0,
                0,
                0,
                1,
                0,
                11.0712,
                -5.95148,
                2.0266,
                1
            ],
            "meshes": [
                "geom-gear"
            ],
            "name": ""
        },
        "node_4": {
            "children": [
                "node_0",
                "node-a380",
                "node-gear"
            ],
            "matrix": [
                1,
                0,
                0,
                0,
                0,
                0,
                -1,
                0,
                0,
                1,
                0,
                0,
                0,
                0,
                0,
                1
            ],
            "name": "Y_UP_Transform"
        }
    },
    "programs": {
        "program_0": {
            "attributes": [
                "a_normal",
                "a_position",
                "a_texcoord0"
            ],
            "fragmentShader": "multiplayer0FS",
            "vertexShader": "multiplayer0VS"
        }
    },
    "samplers": {
        "sampler_0": {
            "magFilter": 9729,
            "minFilter": 9729,
            "wrapS": 10497,
            "wrapT": 10497
        }
    },
    "scene": "defaultScene",
    "scenes": {
        "defaultScene": {
            "nodes": [
                "node_4"
            ]
        }
    },
    "shaders": {
        "multiplayer0FS": {
            "type": 35632,
            "uri": "../../../../shaders/multiplayerFS.glsl"
        },
        "multiplayer0VS": {
            "type": 35633,
            "uri": "../../../../shaders/baseVS.glsl"
        }
    },
    "skins": {},
    "techniques": {
        "technique0": {
            "attributes": {
                "a_normal": "normal",
                "a_position": "position",
                "a_texcoord0": "texcoord0"
            },
            "parameters": {
                "ambient": {
                    "type": 35678
                },
                "diffuse": {
                    "type": 35678
                },
                "emission": {
                    "type": 35666
                },
                "modelViewMatrix": {
                    "semantic": "MODELVIEW",
                    "type": 35676
                },
                "normal": {
                    "semantic": "NORMAL",
                    "type": 35665
                },
                "normalMatrix": {
                    "semantic": "MODELVIEWINVERSETRANSPOSE",
                    "type": 35675
                },
                "position": {
                    "semantic": "POSITION",
                    "type": 35665
                },
                "projectionMatrix": {
                    "semantic": "PROJECTION",
                    "type": 35676
                },
                "shininess": {
                    "type": 5126
                },
                "specular": {
                    "type": 35666
                },
                "texcoord0": {
                    "semantic": "TEXCOORD_0",
                    "type": 35664
                }
            },
            "program": "program_0",
            "states": {
                "enable": [
                    2929,
                    2884
                ]
            },
            "uniforms": {
                "u_ambient": "ambient",
                "u_diffuse": "diffuse",
                "u_emission": "emission",
                "u_modelViewMatrix": "modelViewMatrix",
                "u_normalMatrix": "normalMatrix",
                "u_projectionMatrix": "projectionMatrix",
                "u_shininess": "shininess",
                "u_specular": "specular"
            }
        }
    },
    "textures": {
        "texture_texture_0_jpg": {
            "format": 6408,
            "internalFormat": 6408,
            "sampler": "sampler_0",
            "source": "texture_0_jpg",
            "target": 3553,
            "type": 5121
        }
    }
}