{
    "accessors": {
        "accessor_55": {
            "bufferView": "bufferView_69",
            "byteOffset": 0,
            "byteStride": 2,
            "componentType": 5123,
            "count": 4332,
            "max": [
                577
            ],
            "min": [
                0
            ],
            "type": "SCALAR"
        },
        "accessor_58": {
            "bufferView": "bufferView_69",
            "byteOffset": 8664,
            "byteStride": 2,
            "componentType": 5123,
            "count": 1122,
            "max": [
                1650
            ],
            "min": [
                0
            ],
            "type": "SCALAR"
        },
        "accessor_61": {
            "bufferView": "bufferView_69",
            "byteOffset": 10908,
            "byteStride": 2,
            "componentType": 5123,
            "count": 459,
            "max": [
                2083
            ],
            "min": [
                0
            ],
            "type": "SCALAR"
        },
        "accessor_63": {
            "bufferView": "bufferView_70",
            "byteOffset": 0,
            "byteStride": 12,
            "componentType": 5126,
            "count": 2126,
            "max": [
                5.45018,
                2.45624,
                1.8408
            ],
            "min": [
                -5.45018,
                -5.59613,
                -1.26008
            ],
            "type": "VEC3"
        },
        "accessor_65": {
            "bufferView": "bufferView_70",
            "byteOffset": 25512,
            "byteStride": 12,
            "componentType": 5126,
            "count": 2126,
            "max": [
                1,
                1,
                1
            ],
            "min": [
                -1,
                -0.999969,
                -1
            ],
            "type": "VEC3"
        },
        "accessor_67": {
            "bufferView": "bufferView_70",
            "byteOffset": 51024,
            "byteStride": 8,
            "componentType": 5126,
            "count": 2126,
            "max": [
                1,
                1
            ],
            "min": [
                0,
                0
            ],
            "type": "VEC2"
        }
    },
    "animations": {},
    "asset": {
        "generator": "collada2gltf@6779c094d694e951beeb1012d03d4faa1edb0ddf",
        "premultipliedAlpha": true,
        "profile": {
            "api": "WebGL",
            "version": "1.0.2"
        },
        "version": "1.0.1"
    },
    "bufferViews": {
        "bufferView_69": {
            "buffer": "multiplayer",
            "byteLength": 11828,
            "byteOffset": 0,
            "target": 34963
        },
        "bufferView_70": {
            "buffer": "multiplayer",
            "byteLength": 68032,
            "byteOffset": 11828,
            "target": 34962
        }
    },
    "buffers": {
        "multiplayer": {
            "byteLength": 79860,
            "type": "arraybuffer",
            "uri": "data:application/octet-stream;base64,"
        }
    },
    "images": {
        "interior-low_jpg": {
            "name": "interior-low_jpg",
            "uri": "interior-low.jpg"
        },
        "texture-low_0_jpg": {
            "name": "texture-low_0_jpg",
            "uri": "texture-low_0.jpg"
        }
    },
    "materials": {
        "Cessna172": {
            "name": "Cessna172",
            "technique": "technique0",
            "values": {
                "ambient": "texture_texture-low_0_jpg",
                "diffuse": "texture_texture-low_0_jpg",
                "emission": [
                    0,
                    0,
                    0,
                    1
                ],
                "shininess": 60,
                "specular": [
                    1,
                    1,
                    1,
                    1
                ]
            }
        },
        "CessnaCockpit2": {
            "name": "CessnaCockpit2",
            "technique": "technique0",
            "values": {
                "ambient": "texture_interior-low_jpg",
                "diffuse": "texture_interior-low_jpg",
                "emission": [
                    0,
                    0,
                    0,
                    1
                ],
                "shininess": 20,
                "specular": [
                    0.0431373,
                    0.0431373,
                    0.0431373,
                    1
                ]
            }
        },
        "CessnaWindows": {
            "name": "CessnaWindows",
            "technique": "technique1",
            "values": {
                "ambient": [
                    0.0156863,
                    0.266667,
                    0.227451,
                    1
                ],
                "diffuse": [
                    0.0156863,
                    0.266667,
                    0.227451,
                    1
                ],
                "emission": [
                    0,
                    0,
                    0,
                    1
                ],
                "shininess": 35,
                "specular": [
                    0,
                    0,
                    0,
                    1
                ],
                "transparency": 0.2
            }
        }
    },
    "meshes": {
        "geom-Cessna1764": {
            "name": "Cessna1764",
            "primitives": [
                {
                    "attributes": {
                        "NORMAL": "accessor_65",
                        "POSITION": "accessor_63",
                        "TEXCOORD_0": "accessor_67"
                    },
                    "indices": "accessor_55",
                    "material": "Cessna172",
                    "mode": 4
                },
                {
                    "attributes": {
                        "NORMAL": "accessor_65",
                        "POSITION": "accessor_63",
                        "TEXCOORD_0": "accessor_67"
                    },
                    "indices": "accessor_58",
                    "material": "CessnaCockpit2",
                    "mode": 4
                },
                {
                    "attributes": {
                        "NORMAL": "accessor_65",
                        "POSITION": "accessor_63"
                    },
                    "indices": "accessor_61",
                    "material": "CessnaWindows",
                    "mode": 4
                }
            ]
        }
    },
    "nodes": {
        "node-Cessna1764": {
            "children": [],
            "matrix": [
                1,
                0,
                0,
                0,
                0,
                1,
                0,
                0,
                0,
                0,
                1,
                0,
                1.95865e-007,
                0.244373,
                0.500154,
                1
            ],
            "meshes": [
                "geom-Cessna1764"
            ],
            "name": "Cessna1764"
        },
        "node_0": {
            "children": [],
            "name": "EnvironmentAmbientLight"
        },
        "node_2": {
            "children": [
                "node_0",
                "node-Cessna1764"
            ],
            "matrix": [
                1,
                0,
                0,
                0,
                0,
                0,
                -1,
                0,
                0,
                1,
                0,
                0,
                0,
                0,
                0,
                1
            ],
            "name": "Y_UP_Transform"
        }
    },
    "programs": {
        "program_0": {
            "attributes": [
                "a_normal",
                "a_position",
                "a_texcoord0"
            ],
            "fragmentShader": "multiplayer0FS",
            "vertexShader": "multiplayer0VS"
        },
        "program_1": {
            "attributes": [
                "a_normal",
                "a_position"
            ],
            "fragmentShader": "multiplayer1FS",
            "vertexShader": "multiplayer1VS"
        }
    },
    "samplers": {
        "sampler_0": {
            "magFilter": 9729,
            "minFilter": 9729,
            "wrapS": 10497,
            "wrapT": 10497
        }
    },
    "scene": "defaultScene",
    "scenes": {
        "defaultScene": {
            "nodes": [
                "node_2"
            ]
        }
    },
    "shaders": {
        "multiplayer0FS": {
            "type": 35632,
            "uri": "../../../../shaders/multiplayerFS.glsl"
        },
        "multiplayer0VS": {
            "type": 35633,
            "uri": "../../../../shaders/baseVS.glsl"
        },
        "multiplayer1FS": {
            "type": 35632,
            "uri": "../../../../shaders/simpleGlassFS.glsl"
        },
        "multiplayer1VS": {
            "type": 35633,
            "uri": "../../../../shaders/baseVS.glsl"
        }
    },
    "skins": {},
    "techniques": {
        "technique0": {
            "attributes": {
                "a_normal": "normal",
                "a_position": "position",
                "a_texcoord0": "texcoord0"
            },
            "parameters": {
                "ambient": {
                    "type": 35678
                },
                "diffuse": {
                    "type": 35678
                },
                "emission": {
                    "type": 35666
                },
                "modelViewMatrix": {
                    "semantic": "MODELVIEW",
                    "type": 35676
                },
                "normal": {
                    "semantic": "NORMAL",
                    "type": 35665
                },
                "normalMatrix": {
                    "semantic": "MODELVIEWINVERSETRANSPOSE",
                    "type": 35675
                },
                "position": {
                    "semantic": "POSITION",
                    "type": 35665
                },
                "projectionMatrix": {
                    "semantic": "PROJECTION",
                    "type": 35676
                },
                "shininess": {
                    "type": 5126
                },
                "specular": {
                    "type": 35666
                },
                "texcoord0": {
                    "semantic": "TEXCOORD_0",
                    "type": 35664
                }
            },
            "program": "program_0",
            "states": {
                "enable": [
                    2929,
                    2884
                ]
            },
            "uniforms": {
                "u_ambient": "ambient",
                "u_diffuse": "diffuse",
                "u_emission": "emission",
                "u_modelViewMatrix": "modelViewMatrix",
                "u_normalMatrix": "normalMatrix",
                "u_projectionMatrix": "projectionMatrix",
                "u_shininess": "shininess",
                "u_specular": "specular"
            }
        },
        "technique1": {
            "attributes": {
                "a_normal": "normal",
                "a_position": "position"
            },
            "parameters": {
                "ambient": {
                    "type": 35666
                },
                "diffuse": {
                    "type": 35666
                },
                "emission": {
                    "type": 35666
                },
                "modelViewMatrix": {
                    "semantic": "MODELVIEW",
                    "type": 35676
                },
                "normal": {
                    "semantic": "NORMAL",
                    "type": 35665
                },
                "normalMatrix": {
                    "semantic": "MODELVIEWINVERSETRANSPOSE",
                    "type": 35675
                },
                "position": {
                    "semantic": "POSITION",
                    "type": 35665
                },
                "projectionMatrix": {
                    "semantic": "PROJECTION",
                    "type": 35676
                },
                "shininess": {
                    "type": 5126
                },
                "specular": {
                    "type": 35666
                },
                "transparency": {
                    "type": 5126
                }
            },
            "program": "program_1",
            "states": {
                "enable": [
                    2929,
                    3042
                ],
                "functions": {
                    "blendEquationSeparate": [
                        32774,
                        32774
                    ],
                    "blendFuncSeparate": [
                        1,
                        771,
                        1,
                        771
                    ],
                    "depthMask": [
                        false
                    ]
                }
            },
            "uniforms": {
                "u_ambient": "ambient",
                "u_diffuse": "diffuse",
                "u_emission": "emission",
                "u_modelViewMatrix": "modelViewMatrix",
                "u_normalMatrix": "normalMatrix",
                "u_projectionMatrix": "projectionMatrix",
                "u_shininess": "shininess",
                "u_specular": "specular",
                "u_transparency": "transparency"
            }
        }
    },
    "textures": {
        "texture_texture-low_0_jpg": {
            "format": 6408,
            "internalFormat": 6408,
            "sampler": "sampler_0",
            "source": "texture-low_0_jpg",
            "target": 3553,
            "type": 5121
        },	
        "texture_interior-low_jpg": {
            "format": 6408,
            "internalFormat": 6408,
            "sampler": "sampler_0",
            "source": "interior-low_jpg",
            "target": 3553,
            "type": 5121
        }
    }
}