{
    "accessors": {
        "accessor_21": {
            "bufferView": "bufferView_56",
            "byteOffset": 0,
            "byteStride": 2,
            "componentType": 5123,
            "count": 16539,
            "max": [
                4028
            ],
            "min": [
                0
            ],
            "type": "SCALAR"
        },
        "accessor_23": {
            "bufferView": "bufferView_57",
            "byteOffset": 0,
            "byteStride": 12,
            "componentType": 5126,
            "count": 7004,
            "max": [
                32.25,
                32.5858,
                11.4741
            ],
            "min": [
                -32.25,
                -34.4568,
                -4.80922
            ],
            "type": "VEC3"
        },
        "accessor_25": {
            "bufferView": "bufferView_57",
            "byteOffset": 84048,
            "byteStride": 12,
            "componentType": 5126,
            "count": 7004,
            "max": [
                1,
                1,
                1
            ],
            "min": [
                -1,
                -1,
                -1
            ],
            "type": "VEC3"
        },
        "accessor_27": {
            "bufferView": "bufferView_57",
            "byteOffset": 168096,
            "byteStride": 8,
            "componentType": 5126,
            "count": 7004,
            "max": [
                0.9993,
                1.15648
            ],
            "min": [
                -2.3065,
                -0.157893
            ],
            "type": "VEC2"
        },
        "accessor_48": {
            "bufferView": "bufferView_56",
            "byteOffset": 33078,
            "byteStride": 2,
            "componentType": 5123,
            "count": 3288,
            "max": [
                1132
            ],
            "min": [
                0
            ],
            "type": "SCALAR"
        },
        "accessor_50": {
            "bufferView": "bufferView_57",
            "byteOffset": 224128,
            "byteStride": 12,
            "componentType": 5126,
            "count": 1715,
            "max": [
                11.5536,
                28.9203,
                0.0826509
            ],
            "min": [
                -1.2343,
                -2.8168,
                -4.57549
            ],
            "type": "VEC3"
        },
        "accessor_52": {
            "bufferView": "bufferView_57",
            "byteOffset": 244708,
            "byteStride": 12,
            "componentType": 5126,
            "count": 1715,
            "max": [
                0.999829,
                1,
                0.999708
            ],
            "min": [
                -0.999829,
                -0.998322,
                -0.999998
            ],
            "type": "VEC3"
        },
        "accessor_54": {
            "bufferView": "bufferView_57",
            "byteOffset": 265288,
            "byteStride": 8,
            "componentType": 5126,
            "count": 1715,
            "max": [
                0.619231,
                0.984355
            ],
            "min": [
                -2.2115,
                -0.105172
            ],
            "type": "VEC2"
        }
    },
    "animations": {},
    "asset": {
        "generator": "collada2gltf@6779c094d694e951beeb1012d03d4faa1edb0ddf",
        "premultipliedAlpha": true,
        "profile": {
            "api": "WebGL",
            "version": "1.0.2"
        },
        "version": "1.0.1"
    },
    "bufferViews": {
        "bufferView_56": {
            "buffer": "\\PROJECTS\\GeoFS\\tools\\collada2gltf\\convert\\gltf\\multiplayer",
            "byteLength": 39656,
            "byteOffset": 0,
            "target": 34963
        },
        "bufferView_57": {
            "buffer": "\\PROJECTS\\GeoFS\\tools\\collada2gltf\\convert\\gltf\\multiplayer",
            "byteLength": 279008,
            "byteOffset": 39656,
            "target": 34962
        }
    },
    "buffers": {
        "\\PROJECTS\\GeoFS\\tools\\collada2gltf\\convert\\gltf\\multiplayer": {
            "byteLength": 318664,
            "type": "arraybuffer",
            "uri": "data:application/octet-stream;base64,"
        }
    },
    "images": {
        "texture-low_0_jpg": {
            "name": "texture-low_0_jpg",
            "uri": "texture-low_0.jpg"
        }
    },
    "materials": {
        "_1_-_Default": {
            "name": "_1_-_Default",
            "technique": "technique0",
            "values": {
                "ambient": "texture_texture-low_0_jpg",
                "diffuse": "texture_texture-low_0_jpg",
                "emission": [
                    0,
                    0,
                    0,
                    1
                ],
                "shininess": 54
            }
        }
    },
    "meshes": {
        "geom-A3509": {
            "name": "A3509",
            "primitives": [
                {
                    "attributes": {
                        "NORMAL": "accessor_25",
                        "POSITION": "accessor_23",
                        "TEXCOORD_0": "accessor_27"
                    },
                    "indices": "accessor_21",
                    "material": "_1_-_Default",
                    "mode": 4
                }
            ]
        },
        "geom-gear": {
            "name": "gear",
            "primitives": [
                {
                    "attributes": {
                        "NORMAL": "accessor_52",
                        "POSITION": "accessor_50",
                        "TEXCOORD_0": "accessor_54"
                    },
                    "indices": "accessor_48",
                    "material": "_1_-_Default",
                    "mode": 4
                }
            ]
        }
    },
    "nodes": {
        "node-A3509": {
            "children": [
                "node_2"
            ],
            "name": "A3509"
        },
        "node-gear": {
            "children": [
                "node_4"
            ],
            "name": "gear"
        },
        "node_0": {
            "children": [],
            "name": "EnvironmentAmbientLight"
        },
        "node_2": {
            "children": [],
            "matrix": [
                1,
                0,
                0,
                0,
                0,
                1,
                0,
                0,
                0,
                0,
                1,
                0,
                0,
                -0.809755,
                1.25275,
                1
            ],
            "meshes": [
                "geom-A3509"
            ],
            "name": ""
        },
        "node_4": {
            "children": [],
            "matrix": [
                0.997397,
                0.0721006,
                -1.05589e-007,
                0,
                -0.0720713,
                0.996992,
                -0.0285215,
                0,
                -0.00205631,
                0.0284473,
                0.999593,
                0,
                -5.22274,
                -0.927657,
                -0.286545,
                1
            ],
            "meshes": [
                "geom-gear"
            ],
            "name": ""
        },
        "node_5": {
            "children": [
                "node_0",
                "node-A3509",
                "node-gear"
            ],
            "matrix": [
                1,
                0,
                0,
                0,
                0,
                0,
                -1,
                0,
                0,
                1,
                0,
                0,
                0,
                0,
                0,
                1
            ],
            "name": "Y_UP_Transform"
        }
    },
    "programs": {
        "program_0": {
            "attributes": [
                "a_normal",
                "a_position",
                "a_texcoord0"
            ],
            "fragmentShader": "\\PROJECTS\\GeoFS\\tools\\collada2gltf\\convert\\gltf\\multiplayer0FS",
            "vertexShader": "\\PROJECTS\\GeoFS\\tools\\collada2gltf\\convert\\gltf\\multiplayer0VS"
        }
    },
    "samplers": {
        "sampler_0": {
            "magFilter": 9729,
            "minFilter": 9729,
            "wrapS": 10497,
            "wrapT": 10497
        }
    },
    "scene": "defaultScene",
    "scenes": {
        "defaultScene": {
            "nodes": [
                "node_5"
            ]
        }
    },
    "shaders": {
        "\\PROJECTS\\GeoFS\\tools\\collada2gltf\\convert\\gltf\\multiplayer0FS": {
            "type": 35632,
            "uri": "../../../../shaders/multiplayerFS.glsl"
        },
        "\\PROJECTS\\GeoFS\\tools\\collada2gltf\\convert\\gltf\\multiplayer0VS": {
            "type": 35633,
            "uri": "../../../../shaders/baseVS.glsl"
        }
    },
    "skins": {},
    "techniques": {
        "technique0": {
            "attributes": {
                "a_normal": "normal",
                "a_position": "position",
                "a_texcoord0": "texcoord0"
            },
            "parameters": {
                "ambient": {
                    "type": 35678
                },
                "diffuse": {
                    "type": 35678
                },
                "emission": {
                    "type": 35666
                },
                "modelViewMatrix": {
                    "semantic": "MODELVIEW",
                    "type": 35676
                },
                "normal": {
                    "semantic": "NORMAL",
                    "type": 35665
                },
                "normalMatrix": {
                    "semantic": "MODELVIEWINVERSETRANSPOSE",
                    "type": 35675
                },
                "position": {
                    "semantic": "POSITION",
                    "type": 35665
                },
                "projectionMatrix": {
                    "semantic": "PROJECTION",
                    "type": 35676
                },
                "shininess": {
                    "type": 5126
                },
                "texcoord0": {
                    "semantic": "TEXCOORD_0",
                    "type": 35664
                }
            },
            "program": "program_0",
            "states": {
                "enable": [
                    2929,
                    2884
                ]
            },
            "uniforms": {
                "u_ambient": "ambient",
                "u_diffuse": "diffuse",
                "u_emission": "emission",
                "u_modelViewMatrix": "modelViewMatrix",
                "u_normalMatrix": "normalMatrix",
                "u_projectionMatrix": "projectionMatrix",
                "u_shininess": "shininess"
            }
        }
    },
    "textures": {
        "texture_texture-low_0_jpg": {
            "format": 6408,
            "internalFormat": 6408,
            "sampler": "sampler_0",
            "source": "texture-low_0_jpg",
            "target": 3553,
            "type": 5121
        }
    }
}