{
    "accessors": {
        "accessor_21": {
            "bufferView": "bufferView_29",
            "byteOffset": 0,
            "byteStride": 2,
            "componentType": 5123,
            "count": 1407,
            "max": [
                316
            ],
            "min": [
                0
            ],
            "type": "SCALAR"
        },
        "accessor_23": {
            "bufferView": "bufferView_30",
            "byteOffset": 0,
            "byteStride": 12,
            "componentType": 5126,
            "count": 436,
            "max": [
                32.4235,
                32.2407,
                11.4553
            ],
            "min": [
                -31.1296,
                -33.9776,
                -4.80922
            ],
            "type": "VEC3"
        },
        "accessor_25": {
            "bufferView": "bufferView_30",
            "byteOffset": 5232,
            "byteStride": 12,
            "componentType": 5126,
            "count": 436,
            "max": [
                0.999999,
                0.99807,
                0.999985
            ],
            "min": [
                -0.999999,
                -0.99472,
                -0.999187
            ],
            "type": "VEC3"
        }
    },
    "animations": {},
    "asset": {
        "generator": "collada2gltf@6779c094d694e951beeb1012d03d4faa1edb0ddf",
        "premultipliedAlpha": true,
        "profile": {
            "api": "WebGL",
            "version": "1.0.2"
        },
        "version": "1.0.1"
    },
    "bufferViews": {
        "bufferView_29": {
            "buffer": "\\PROJECTS\\GeoFS\\tools\\collada2gltf\\convert\\gltf\\multiplayer-low",
            "byteLength": 2816,
            "byteOffset": 0,
            "target": 34963
        },
        "bufferView_30": {
            "buffer": "\\PROJECTS\\GeoFS\\tools\\collada2gltf\\convert\\gltf\\multiplayer-low",
            "byteLength": 10464,
            "byteOffset": 2816,
            "target": 34962
        }
    },
    "buffers": {
        "\\PROJECTS\\GeoFS\\tools\\collada2gltf\\convert\\gltf\\multiplayer-low": {
            "byteLength": 13280,
            "type": "arraybuffer",
            "uri": "data:application/octet-stream;base64,"
        }
    },
    "materials": {
        "_1_-_Default": {
            "name": "_1_-_Default",
            "technique": "technique0",
            "values": {
                "ambient": [
                    0.803922,
                    0.803922,
                    0.803922,
                    1
                ],
                "diffuse": [
                    0.803922,
                    0.803922,
                    0.803922,
                    1
                ],
                "emission": [
                    0,
                    0,
                    0,
                    1
                ],
                "shininess": 54
            }
        }
    },
    "meshes": {
        "geom-A350": {
            "name": "A350",
            "primitives": [
                {
                    "attributes": {
                        "NORMAL": "accessor_25",
                        "POSITION": "accessor_23"
                    },
                    "indices": "accessor_21",
                    "material": "_1_-_Default",
                    "mode": 4
                }
            ]
        }
    },
    "nodes": {
        "node-A350": {
            "children": [
                "node_2"
            ],
            "name": "A350"
        },
        "node_0": {
            "children": [],
            "name": "EnvironmentAmbientLight"
        },
        "node_2": {
            "children": [],
            "matrix": [
                1,
                0,
                0,
                0,
                0,
                1,
                0,
                0,
                0,
                0,
                1,
                0,
                0,
                -0.809755,
                1.25275,
                1
            ],
            "meshes": [
                "geom-A350"
            ],
            "name": ""
        },
        "node_3": {
            "children": [
                "node_0",
                "node-A350"
            ],
            "matrix": [
                1,
                0,
                0,
                0,
                0,
                0,
                -1,
                0,
                0,
                1,
                0,
                0,
                0,
                0,
                0,
                1
            ],
            "name": "Y_UP_Transform"
        }
    },
    "programs": {
        "program_0": {
            "attributes": [
                "a_normal",
                "a_position"
            ],
            "fragmentShader": "\\PROJECTS\\GeoFS\\tools\\collada2gltf\\convert\\gltf\\multiplayer-low0FS",
            "vertexShader": "\\PROJECTS\\GeoFS\\tools\\collada2gltf\\convert\\gltf\\multiplayer-low0VS"
        }
    },
    "scene": "defaultScene",
    "scenes": {
        "defaultScene": {
            "nodes": [
                "node_3"
            ]
        }
    },
    "shaders": {
        "\\PROJECTS\\GeoFS\\tools\\collada2gltf\\convert\\gltf\\multiplayer-low0FS": {
            "type": 35632,
            "uri": "data:text/plain;base64,"
        },
        "\\PROJECTS\\GeoFS\\tools\\collada2gltf\\convert\\gltf\\multiplayer-low0VS": {
            "type": 35633,
            "uri": "data:text/plain;base64,"
        }
    },
    "skins": {},
    "techniques": {
        "technique0": {
            "attributes": {
                "a_normal": "normal",
                "a_position": "position"
            },
            "parameters": {
                "ambient": {
                    "type": 35666
                },
                "diffuse": {
                    "type": 35666
                },
                "emission": {
                    "type": 35666
                },
                "modelViewMatrix": {
                    "semantic": "MODELVIEW",
                    "type": 35676
                },
                "normal": {
                    "semantic": "NORMAL",
                    "type": 35665
                },
                "normalMatrix": {
                    "semantic": "MODELVIEWINVERSETRANSPOSE",
                    "type": 35675
                },
                "position": {
                    "semantic": "POSITION",
                    "type": 35665
                },
                "projectionMatrix": {
                    "semantic": "PROJECTION",
                    "type": 35676
                },
                "shininess": {
                    "type": 5126
                }
            },
            "program": "program_0",
            "states": {
                "enable": [
                    2929,
                    2884
                ]
            },
            "uniforms": {
                "u_ambient": "ambient",
                "u_diffuse": "diffuse",
                "u_emission": "emission",
                "u_modelViewMatrix": "modelViewMatrix",
                "u_normalMatrix": "normalMatrix",
                "u_projectionMatrix": "projectionMatrix",
                "u_shininess": "shininess"
            }
        }
    }
}