{
    "accessors": {
        "accessor_28": {
            "bufferView": "bufferView_57",
            "byteOffset": 60,
            "byteStride": 2,
            "componentType": 5123,
            "count": 1296,
            "max": [
                258
            ],
            "min": [
                0
            ],
            "type": "SCALAR"
        },
        "accessor_31": {
            "bufferView": "bufferView_57",
            "byteOffset": 2652,
            "byteStride": 2,
            "componentType": 5123,
            "count": 234,
            "max": [
                437
            ],
            "min": [
                0
            ],
            "type": "SCALAR"
        },
        "accessor_33": {
            "bufferView": "bufferView_58",
            "byteOffset": 288,
            "byteStride": 12,
            "componentType": 5126,
            "count": 445,
            "max": [
                12.0191,
                16.6108,
                30.2692
            ],
            "min": [
                -13.5239,
                -84.6986,
                -3.93473
            ],
            "type": "VEC3"
        },
        "accessor_35": {
            "bufferView": "bufferView_58",
            "byteOffset": 5628,
            "byteStride": 12,
            "componentType": 5126,
            "count": 445,
            "max": [
                0.99994,
                1,
                1
            ],
            "min": [
                -0.999956,
                -1,
                -0.999992
            ],
            "type": "VEC3"
        },
        "accessor_51": {
            "bufferView": "bufferView_57",
            "byteOffset": 0,
            "byteStride": 2,
            "componentType": 5123,
            "count": 30,
            "max": [
                6
            ],
            "min": [
                0
            ],
            "type": "SCALAR"
        },
        "accessor_53": {
            "bufferView": "bufferView_58",
            "byteOffset": 0,
            "byteStride": 12,
            "componentType": 5126,
            "count": 12,
            "max": [
                5.04028,
                5.04028,
                0
            ],
            "min": [
                -5.04028,
                -5.04028,
                0
            ],
            "type": "VEC3"
        },
        "accessor_55": {
            "bufferView": "bufferView_58",
            "byteOffset": 144,
            "byteStride": 12,
            "componentType": 5126,
            "count": 12,
            "max": [
                0,
                0,
                1
            ],
            "min": [
                0,
                0,
                1
            ],
            "type": "VEC3"
        }
    },
    "animations": {},
    "asset": {
        "generator": "collada2gltf@6779c094d694e951beeb1012d03d4faa1edb0ddf",
        "premultipliedAlpha": true,
        "profile": {
            "api": "WebGL",
            "version": "1.0.2"
        },
        "version": "1.0.1"
    },
    "bufferViews": {
        "bufferView_57": {
            "buffer": "multiplayer-low",
            "byteLength": 3120,
            "byteOffset": 0,
            "target": 34963
        },
        "bufferView_58": {
            "buffer": "multiplayer-low",
            "byteLength": 10968,
            "byteOffset": 3120,
            "target": 34962
        }
    },
    "buffers": {
        "multiplayer-low": {
            "byteLength": 14088,
            "type": "arraybuffer",
            "uri": "data:application/octet-stream;base64,"
        }
    },
    "materials": {
        "Standard_13_1": {
            "name": "Standard_13",
            "technique": "technique0",
            "values": {
                "ambient": [
                    0.815686,
                    0.498039,
                    0,
                    1
                ],
                "diffuse": [
                    0.815686,
                    0.498039,
                    0,
                    1
                ],
                "emission": [
                    0,
                    0,
                    0,
                    1
                ],
                "shininess": 10,
                "specular": [
                    0,
                    0,
                    0,
                    1
                ]
            }
        },
        "Standard_8": {
            "name": "Standard_8",
            "technique": "technique1",
            "values": {
                "ambient": [
                    0.466667,
                    0.466667,
                    0.466667,
                    1
                ],
                "diffuse": [
                    0.466667,
                    0.466667,
                    0.466667,
                    1
                ],
                "emission": [
                    0,
                    0,
                    0,
                    1
                ],
                "shininess": 10,
                "specular": [
                    0,
                    0,
                    0,
                    1
                ],
                "transparency": 0.1
            }
        },
        "Standard_9": {
            "name": "Standard_9",
            "technique": "technique0",
            "values": {
                "ambient": [
                    0,
                    0.00392157,
                    0.0117647,
                    1
                ],
                "diffuse": [
                    0,
                    0.00392157,
                    0.0117647,
                    1
                ],
                "emission": [
                    0,
                    0,
                    0,
                    1
                ],
                "shininess": 10,
                "specular": [
                    0,
                    0,
                    0,
                    1
                ]
            }
        }
    },
    "meshes": {
        "geom-Circle001": {
            "name": "Circle001",
            "primitives": [
                {
                    "attributes": {
                        "NORMAL": "accessor_55",
                        "POSITION": "accessor_53"
                    },
                    "indices": "accessor_51",
                    "material": "Standard_8",
                    "mode": 4
                }
            ]
        },
        "geom-interior_walls": {
            "name": "interior_walls",
            "primitives": [
                {
                    "attributes": {
                        "NORMAL": "accessor_35",
                        "POSITION": "accessor_33"
                    },
                    "indices": "accessor_28",
                    "material": "Standard_9",
                    "mode": 4
                },
                {
                    "attributes": {
                        "NORMAL": "accessor_35",
                        "POSITION": "accessor_33"
                    },
                    "indices": "accessor_31",
                    "material": "Standard_13_1",
                    "mode": 4
                }
            ]
        }
    },
    "nodes": {
        "node-Circle001": {
            "children": [],
            "matrix": [
                1,
                0,
                0,
                0,
                0,
                0.996195,
                -0.0871557,
                0,
                0,
                0.0871557,
                0.996195,
                0,
                0.018316,
                -0.0145701,
                1.79681,
                1
            ],
            "meshes": [
                "geom-Circle001"
            ],
            "name": "Circle001"
        },
        "node-Particle_View_01": {
            "children": [],
            "name": "Particle_View_01"
        },
        "node-interior_walls": {
            "children": [
                "node_3"
            ],
            "matrix": [
                1,
                0,
                -1.59186e-007,
                0,
                3.2577e-014,
                1,
                2.04648e-007,
                0,
                1.59186e-007,
                -2.04648e-007,
                1,
                0,
                0.102696,
                1.48335,
                -0.499387,
                1
            ],
            "name": "interior_walls"
        },
        "node_0": {
            "children": [],
            "name": "EnvironmentAmbientLight"
        },
        "node_3": {
            "children": [],
            "matrix": [
                0.100861,
                0,
                0,
                0,
                0,
                0.100861,
                0,
                0,
                0,
                0,
                0.100861,
                0,
                0,
                0,
                0,
                1
            ],
            "meshes": [
                "geom-interior_walls"
            ],
            "name": ""
        },
        "node_5": {
            "children": [
                "node_0",
                "node-Particle_View_01",
                "node-interior_walls",
                "node-Circle001"
            ],
            "matrix": [
                1,
                0,
                0,
                0,
                0,
                0,
                -1,
                0,
                0,
                1,
                0,
                0,
                0,
                0,
                0,
                1
            ],
            "name": "Y_UP_Transform"
        }
    },
    "programs": {
        "program_0": {
            "attributes": [
                "a_normal",
                "a_position"
            ],
            "fragmentShader": "multiplayer-low0FS",
            "vertexShader": "multiplayer-low0VS"
        },
        "program_1": {
            "attributes": [
                "a_normal",
                "a_position"
            ],
            "fragmentShader": "multiplayer-low1FS",
            "vertexShader": "multiplayer-low1VS"
        }
    },
    "scene": "defaultScene",
    "scenes": {
        "defaultScene": {
            "nodes": [
                "node_5"
            ]
        }
    },
    "shaders": {
        "multiplayer-low0FS": {
            "type": 35632,
            "uri": "data:text/plain;base64,"
        },
        "multiplayer-low0VS": {
            "type": 35633,
            "uri": "data:text/plain;base64,"
        },
        "multiplayer-low1FS": {
            "type": 35632,
            "uri": "data:text/plain;base64,"
        },
        "multiplayer-low1VS": {
            "type": 35633,
            "uri": "data:text/plain;base64,"
        }
    },
    "skins": {},
    "techniques": {
        "technique0": {
            "attributes": {
                "a_normal": "normal",
                "a_position": "position"
            },
            "parameters": {
                "ambient": {
                    "type": 35666
                },
                "diffuse": {
                    "type": 35666
                },
                "emission": {
                    "type": 35666
                },
                "modelViewMatrix": {
                    "semantic": "MODELVIEW",
                    "type": 35676
                },
                "normal": {
                    "semantic": "NORMAL",
                    "type": 35665
                },
                "normalMatrix": {
                    "semantic": "MODELVIEWINVERSETRANSPOSE",
                    "type": 35675
                },
                "position": {
                    "semantic": "POSITION",
                    "type": 35665
                },
                "projectionMatrix": {
                    "semantic": "PROJECTION",
                    "type": 35676
                },
                "shininess": {
                    "type": 5126
                },
                "specular": {
                    "type": 35666
                }
            },
            "program": "program_0",
            "states": {
                "enable": [
                    2929,
                    2884
                ]
            },
            "uniforms": {
                "u_ambient": "ambient",
                "u_diffuse": "diffuse",
                "u_emission": "emission",
                "u_modelViewMatrix": "modelViewMatrix",
                "u_normalMatrix": "normalMatrix",
                "u_projectionMatrix": "projectionMatrix",
                "u_shininess": "shininess",
                "u_specular": "specular"
            }
        },
        "technique1": {
            "attributes": {
                "a_normal": "normal",
                "a_position": "position"
            },
            "parameters": {
                "ambient": {
                    "type": 35666
                },
                "diffuse": {
                    "type": 35666
                },
                "emission": {
                    "type": 35666
                },
                "modelViewMatrix": {
                    "semantic": "MODELVIEW",
                    "type": 35676
                },
                "normal": {
                    "semantic": "NORMAL",
                    "type": 35665
                },
                "normalMatrix": {
                    "semantic": "MODELVIEWINVERSETRANSPOSE",
                    "type": 35675
                },
                "position": {
                    "semantic": "POSITION",
                    "type": 35665
                },
                "projectionMatrix": {
                    "semantic": "PROJECTION",
                    "type": 35676
                },
                "shininess": {
                    "type": 5126
                },
                "specular": {
                    "type": 35666
                },
                "transparency": {
                    "type": 5126
                }
            },
            "program": "program_1",
            "states": {
                "enable": [
                    2929,
                    3042
                ],
                "functions": {
                    "blendEquationSeparate": [
                        32774,
                        32774
                    ],
                    "blendFuncSeparate": [
                        1,
                        771,
                        1,
                        771
                    ],
                    "depthMask": [
                        false
                    ]
                }
            },
            "uniforms": {
                "u_ambient": "ambient",
                "u_diffuse": "diffuse",
                "u_emission": "emission",
                "u_modelViewMatrix": "modelViewMatrix",
                "u_normalMatrix": "normalMatrix",
                "u_projectionMatrix": "projectionMatrix",
                "u_shininess": "shininess",
                "u_specular": "specular",
                "u_transparency": "transparency"
            }
        }
    }
}