{
    "accessors": {
        "accessor_53": {
            "bufferView": "bufferView_69",
            "byteOffset": 0,
            "byteStride": 2,
            "componentType": 5123,
            "count": 426,
            "max": [
                112
            ],
            "min": [
                0
            ],
            "type": "SCALAR"
        },
        "accessor_56": {
            "bufferView": "bufferView_69",
            "byteOffset": 852,
            "byteStride": 2,
            "componentType": 5123,
            "count": 144,
            "max": [
                215
            ],
            "min": [
                0
            ],
            "type": "SCALAR"
        },
        "accessor_59": {
            "bufferView": "bufferView_69",
            "byteOffset": 1140,
            "byteStride": 2,
            "componentType": 5123,
            "count": 108,
            "max": [
                242
            ],
            "min": [
                0
            ],
            "type": "SCALAR"
        },
        "accessor_62": {
            "bufferView": "bufferView_69",
            "byteOffset": 1356,
            "byteStride": 2,
            "componentType": 5123,
            "count": 51,
            "max": [
                259
            ],
            "min": [
                0
            ],
            "type": "SCALAR"
        },
        "accessor_64": {
            "bufferView": "bufferView_70",
            "byteOffset": 0,
            "byteStride": 12,
            "componentType": 5126,
            "count": 266,
            "max": [
                5.104,
                8.436,
                3.584
            ],
            "min": [
                -5.104,
                -6.844,
                -0.79
            ],
            "type": "VEC3"
        },
        "accessor_66": {
            "bufferView": "bufferView_70",
            "byteOffset": 3192,
            "byteStride": 12,
            "componentType": 5126,
            "count": 266,
            "max": [
                0.99986,
                0.940942,
                0.99985
            ],
            "min": [
                -0.999549,
                -0.966265,
                -0.999955
            ],
            "type": "VEC3"
        }
    },
    "animations": {},
    "asset": {
        "generator": "collada2gltf@6779c094d694e951beeb1012d03d4faa1edb0ddf",
        "premultipliedAlpha": true,
        "profile": {
            "api": "WebGL",
            "version": "1.0.2"
        },
        "version": "1.0.1"
    },
    "bufferViews": {
        "bufferView_69": {
            "buffer": "multiplayer-low",
            "byteLength": 1460,
            "byteOffset": 0,
            "target": 34963
        },
        "bufferView_70": {
            "buffer": "multiplayer-low",
            "byteLength": 6384,
            "byteOffset": 1460,
            "target": 34962
        }
    },
    "buffers": {
        "multiplayer-low": {
            "byteLength": 7844,
            "type": "arraybuffer",
            "uri": "data:application/octet-stream;base64,"
        }
    },
    "materials": {
        "_3_-_Default": {
            "name": "_3_-_Default",
            "technique": "technique0",
            "values": {
                "ambient": [
                    0.835294,
                    0.835294,
                    0.835294,
                    1
                ],
                "diffuse": [
                    0.835294,
                    0.835294,
                    0.835294,
                    1
                ],
                "emission": [
                    0,
                    0,
                    0,
                    1
                ],
                "shininess": 10,
                "specular": [
                    0,
                    0,
                    0,
                    1
                ]
            }
        },
        "_4_-_Default": {
            "name": "_4_-_Default",
            "technique": "technique0",
            "values": {
                "ambient": [
                    0,
                    0.129412,
                    0.231373,
                    1
                ],
                "diffuse": [
                    0,
                    0.129412,
                    0.231373,
                    1
                ],
                "emission": [
                    0,
                    0,
                    0,
                    1
                ],
                "shininess": 10,
                "specular": [
                    0,
                    0,
                    0,
                    1
                ]
            }
        },
        "_5_-_Default": {
            "name": "_5_-_Default",
            "technique": "technique0",
            "values": {
                "ambient": [
                    0.72549,
                    0,
                    0,
                    1
                ],
                "diffuse": [
                    0.72549,
                    0,
                    0,
                    1
                ],
                "emission": [
                    0,
                    0,
                    0,
                    1
                ],
                "shininess": 10,
                "specular": [
                    0,
                    0,
                    0,
                    1
                ]
            }
        },
        "_9_-_Default": {
            "name": "_9_-_Default",
            "technique": "technique0",
            "values": {
                "ambient": [
                    0,
                    0,
                    0,
                    1
                ],
                "diffuse": [
                    0,
                    0,
                    0,
                    1
                ],
                "emission": [
                    0,
                    0,
                    0,
                    1
                ],
                "shininess": 10,
                "specular": [
                    0,
                    0,
                    0,
                    1
                ]
            }
        }
    },
    "meshes": {
        "geom-body": {
            "name": "body",
            "primitives": [
                {
                    "attributes": {
                        "NORMAL": "accessor_66",
                        "POSITION": "accessor_64"
                    },
                    "indices": "accessor_53",
                    "material": "_3_-_Default",
                    "mode": 4
                },
                {
                    "attributes": {
                        "NORMAL": "accessor_66",
                        "POSITION": "accessor_64"
                    },
                    "indices": "accessor_56",
                    "material": "_4_-_Default",
                    "mode": 4
                },
                {
                    "attributes": {
                        "NORMAL": "accessor_66",
                        "POSITION": "accessor_64"
                    },
                    "indices": "accessor_59",
                    "material": "_9_-_Default",
                    "mode": 4
                },
                {
                    "attributes": {
                        "NORMAL": "accessor_66",
                        "POSITION": "accessor_64"
                    },
                    "indices": "accessor_62",
                    "material": "_5_-_Default",
                    "mode": 4
                }
            ]
        }
    },
    "nodes": {
        "node-BJ_LOD_100": {
            "children": [],
            "name": "BJ_LOD_100"
        },
        "node-Object010": {
            "children": [],
            "name": "Object010"
        },
        "node-body": {
            "children": [],
            "meshes": [
                "geom-body"
            ],
            "name": "body"
        },
        "node_0": {
            "children": [],
            "name": "EnvironmentAmbientLight"
        },
        "node_4": {
            "children": [
                "node_0",
                "node-BJ_LOD_100",
                "node-body",
                "node-Object010"
            ],
            "matrix": [
                1,
                0,
                0,
                0,
                0,
                0,
                -1,
                0,
                0,
                1,
                0,
                0,
                0,
                0,
                0,
                1
            ],
            "name": "Y_UP_Transform"
        }
    },
    "programs": {
        "program_0": {
            "attributes": [
                "a_normal",
                "a_position"
            ],
            "fragmentShader": "multiplayer-low0FS",
            "vertexShader": "multiplayer-low0VS"
        }
    },
    "scene": "defaultScene",
    "scenes": {
        "defaultScene": {
            "nodes": [
                "node_4"
            ]
        }
    },
    "shaders": {
        "multiplayer-low0FS": {
            "type": 35632,
            "uri": "data:text/plain;base64,"
        },
        "multiplayer-low0VS": {
            "type": 35633,
            "uri": "data:text/plain;base64,"
        }
    },
    "skins": {},
    "techniques": {
        "technique0": {
            "attributes": {
                "a_normal": "normal",
                "a_position": "position"
            },
            "parameters": {
                "ambient": {
                    "type": 35666
                },
                "diffuse": {
                    "type": 35666
                },
                "emission": {
                    "type": 35666
                },
                "modelViewMatrix": {
                    "semantic": "MODELVIEW",
                    "type": 35676
                },
                "normal": {
                    "semantic": "NORMAL",
                    "type": 35665
                },
                "normalMatrix": {
                    "semantic": "MODELVIEWINVERSETRANSPOSE",
                    "type": 35675
                },
                "position": {
                    "semantic": "POSITION",
                    "type": 35665
                },
                "projectionMatrix": {
                    "semantic": "PROJECTION",
                    "type": 35676
                },
                "shininess": {
                    "type": 5126
                },
                "specular": {
                    "type": 35666
                }
            },
            "program": "program_0",
            "states": {
                "enable": [
                    2929,
                    2884
                ]
            },
            "uniforms": {
                "u_ambient": "ambient",
                "u_diffuse": "diffuse",
                "u_emission": "emission",
                "u_modelViewMatrix": "modelViewMatrix",
                "u_normalMatrix": "normalMatrix",
                "u_projectionMatrix": "projectionMatrix",
                "u_shininess": "shininess",
                "u_specular": "specular"
            }
        }
    }
}