{
    "accessors": {
        "accessor_38": {
            "bufferView": "bufferView_77",
            "byteOffset": 0,
            "byteStride": 2,
            "componentType": 5123,
            "count": 11136,
            "max": [
                2781
            ],
            "min": [
                0
            ],
            "type": "SCALAR"
        },
        "accessor_41": {
            "bufferView": "bufferView_77",
            "byteOffset": 22272,
            "byteStride": 2,
            "componentType": 5123,
            "count": 369,
            "max": [
                4310
            ],
            "min": [
                0
            ],
            "type": "SCALAR"
        },
        "accessor_43": {
            "bufferView": "bufferView_78",
            "byteOffset": 0,
            "byteStride": 12,
            "componentType": 5126,
            "count": 4376,
            "max": [
                6.38208,
                13.4235,
                3.80086
            ],
            "min": [
                -6.38208,
                0.247895,
                -0.0643566
            ],
            "type": "VEC3"
        },
        "accessor_45": {
            "bufferView": "bufferView_78",
            "byteOffset": 52512,
            "byteStride": 12,
            "componentType": 5126,
            "count": 4376,
            "max": [
                1,
                1,
                1
            ],
            "min": [
                -1,
                -1,
                -1
            ],
            "type": "VEC3"
        },
        "accessor_47": {
            "bufferView": "bufferView_78",
            "byteOffset": 105024,
            "byteStride": 8,
            "componentType": 5126,
            "count": 4376,
            "max": [
                2.78155,
                1.49535
            ],
            "min": [
                -3.28685,
                -7.34661
            ],
            "type": "VEC2"
        },
        "accessor_69": {
            "bufferView": "bufferView_77",
            "byteOffset": 23010,
            "byteStride": 2,
            "componentType": 5123,
            "count": 3501,
            "max": [
                990
            ],
            "min": [
                0
            ],
            "type": "SCALAR"
        },
        "accessor_71": {
            "bufferView": "bufferView_78",
            "byteOffset": 140032,
            "byteStride": 12,
            "componentType": 5126,
            "count": 1541,
            "max": [
                2.12518,
                11.9456,
                0.634755
            ],
            "min": [
                -2.12518,
                6.68389,
                -0.731224
            ],
            "type": "VEC3"
        },
        "accessor_73": {
            "bufferView": "bufferView_78",
            "byteOffset": 158524,
            "byteStride": 12,
            "componentType": 5126,
            "count": 1541,
            "max": [
                1,
                1,
                1
            ],
            "min": [
                -1,
                -1,
                -1
            ],
            "type": "VEC3"
        },
        "accessor_75": {
            "bufferView": "bufferView_78",
            "byteOffset": 177016,
            "byteStride": 8,
            "componentType": 5126,
            "count": 1541,
            "max": [
                1.001,
                0.499639
            ],
            "min": [
                0.755304,
                0.286268
            ],
            "type": "VEC2"
        }
    },
    "animations": {},
    "asset": {
        "generator": "collada2gltf@6779c094d694e951beeb1012d03d4faa1edb0ddf",
        "premultipliedAlpha": true,
        "profile": {
            "api": "WebGL",
            "version": "1.0.2"
        },
        "version": "1.0.1"
    },
    "bufferViews": {
        "bufferView_77": {
            "buffer": "multiplayer",
            "byteLength": 30012,
            "byteOffset": 0,
            "target": 34963
        },
        "bufferView_78": {
            "buffer": "multiplayer",
            "byteLength": 189344,
            "byteOffset": 30012,
            "target": 34962
        }
    },
    "buffers": {
        "multiplayer": {
            "byteLength": 219356,
            "type": "arraybuffer",
            "uri": "data:application/octet-stream;base64,"
        }
    },
    "images": {
        "texture-low_jpg": {
            "name": "texture-low_jpg",
            "uri": "texture-low.jpg"
        }
    },
    "materials": {
        "Glass": {
            "name": "Glass",
            "technique": "technique0",
            "values": {
                "ambient": [
                    0.105882,
                    0.188235,
                    0.247059,
                    1
                ],
                "diffuse": [
                    0.105882,
                    0.188235,
                    0.247059,
                    1
                ],
                "emission": [
                    0,
                    0,
                    0,
                    1
                ],
                "shininess": 24,
                "specular": [
                    0.675,
                    0.675,
                    0.675,
                    1
                ],
                "transparency": 0.3
            }
        },
        "_3_-_Default": {
            "name": "_3_-_Default",
            "technique": "technique1",
            "values": {
                "ambient": "texture_texture-low_jpg",
                "diffuse": "texture_texture-low_jpg",
                "emission": [
                    0,
                    0,
                    0,
                    1
                ],
                "shininess": 10,
                "specular": [
                    0,
                    0,
                    0,
                    1
                ]
            }
        }
    },
    "meshes": {
        "geom-Fuselage": {
            "name": "Fuselage",
            "primitives": [
                {
                    "attributes": {
                        "NORMAL": "accessor_45",
                        "POSITION": "accessor_43",
                        "TEXCOORD_0": "accessor_47"
                    },
                    "indices": "accessor_38",
                    "material": "_3_-_Default",
                    "mode": 4
                },
                {
                    "attributes": {
                        "NORMAL": "accessor_45",
                        "POSITION": "accessor_43"
                    },
                    "indices": "accessor_41",
                    "material": "Glass",
                    "mode": 4
                }
            ]
        },
        "geom-gear": {
            "name": "gear",
            "primitives": [
                {
                    "attributes": {
                        "NORMAL": "accessor_73",
                        "POSITION": "accessor_71",
                        "TEXCOORD_0": "accessor_75"
                    },
                    "indices": "accessor_69",
                    "material": "_3_-_Default",
                    "mode": 4
                }
            ]
        }
    },
    "nodes": {
        "node-Fuselage": {
            "children": [
                "node_2"
            ],
            "matrix": [
                1,
                0,
                0,
                0,
                0,
                1,
                0,
                0,
                0,
                0,
                1,
                0,
                3.21491e-007,
                0.51836,
                -0.0111449,
                1
            ],
            "name": "Fuselage"
        },
        "node-Object18": {
            "children": [
                "node_4"
            ],
            "matrix": [
                -0.998711,
                2.21898e-009,
                -0.0507643,
                0,
                -2.21898e-009,
                1,
                8.73664e-008,
                0,
                0.0507643,
                8.73664e-008,
                -0.998711,
                0,
                -0.773901,
                3.29157,
                0.498944,
                1
            ],
            "name": "Object18"
        },
        "node-gear": {
            "children": [
                "node_6"
            ],
            "matrix": [
                1,
                0,
                0,
                0,
                0,
                0.997507,
                0.0705624,
                0,
                0,
                -0.0705624,
                0.997507,
                0,
                -0.0181355,
                4.92041,
                -0.132435,
                1
            ],
            "name": "gear"
        },
        "node_0": {
            "children": [],
            "name": "EnvironmentAmbientLight"
        },
        "node_2": {
            "children": [],
            "matrix": [
                1,
                0,
                0,
                0,
                0,
                1,
                0,
                0,
                0,
                0,
                1,
                0,
                -3.21491e-007,
                -7.35485,
                -0.57121,
                1
            ],
            "meshes": [
                "geom-Fuselage"
            ],
            "name": ""
        },
        "node_4": {
            "children": [],
            "matrix": [
                -0.658322,
                0,
                0.752737,
                0,
                0,
                1,
                0,
                0,
                -0.752737,
                0,
                -0.658322,
                0,
                0.316688,
                -9.55997,
                -0.0523287,
                1
            ],
            "name": ""
        },
        "node_6": {
            "children": [],
            "matrix": [
                1,
                0,
                0,
                0,
                0,
                1,
                0,
                0,
                0,
                0,
                1,
                0,
                0.0181355,
                -11.7569,
                -0.487998,
                1
            ],
            "meshes": [
                "geom-gear"
            ],
            "name": ""
        },
        "node_7": {
            "children": [
                "node_0",
                "node-Fuselage",
                "node-Object18",
                "node-gear"
            ],
            "matrix": [
                1,
                0,
                0,
                0,
                0,
                0,
                -1,
                0,
                0,
                1,
                0,
                0,
                0,
                0,
                0,
                1
            ],
            "name": "Y_UP_Transform"
        }
    },
    "programs": {
        "program_0": {
            "attributes": [
                "a_normal",
                "a_position"
            ],
            "fragmentShader": "multiplayer0FS",
            "vertexShader": "multiplayer0VS"
        },
        "program_1": {
            "attributes": [
                "a_normal",
                "a_position",
                "a_texcoord0"
            ],
            "fragmentShader": "multiplayer1FS",
            "vertexShader": "multiplayer1VS"
        }
    },
    "samplers": {
        "sampler_0": {
            "magFilter": 9729,
            "minFilter": 9729,
            "wrapS": 10497,
            "wrapT": 10497
        }
    },
    "scene": "defaultScene",
    "scenes": {
        "defaultScene": {
            "nodes": [
                "node_7"
            ]
        }
    },
    "shaders": {
        "multiplayer0FS": {
            "type": 35632,
            "uri": "data:text/plain;base64,"
        },
        "multiplayer0VS": {
            "type": 35633,
            "uri": "data:text/plain;base64,"
        },
        "multiplayer1FS": {
            "type": 35632,
            "uri": "../../../../shaders/multiplayerFS.glsl"
        },
        "multiplayer1VS": {
            "type": 35633,
            "uri": "../../../../shaders/baseVS.glsl"
        }
    },
    "skins": {},
    "techniques": {
        "technique0": {
            "attributes": {
                "a_normal": "normal",
                "a_position": "position"
            },
            "parameters": {
                "ambient": {
                    "type": 35666
                },
                "diffuse": {
                    "type": 35666
                },
                "emission": {
                    "type": 35666
                },
                "modelViewMatrix": {
                    "semantic": "MODELVIEW",
                    "type": 35676
                },
                "normal": {
                    "semantic": "NORMAL",
                    "type": 35665
                },
                "normalMatrix": {
                    "semantic": "MODELVIEWINVERSETRANSPOSE",
                    "type": 35675
                },
                "position": {
                    "semantic": "POSITION",
                    "type": 35665
                },
                "projectionMatrix": {
                    "semantic": "PROJECTION",
                    "type": 35676
                },
                "shininess": {
                    "type": 5126
                },
                "specular": {
                    "type": 35666
                },
                "transparency": {
                    "type": 5126
                }
            },
            "program": "program_0",
            "states": {
                "enable": [
                    2929,
                    3042
                ],
                "functions": {
                    "blendEquationSeparate": [
                        32774,
                        32774
                    ],
                    "blendFuncSeparate": [
                        1,
                        771,
                        1,
                        771
                    ],
                    "depthMask": [
                        false
                    ]
                }
            },
            "uniforms": {
                "u_ambient": "ambient",
                "u_diffuse": "diffuse",
                "u_emission": "emission",
                "u_modelViewMatrix": "modelViewMatrix",
                "u_normalMatrix": "normalMatrix",
                "u_projectionMatrix": "projectionMatrix",
                "u_shininess": "shininess",
                "u_specular": "specular",
                "u_transparency": "transparency"
            }
        },
        "technique1": {
            "attributes": {
                "a_normal": "normal",
                "a_position": "position",
                "a_texcoord0": "texcoord0"
            },
            "parameters": {
                "ambient": {
                    "type": 35678
                },
                "diffuse": {
                    "type": 35678
                },
                "emission": {
                    "type": 35666
                },
                "modelViewMatrix": {
                    "semantic": "MODELVIEW",
                    "type": 35676
                },
                "normal": {
                    "semantic": "NORMAL",
                    "type": 35665
                },
                "normalMatrix": {
                    "semantic": "MODELVIEWINVERSETRANSPOSE",
                    "type": 35675
                },
                "position": {
                    "semantic": "POSITION",
                    "type": 35665
                },
                "projectionMatrix": {
                    "semantic": "PROJECTION",
                    "type": 35676
                },
                "shininess": {
                    "type": 5126
                },
                "specular": {
                    "type": 35666
                },
                "texcoord0": {
                    "semantic": "TEXCOORD_0",
                    "type": 35664
                }
            },
            "program": "program_1",
            "states": {
                "enable": [
                    2929,
                    2884
                ]
            },
            "uniforms": {
                "u_ambient": "ambient",
                "u_diffuse": "diffuse",
                "u_emission": "emission",
                "u_modelViewMatrix": "modelViewMatrix",
                "u_normalMatrix": "normalMatrix",
                "u_projectionMatrix": "projectionMatrix",
                "u_shininess": "shininess",
                "u_specular": "specular"
            }
        }
    },
    "textures": {
        "texture_texture-low_jpg": {
            "format": 6408,
            "internalFormat": 6408,
            "sampler": "sampler_0",
            "source": "texture-low_jpg",
            "target": 3553,
            "type": 5121
        }
    }
}