{
    "accessors": {
        "accessor_30": {
            "bufferView": "bufferView_44",
            "byteOffset": 0,
            "byteStride": 2,
            "componentType": 5123,
            "count": 303,
            "max": [
                82
            ],
            "min": [
                0
            ],
            "type": "SCALAR"
        },
        "accessor_33": {
            "bufferView": "bufferView_44",
            "byteOffset": 606,
            "byteStride": 2,
            "componentType": 5123,
            "count": 405,
            "max": [
                221
            ],
            "min": [
                0
            ],
            "type": "SCALAR"
        },
        "accessor_35": {
            "bufferView": "bufferView_45",
            "byteOffset": 0,
            "byteStride": 12,
            "componentType": 5126,
            "count": 259,
            "max": [
                6.32034,
                13.3972,
                3.80086
            ],
            "min": [
                -6.32034,
                0.873786,
                -0.0643566
            ],
            "type": "VEC3"
        },
        "accessor_37": {
            "bufferView": "bufferView_45",
            "byteOffset": 3108,
            "byteStride": 12,
            "componentType": 5126,
            "count": 259,
            "max": [
                1,
                1,
                0.999979
            ],
            "min": [
                -0.999858,
                -0.961389,
                -0.999577
            ],
            "type": "VEC3"
        }
    },
    "animations": {},
    "asset": {
        "generator": "collada2gltf@6779c094d694e951beeb1012d03d4faa1edb0ddf",
        "premultipliedAlpha": true,
        "profile": {
            "api": "WebGL",
            "version": "1.0.2"
        },
        "version": "1.0.1"
    },
    "bufferViews": {
        "bufferView_44": {
            "buffer": "multiplayer-low",
            "byteLength": 1416,
            "byteOffset": 0,
            "target": 34963
        },
        "bufferView_45": {
            "buffer": "multiplayer-low",
            "byteLength": 6216,
            "byteOffset": 1416,
            "target": 34962
        }
    },
    "buffers": {
        "multiplayer-low": {
            "byteLength": 7632,
            "type": "arraybuffer",
            "uri": "data:application/octet-stream;base64,"
        }
    },
    "materials": {
        "_3_-_Default": {
            "name": "_3_-_Default",
            "technique": "technique0",
            "values": {
                "ambient": [
                    0.992157,
                    0.992157,
                    0.992157,
                    1
                ],
                "diffuse": [
                    0.992157,
                    0.992157,
                    0.992157,
                    1
                ],
                "emission": [
                    0,
                    0,
                    0,
                    1
                ],
                "shininess": 10,
                "specular": [
                    0,
                    0,
                    0,
                    1
                ]
            }
        },
        "_4_-_Default": {
            "name": "_4_-_Default",
            "technique": "technique0",
            "values": {
                "ambient": [
                    0,
                    0,
                    0,
                    1
                ],
                "diffuse": [
                    0,
                    0,
                    0,
                    1
                ],
                "emission": [
                    0,
                    0,
                    0,
                    1
                ],
                "shininess": 10,
                "specular": [
                    0,
                    0,
                    0,
                    1
                ]
            }
        }
    },
    "meshes": {
        "geom-Fuselage": {
            "name": "Fuselage",
            "primitives": [
                {
                    "attributes": {
                        "NORMAL": "accessor_37",
                        "POSITION": "accessor_35"
                    },
                    "indices": "accessor_30",
                    "material": "_3_-_Default",
                    "mode": 4
                },
                {
                    "attributes": {
                        "NORMAL": "accessor_37",
                        "POSITION": "accessor_35"
                    },
                    "indices": "accessor_33",
                    "material": "_4_-_Default",
                    "mode": 4
                }
            ]
        }
    },
    "nodes": {
        "node-Fuselage": {
            "children": [
                "node_5"
            ],
            "matrix": [
                1,
                0,
                0,
                0,
                0,
                1,
                0,
                0,
                0,
                0,
                1,
                0,
                3.21491e-007,
                0.51836,
                -0.0111449,
                1
            ],
            "name": "Fuselage"
        },
        "node-L_stoyka": {
            "children": [
                "node_2"
            ],
            "matrix": [
                1,
                0,
                0,
                0,
                0,
                1,
                0,
                0,
                0,
                0,
                1,
                0,
                -1.77978,
                0.0343616,
                -0.344212,
                1
            ],
            "name": "L_stoyka"
        },
        "node-Object18": {
            "children": [
                "node_7"
            ],
            "matrix": [
                -0.998711,
                2.21898e-009,
                -0.0507643,
                0,
                -2.21898e-009,
                1,
                8.73664e-008,
                0,
                0.0507643,
                8.73664e-008,
                -0.998711,
                0,
                -0.773901,
                3.29157,
                0.498944,
                1
            ],
            "name": "Object18"
        },
        "node-R_stoyka": {
            "children": [],
            "matrix": [
                1,
                0,
                0,
                0,
                0,
                -1,
                0,
                0,
                0,
                0,
                -1,
                0,
                1.77978,
                0.0343616,
                -0.344212,
                1
            ],
            "name": "R_stoyka"
        },
        "node-l_aileron": {
            "children": [
                "node_10"
            ],
            "matrix": [
                0.993645,
                -0.0715985,
                -0.0868454,
                0,
                0.0718822,
                0.997413,
                0.000139287,
                0,
                0.0866108,
                -0.00638104,
                0.996222,
                0,
                -5.53314,
                -0.0225336,
                -0.0092643,
                1
            ],
            "name": "l_aileron"
        },
        "node-l_elevator": {
            "children": [
                "node_13"
            ],
            "matrix": [
                0.945297,
                0.326212,
                0,
                0,
                -0.326212,
                0.945297,
                0,
                0,
                0,
                0,
                1,
                0,
                -1.07057,
                -5.82507,
                3.14218,
                1
            ],
            "name": "l_elevator"
        },
        "node-r_aileron": {
            "children": [],
            "matrix": [
                0.99406,
                0.0623326,
                0.08922,
                0,
                0.0621018,
                -0.998056,
                0.00536356,
                0,
                0.0893809,
                0.000209018,
                -0.995997,
                0,
                5.5443,
                -0.053439,
                -0.00905955,
                1
            ],
            "name": "r_aileron"
        },
        "node-r_elevator": {
            "children": [],
            "matrix": [
                0.945297,
                -0.326212,
                0,
                0,
                -0.326212,
                -0.945297,
                0,
                0,
                0,
                0,
                -1,
                0,
                1.07057,
                -5.82507,
                3.14218,
                1
            ],
            "name": "r_elevator"
        },
        "node_0": {
            "children": [],
            "name": "EnvironmentAmbientLight"
        },
        "node_10": {
            "children": [],
            "matrix": [
                0.993645,
                0.0718822,
                0.0866108,
                0,
                -0.0715985,
                0.997413,
                -0.00638104,
                0,
                -0.0868454,
                0.000139285,
                0.996222,
                0,
                0,
                0,
                0,
                1
            ],
            "name": ""
        },
        "node_13": {
            "children": [],
            "matrix": [
                0.945297,
                -0.326212,
                0,
                0,
                0.326212,
                0.945297,
                0,
                0,
                0,
                0,
                1,
                0,
                0.682068,
                -1.30532,
                -3.72453,
                1
            ],
            "name": ""
        },
        "node_14": {
            "children": [
                "node_0",
                "node-L_stoyka",
                "node-R_stoyka",
                "node-Fuselage",
                "node-Object18",
                "node-r_aileron",
                "node-l_aileron",
                "node-r_elevator",
                "node-l_elevator"
            ],
            "matrix": [
                1,
                0,
                0,
                0,
                0,
                0,
                -1,
                0,
                0,
                1,
                0,
                0,
                0,
                0,
                0,
                1
            ],
            "name": "Y_UP_Transform"
        },
        "node_2": {
            "children": [],
            "matrix": [
                1,
                0,
                0,
                0,
                0,
                1,
                0,
                0,
                0,
                0,
                1,
                0,
                -1.10316,
                0.104968,
                0.344212,
                1
            ],
            "name": ""
        },
        "node_5": {
            "children": [],
            "matrix": [
                1,
                0,
                0,
                0,
                0,
                1,
                0,
                0,
                0,
                0,
                1,
                0,
                -3.21491e-007,
                -7.35485,
                -0.57121,
                1
            ],
            "meshes": [
                "geom-Fuselage"
            ],
            "name": ""
        },
        "node_7": {
            "children": [],
            "matrix": [
                -0.658322,
                0,
                0.752737,
                0,
                0,
                1,
                0,
                0,
                -0.752737,
                0,
                -0.658322,
                0,
                0.316688,
                -9.55997,
                -0.0523287,
                1
            ],
            "name": ""
        }
    },
    "programs": {
        "program_0": {
            "attributes": [
                "a_normal",
                "a_position"
            ],
            "fragmentShader": "multiplayer-low0FS",
            "vertexShader": "multiplayer-low0VS"
        }
    },
    "scene": "defaultScene",
    "scenes": {
        "defaultScene": {
            "nodes": [
                "node_14"
            ]
        }
    },
    "shaders": {
        "multiplayer-low0FS": {
            "type": 35632,
            "uri": "data:text/plain;base64,"
        },
        "multiplayer-low0VS": {
            "type": 35633,
            "uri": "data:text/plain;base64,"
        }
    },
    "skins": {},
    "techniques": {
        "technique0": {
            "attributes": {
                "a_normal": "normal",
                "a_position": "position"
            },
            "parameters": {
                "ambient": {
                    "type": 35666
                },
                "diffuse": {
                    "type": 35666
                },
                "emission": {
                    "type": 35666
                },
                "modelViewMatrix": {
                    "semantic": "MODELVIEW",
                    "type": 35676
                },
                "normal": {
                    "semantic": "NORMAL",
                    "type": 35665
                },
                "normalMatrix": {
                    "semantic": "MODELVIEWINVERSETRANSPOSE",
                    "type": 35675
                },
                "position": {
                    "semantic": "POSITION",
                    "type": 35665
                },
                "projectionMatrix": {
                    "semantic": "PROJECTION",
                    "type": 35676
                },
                "shininess": {
                    "type": 5126
                },
                "specular": {
                    "type": 35666
                }
            },
            "program": "program_0",
            "states": {
                "enable": [
                    2929,
                    2884
                ]
            },
            "uniforms": {
                "u_ambient": "ambient",
                "u_diffuse": "diffuse",
                "u_emission": "emission",
                "u_modelViewMatrix": "modelViewMatrix",
                "u_normalMatrix": "normalMatrix",
                "u_projectionMatrix": "projectionMatrix",
                "u_shininess": "shininess",
                "u_specular": "specular"
            }
        }
    }
}