{
    "accessors": {
        "accessor_21": {
            "bufferView": "bufferView_33",
            "byteOffset": 0,
            "byteStride": 2,
            "componentType": 5123,
            "count": 333,
            "max": [
                84
            ],
            "min": [
                0
            ],
            "type": "SCALAR"
        },
        "accessor_23": {
            "bufferView": "bufferView_34",
            "byteOffset": 0,
            "byteStride": 12,
            "componentType": 5126,
            "count": 180,
            "max": [
                4.564,
                5.692,
                2.724
            ],
            "min": [
                -4.56513,
                -5.93974,
                -1.096
            ],
            "type": "VEC3"
        },
        "accessor_25": {
            "bufferView": "bufferView_34",
            "byteOffset": 2160,
            "byteStride": 12,
            "componentType": 5126,
            "count": 180,
            "max": [
                1,
                0.70274,
                0.997661
            ],
            "min": [
                -0.999932,
                -0.784401,
                -0.998936
            ],
            "type": "VEC3"
        }
    },
    "animations": {},
    "asset": {
        "generator": "collada2gltf@6779c094d694e951beeb1012d03d4faa1edb0ddf",
        "premultipliedAlpha": true,
        "profile": {
            "api": "WebGL",
            "version": "1.0.2"
        },
        "version": "1.0.1"
    },
    "bufferViews": {
        "bufferView_33": {
            "buffer": "multiplayer-low",
            "byteLength": 668,
            "byteOffset": 0,
            "target": 34963
        },
        "bufferView_34": {
            "buffer": "multiplayer-low",
            "byteLength": 4320,
            "byteOffset": 668,
            "target": 34962
        }
    },
    "buffers": {
        "multiplayer-low": {
            "byteLength": 4988,
            "type": "arraybuffer",
            "uri": "data:application/octet-stream;base64,"
        }
    },
    "materials": {
        "_4_-_Default": {
            "name": "_4_-_Default",
            "technique": "technique0",
            "values": {
                "ambient": [
                    0,
                    0.0352941,
                    0.156863,
                    1
                ],
                "diffuse": [
                    0,
                    0.0352941,
                    0.156863,
                    1
                ],
                "emission": [
                    0,
                    0,
                    0,
                    1
                ],
                "shininess": 10,
                "specular": [
                    0,
                    0,
                    0,
                    1
                ]
            }
        }
    },
    "meshes": {
        "geom-AI_LOD_100": {
            "name": "AI_LOD_100",
            "primitives": [
                {
                    "attributes": {
                        "NORMAL": "accessor_25",
                        "POSITION": "accessor_23"
                    },
                    "indices": "accessor_21",
                    "material": "_4_-_Default",
                    "mode": 4
                }
            ]
        }
    },
    "nodes": {
        "node-AI_LOD_100": {
            "children": [],
            "meshes": [
                "geom-AI_LOD_100"
            ],
            "name": "AI_LOD_100"
        },
        "node-AP_LOD_100": {
            "children": [],
            "matrix": [
                1,
                0,
                0,
                0,
                0,
                -0.15907,
                -0.987267,
                0,
                0,
                0.987267,
                -0.15907,
                0,
                0,
                5.43776,
                3.25278,
                1
            ],
            "name": "AP_LOD_100"
        },
        "node-AT_LOD_100": {
            "children": [],
            "matrix": [
                1,
                0,
                0,
                0,
                0,
                -0.15907,
                -0.987267,
                0,
                0,
                0.987267,
                -0.15907,
                0,
                0,
                5.43776,
                3.25278,
                1
            ],
            "name": "AT_LOD_100"
        },
        "node-AW_LOD_100": {
            "children": [],
            "matrix": [
                1,
                0,
                0,
                0,
                0,
                -0.15907,
                -0.987267,
                0,
                0,
                0.987267,
                -0.15907,
                0,
                0,
                5.43776,
                3.25278,
                1
            ],
            "name": "AW_LOD_100"
        },
        "node-frontsuspensionpiston": {
            "children": [
                "node_5"
            ],
            "matrix": [
                1,
                0,
                0,
                0,
                0,
                0.999506,
                0.0314427,
                0,
                0,
                -0.0314427,
                0.999506,
                0,
                -6.51002e-008,
                4.07006,
                -1.19444,
                1
            ],
            "name": "frontsuspensionpiston"
        },
        "node_0": {
            "children": [],
            "name": "EnvironmentAmbientLight"
        },
        "node_5": {
            "children": [],
            "matrix": [
                1,
                0,
                0,
                0,
                0,
                -0.190034,
                -0.981777,
                0,
                0,
                0.981777,
                -0.190034,
                0,
                6.51002e-008,
                1.50686,
                4.40202,
                1
            ],
            "name": ""
        },
        "node_7": {
            "children": [
                "node_0",
                "node-AI_LOD_100",
                "node-AP_LOD_100",
                "node-AT_LOD_100",
                "node-frontsuspensionpiston",
                "node-AW_LOD_100"
            ],
            "matrix": [
                1,
                0,
                0,
                0,
                0,
                0,
                -1,
                0,
                0,
                1,
                0,
                0,
                0,
                0,
                0,
                1
            ],
            "name": "Y_UP_Transform"
        }
    },
    "programs": {
        "program_0": {
            "attributes": [
                "a_normal",
                "a_position"
            ],
            "fragmentShader": "multiplayer-low0FS",
            "vertexShader": "multiplayer-low0VS"
        }
    },
    "scene": "defaultScene",
    "scenes": {
        "defaultScene": {
            "nodes": [
                "node_7"
            ]
        }
    },
    "shaders": {
        "multiplayer-low0FS": {
            "type": 35632,
            "uri": "data:text/plain;base64,"
        },
        "multiplayer-low0VS": {
            "type": 35633,
            "uri": "data:text/plain;base64,"
        }
    },
    "skins": {},
    "techniques": {
        "technique0": {
            "attributes": {
                "a_normal": "normal",
                "a_position": "position"
            },
            "parameters": {
                "ambient": {
                    "type": 35666
                },
                "diffuse": {
                    "type": 35666
                },
                "emission": {
                    "type": 35666
                },
                "modelViewMatrix": {
                    "semantic": "MODELVIEW",
                    "type": 35676
                },
                "normal": {
                    "semantic": "NORMAL",
                    "type": 35665
                },
                "normalMatrix": {
                    "semantic": "MODELVIEWINVERSETRANSPOSE",
                    "type": 35675
                },
                "position": {
                    "semantic": "POSITION",
                    "type": 35665
                },
                "projectionMatrix": {
                    "semantic": "PROJECTION",
                    "type": 35676
                },
                "shininess": {
                    "type": 5126
                },
                "specular": {
                    "type": 35666
                }
            },
            "program": "program_0",
            "states": {
                "enable": [
                    2929,
                    2884
                ]
            },
            "uniforms": {
                "u_ambient": "ambient",
                "u_diffuse": "diffuse",
                "u_emission": "emission",
                "u_modelViewMatrix": "modelViewMatrix",
                "u_normalMatrix": "normalMatrix",
                "u_projectionMatrix": "projectionMatrix",
                "u_shininess": "shininess",
                "u_specular": "specular"
            }
        }
    }
}