{
    "accessors": {
        "accessor_101": {
            "bufferView": "bufferView_104",
            "byteOffset": 200576,
            "byteStride": 8,
            "componentType": 5126,
            "count": 1352,
            "max": [
                0.877942,
                0.10646
            ],
            "min": [
                0.806778,
                0.039149
            ],
            "type": "VEC2"
        },
        "accessor_38": {
            "bufferView": "bufferView_103",
            "byteOffset": 0,
            "byteStride": 2,
            "componentType": 5123,
            "count": 12492,
            "max": [
                3500
            ],
            "min": [
                0
            ],
            "type": "SCALAR"
        },
        "accessor_41": {
            "bufferView": "bufferView_103",
            "byteOffset": 24984,
            "byteStride": 2,
            "componentType": 5123,
            "count": 360,
            "max": [
                5243
            ],
            "min": [
                0
            ],
            "type": "SCALAR"
        },
        "accessor_43": {
            "bufferView": "bufferView_104",
            "byteOffset": 0,
            "byteStride": 12,
            "componentType": 5126,
            "count": 5254,
            "max": [
                7.25751,
                10.7449,
                2.45418
            ],
            "min": [
                -7.26865,
                -11.1284,
                -2.71952
            ],
            "type": "VEC3"
        },
        "accessor_45": {
            "bufferView": "bufferView_104",
            "byteOffset": 63048,
            "byteStride": 12,
            "componentType": 5126,
            "count": 5254,
            "max": [
                1,
                1,
                1
            ],
            "min": [
                -1,
                -1,
                -1
            ],
            "type": "VEC3"
        },
        "accessor_47": {
            "bufferView": "bufferView_104",
            "byteOffset": 126096,
            "byteStride": 8,
            "componentType": 5126,
            "count": 5254,
            "max": [
                0.998674,
                0.999416
            ],
            "min": [
                0.00296678,
                0.00198019
            ],
            "type": "VEC2"
        },
        "accessor_68": {
            "bufferView": "bufferView_103",
            "byteOffset": 29928,
            "byteStride": 2,
            "componentType": 5123,
            "count": 4056,
            "max": [
                1012
            ],
            "min": [
                0
            ],
            "type": "SCALAR"
        },
        "accessor_70": {
            "bufferView": "bufferView_104",
            "byteOffset": 211392,
            "byteStride": 12,
            "componentType": 5126,
            "count": 1509,
            "max": [
                2.11135,
                0.294064,
                0.173218
            ],
            "min": [
                -2.14906,
                -6.35208,
                -2.49921
            ],
            "type": "VEC3"
        },
        "accessor_72": {
            "bufferView": "bufferView_104",
            "byteOffset": 229500,
            "byteStride": 12,
            "componentType": 5126,
            "count": 1509,
            "max": [
                1,
                1,
                0.999831
            ],
            "min": [
                -1,
                -0.998934,
                -1
            ],
            "type": "VEC3"
        },
        "accessor_74": {
            "bufferView": "bufferView_104",
            "byteOffset": 247608,
            "byteStride": 8,
            "componentType": 5126,
            "count": 1509,
            "max": [
                0.72405,
                0.79224
            ],
            "min": [
                0.671933,
                0.703956
            ],
            "type": "VEC2"
        },
        "accessor_95": {
            "bufferView": "bufferView_103",
            "byteOffset": 25704,
            "byteStride": 2,
            "componentType": 5123,
            "count": 2112,
            "max": [
                675
            ],
            "min": [
                0
            ],
            "type": "SCALAR"
        },
        "accessor_97": {
            "bufferView": "bufferView_104",
            "byteOffset": 168128,
            "byteStride": 12,
            "componentType": 5126,
            "count": 1352,
            "max": [
                1.70101,
                -8.50708,
                -0.941236
            ],
            "min": [
                -1.70852,
                -9.48137,
                -2.0129
            ],
            "type": "VEC3"
        },
        "accessor_99": {
            "bufferView": "bufferView_104",
            "byteOffset": 184352,
            "byteStride": 12,
            "componentType": 5126,
            "count": 1352,
            "max": [
                0.999691,
                0.991586,
                0.999791
            ],
            "min": [
                -0.999766,
                -0.999996,
                -0.999791
            ],
            "type": "VEC3"
        }
    },
    "animations": {},
    "asset": {
        "generator": "collada2gltf@6779c094d694e951beeb1012d03d4faa1edb0ddf",
        "premultipliedAlpha": true,
        "profile": {
            "api": "WebGL",
            "version": "1.0.2"
        },
        "version": "1.0.1"
    },
    "bufferViews": {
        "bufferView_103": {
            "buffer": "multiplayer",
            "byteLength": 38040,
            "byteOffset": 0,
            "target": 34963
        },
        "bufferView_104": {
            "buffer": "multiplayer",
            "byteLength": 259680,
            "byteOffset": 38040,
            "target": 34962
        }
    },
    "buffers": {
        "multiplayer": {
            "byteLength": 297720,
            "type": "arraybuffer",
            "uri": "data:application/octet-stream;base64,"
        }
    },
    "images": {
        "texture-low_0_jpg": {
            "name": "texture-low_0_jpg",
            "uri": "texture-low_0.jpg"
        }
    },
    "materials": {
        "glass": {
            "name": "glass",
            "technique": "technique0",
            "values": {
                "ambient": [
                    0.113725,
                    0.113725,
                    0.113725,
                    1
                ],
                "diffuse": [
                    0.113725,
                    0.113725,
                    0.113725,
                    1
                ],
                "emission": [
                    0,
                    0,
                    0,
                    1
                ],
                "shininess": 35,
                "transparency": 0.5
            }
        },
        "texture": {
            "name": "texture",
            "technique": "technique1",
            "values": {
                "ambient": "texture_texture-low_0_jpg",
                "diffuse": "texture_texture-low_0_jpg",
                "emission": [
                    0,
                    0,
                    0,
                    1
                ],
                "shininess": 29,
                "specular": [
                    0.504,
                    0.504,
                    0.504,
                    1
                ]
            }
        }
    },
    "meshes": {
        "geom-Fuselage": {
            "name": "Fuselage",
            "primitives": [
                {
                    "attributes": {
                        "NORMAL": "accessor_45",
                        "POSITION": "accessor_43",
                        "TEXCOORD_0": "accessor_47"
                    },
                    "indices": "accessor_38",
                    "material": "texture",
                    "mode": 4
                },
                {
                    "attributes": {
                        "NORMAL": "accessor_45",
                        "POSITION": "accessor_43"
                    },
                    "indices": "accessor_41",
                    "material": "glass",
                    "mode": 4
                }
            ]
        },
        "geom-Object001": {
            "name": "Object001",
            "primitives": [
                {
                    "attributes": {
                        "NORMAL": "accessor_99",
                        "POSITION": "accessor_97",
                        "TEXCOORD_0": "accessor_101"
                    },
                    "indices": "accessor_95",
                    "material": "texture",
                    "mode": 4
                }
            ]
        },
        "geom-gear": {
            "name": "gear",
            "primitives": [
                {
                    "attributes": {
                        "NORMAL": "accessor_72",
                        "POSITION": "accessor_70",
                        "TEXCOORD_0": "accessor_74"
                    },
                    "indices": "accessor_68",
                    "material": "texture",
                    "mode": 4
                }
            ]
        }
    },
    "nodes": {
        "node-Fuselage": {
            "children": [
                "node_2",
                "node-gear"
            ],
            "matrix": [
                1,
                -4.76837e-007,
                4.76837e-007,
                0,
                4.76837e-007,
                1,
                0,
                0,
                -4.76837e-007,
                2.27374e-013,
                1,
                0,
                4.76258e-005,
                0,
                0,
                1
            ],
            "name": "Fuselage"
        },
        "node-Object001": {
            "children": [
                "node_5"
            ],
            "matrix": [
                1,
                -4.76837e-007,
                4.76837e-007,
                0,
                4.76837e-007,
                1,
                0,
                0,
                -4.76837e-007,
                2.27374e-013,
                1,
                0,
                4.76258e-005,
                0,
                0,
                1
            ],
            "name": "Object001"
        },
        "node-gear": {
            "children": [],
            "matrix": [
                1,
                4.76837e-007,
                -4.76837e-007,
                0,
                -4.76837e-007,
                1,
                2.27374e-013,
                0,
                4.76837e-007,
                0,
                1,
                0,
                0.0172631,
                4.82529,
                0.0803693,
                1
            ],
            "meshes": [
                "geom-gear"
            ],
            "name": "gear"
        },
        "node_0": {
            "children": [],
            "name": "EnvironmentAmbientLight"
        },
        "node_2": {
            "children": [],
            "matrix": [
                1,
                0,
                0,
                0,
                0,
                1,
                0,
                0,
                0,
                0,
                1,
                0,
                -1.84836e-007,
                1.85427,
                1.46664,
                1
            ],
            "meshes": [
                "geom-Fuselage"
            ],
            "name": ""
        },
        "node_5": {
            "children": [],
            "matrix": [
                1,
                0,
                0,
                0,
                0,
                1,
                0,
                0,
                0,
                0,
                1,
                0,
                -1.84836e-007,
                1.85427,
                1.46664,
                1
            ],
            "meshes": [
                "geom-Object001"
            ],
            "name": ""
        },
        "node_6": {
            "children": [
                "node_0",
                "node-Fuselage",
                "node-Object001"
            ],
            "matrix": [
                1,
                0,
                0,
                0,
                0,
                0,
                -1,
                0,
                0,
                1,
                0,
                0,
                0,
                0,
                0,
                1
            ],
            "name": "Y_UP_Transform"
        }
    },
    "programs": {
        "program_0": {
            "attributes": [
                "a_normal",
                "a_position"
            ],
            "fragmentShader": "multiplayer0FS",
            "vertexShader": "multiplayer0VS"
        },
        "program_1": {
            "attributes": [
                "a_normal",
                "a_position",
                "a_texcoord0"
            ],
            "fragmentShader": "multiplayer1FS",
            "vertexShader": "multiplayer1VS"
        }
    },
    "samplers": {
        "sampler_0": {
            "magFilter": 9729,
            "minFilter": 9729,
            "wrapS": 10497,
            "wrapT": 10497
        }
    },
    "scene": "defaultScene",
    "scenes": {
        "defaultScene": {
            "nodes": [
                "node_6"
            ]
        }
    },
    "shaders": {
        "multiplayer0FS": {
            "type": 35632,
            "uri": "data:text/plain;base64,"
        },
        "multiplayer0VS": {
            "type": 35633,
            "uri": "data:text/plain;base64,"
        },
        "multiplayer1FS": {
            "type": 35632,
            "uri": "../../../../shaders/multiplayerFS.glsl"
        },
        "multiplayer1VS": {
            "type": 35633,
            "uri": "../../../../shaders/baseVS.glsl"
        }
    },
    "skins": {},
    "techniques": {
        "technique0": {
            "attributes": {
                "a_normal": "normal",
                "a_position": "position"
            },
            "parameters": {
                "ambient": {
                    "type": 35666
                },
                "diffuse": {
                    "type": 35666
                },
                "emission": {
                    "type": 35666
                },
                "modelViewMatrix": {
                    "semantic": "MODELVIEW",
                    "type": 35676
                },
                "normal": {
                    "semantic": "NORMAL",
                    "type": 35665
                },
                "normalMatrix": {
                    "semantic": "MODELVIEWINVERSETRANSPOSE",
                    "type": 35675
                },
                "position": {
                    "semantic": "POSITION",
                    "type": 35665
                },
                "projectionMatrix": {
                    "semantic": "PROJECTION",
                    "type": 35676
                },
                "shininess": {
                    "type": 5126
                },
                "transparency": {
                    "type": 5126
                }
            },
            "program": "program_0",
            "states": {
                "enable": [
                    2929,
                    3042
                ],
                "functions": {
                    "blendEquationSeparate": [
                        32774,
                        32774
                    ],
                    "blendFuncSeparate": [
                        1,
                        771,
                        1,
                        771
                    ],
                    "depthMask": [
                        false
                    ]
                }
            },
            "uniforms": {
                "u_ambient": "ambient",
                "u_diffuse": "diffuse",
                "u_emission": "emission",
                "u_modelViewMatrix": "modelViewMatrix",
                "u_normalMatrix": "normalMatrix",
                "u_projectionMatrix": "projectionMatrix",
                "u_shininess": "shininess",
                "u_transparency": "transparency"
            }
        },
        "technique1": {
            "attributes": {
                "a_normal": "normal",
                "a_position": "position",
                "a_texcoord0": "texcoord0"
            },
            "parameters": {
                "ambient": {
                    "type": 35678
                },
                "diffuse": {
                    "type": 35678
                },
                "emission": {
                    "type": 35666
                },
                "modelViewMatrix": {
                    "semantic": "MODELVIEW",
                    "type": 35676
                },
                "normal": {
                    "semantic": "NORMAL",
                    "type": 35665
                },
                "normalMatrix": {
                    "semantic": "MODELVIEWINVERSETRANSPOSE",
                    "type": 35675
                },
                "position": {
                    "semantic": "POSITION",
                    "type": 35665
                },
                "projectionMatrix": {
                    "semantic": "PROJECTION",
                    "type": 35676
                },
                "shininess": {
                    "type": 5126
                },
                "specular": {
                    "type": 35666
                },
                "texcoord0": {
                    "semantic": "TEXCOORD_0",
                    "type": 35664
                }
            },
            "program": "program_1",
            "states": {
                "enable": [
                    2929,
                    2884
                ]
            },
            "uniforms": {
                "u_ambient": "ambient",
                "u_diffuse": "diffuse",
                "u_emission": "emission",
                "u_modelViewMatrix": "modelViewMatrix",
                "u_normalMatrix": "normalMatrix",
                "u_projectionMatrix": "projectionMatrix",
                "u_shininess": "shininess",
                "u_specular": "specular"
            }
        }
    },
    "textures": {
        "texture_texture-low_0_jpg": {
            "format": 6408,
            "internalFormat": 6408,
            "sampler": "sampler_0",
            "source": "texture-low_0_jpg",
            "target": 3553,
            "type": 5121
        }
    }
}