{
    "accessors": {
        "accessor_16": {
            "bufferView": "bufferView_22",
            "byteOffset": 0,
            "byteStride": 2,
            "componentType": 5123,
            "count": 2022,
            "max": [
                1010
            ],
            "min": [
                0
            ],
            "type": "SCALAR"
        },
        "accessor_18": {
            "bufferView": "bufferView_23",
            "byteOffset": 0,
            "byteStride": 12,
            "componentType": 5126,
            "count": 2022,
            "max": [
                7.18917,
                10.7449,
                2.45418
            ],
            "min": [
                -7.18919,
                -11.1284,
                -2.71952
            ],
            "type": "VEC3"
        },
        "accessor_20": {
            "bufferView": "bufferView_23",
            "byteOffset": 24264,
            "byteStride": 12,
            "componentType": 5126,
            "count": 2022,
            "max": [
                0.999996,
                0.999998,
                0.999886
            ],
            "min": [
                -1,
                -0.999994,
                -0.999988
            ],
            "type": "VEC3"
        }
    },
    "animations": {},
    "asset": {
        "generator": "collada2gltf@6779c094d694e951beeb1012d03d4faa1edb0ddf",
        "premultipliedAlpha": true,
        "profile": {
            "api": "WebGL",
            "version": "1.0.2"
        },
        "version": "1.0.1"
    },
    "bufferViews": {
        "bufferView_22": {
            "buffer": "multiplayer-low",
            "byteLength": 4044,
            "byteOffset": 0,
            "target": 34963
        },
        "bufferView_23": {
            "buffer": "multiplayer-low",
            "byteLength": 48528,
            "byteOffset": 4044,
            "target": 34962
        }
    },
    "buffers": {
        "multiplayer-low": {
            "byteLength": 52572,
            "type": "arraybuffer",
            "uri": "data:application/octet-stream;base64,"
        }
    },
    "materials": {
        "_8_-_Default": {
            "name": "_8_-_Default",
            "technique": "technique0",
            "values": {
                "ambient": [
                    0.729412,
                    0.756863,
                    0.760784,
                    1
                ],
                "diffuse": [
                    0.729412,
                    0.756863,
                    0.760784,
                    1
                ],
                "emission": [
                    0,
                    0,
                    0,
                    1
                ],
                "shininess": 10,
                "specular": [
                    0,
                    0,
                    0,
                    1
                ]
            }
        }
    },
    "meshes": {
        "geom-Fuselage": {
            "name": "Fuselage",
            "primitives": [
                {
                    "attributes": {
                        "NORMAL": "accessor_20",
                        "POSITION": "accessor_18"
                    },
                    "indices": "accessor_16",
                    "material": "_8_-_Default",
                    "mode": 4
                }
            ]
        }
    },
    "nodes": {
        "node-Fuselage": {
            "children": [
                "node_2"
            ],
            "matrix": [
                1,
                -4.76837e-007,
                4.76837e-007,
                0,
                4.76837e-007,
                1,
                0,
                0,
                -4.76837e-007,
                2.27374e-013,
                1,
                0,
                4.76258e-005,
                0,
                0,
                1
            ],
            "name": "Fuselage"
        },
        "node_0": {
            "children": [],
            "name": "EnvironmentAmbientLight"
        },
        "node_2": {
            "children": [],
            "matrix": [
                1,
                0,
                0,
                0,
                0,
                1,
                0,
                0,
                0,
                0,
                1,
                0,
                -1.84836e-007,
                1.85427,
                1.46664,
                1
            ],
            "meshes": [
                "geom-Fuselage"
            ],
            "name": ""
        },
        "node_3": {
            "children": [
                "node_0",
                "node-Fuselage"
            ],
            "matrix": [
                1,
                0,
                0,
                0,
                0,
                0,
                -1,
                0,
                0,
                1,
                0,
                0,
                0,
                0,
                0,
                1
            ],
            "name": "Y_UP_Transform"
        }
    },
    "programs": {
        "program_0": {
            "attributes": [
                "a_normal",
                "a_position"
            ],
            "fragmentShader": "multiplayer-low0FS",
            "vertexShader": "multiplayer-low0VS"
        }
    },
    "scene": "defaultScene",
    "scenes": {
        "defaultScene": {
            "nodes": [
                "node_3"
            ]
        }
    },
    "shaders": {
        "multiplayer-low0FS": {
            "type": 35632,
            "uri": "data:text/plain;base64,"
        },
        "multiplayer-low0VS": {
            "type": 35633,
            "uri": "data:text/plain;base64,"
        }
    },
    "skins": {},
    "techniques": {
        "technique0": {
            "attributes": {
                "a_normal": "normal",
                "a_position": "position"
            },
            "parameters": {
                "ambient": {
                    "type": 35666
                },
                "diffuse": {
                    "type": 35666
                },
                "emission": {
                    "type": 35666
                },
                "modelViewMatrix": {
                    "semantic": "MODELVIEW",
                    "type": 35676
                },
                "normal": {
                    "semantic": "NORMAL",
                    "type": 35665
                },
                "normalMatrix": {
                    "semantic": "MODELVIEWINVERSETRANSPOSE",
                    "type": 35675
                },
                "position": {
                    "semantic": "POSITION",
                    "type": 35665
                },
                "projectionMatrix": {
                    "semantic": "PROJECTION",
                    "type": 35676
                },
                "shininess": {
                    "type": 5126
                },
                "specular": {
                    "type": 35666
                }
            },
            "program": "program_0",
            "states": {
                "enable": [
                    2929,
                    2884
                ]
            },
            "uniforms": {
                "u_ambient": "ambient",
                "u_diffuse": "diffuse",
                "u_emission": "emission",
                "u_modelViewMatrix": "modelViewMatrix",
                "u_normalMatrix": "normalMatrix",
                "u_projectionMatrix": "projectionMatrix",
                "u_shininess": "shininess",
                "u_specular": "specular"
            }
        }
    }
}