{
    "accessors": {
        "accessor_16": {
            "bufferView": "bufferView_22",
            "byteOffset": 0,
            "byteStride": 2,
            "componentType": 5123,
            "count": 1437,
            "max": [
                294
            ],
            "min": [
                0
            ],
            "type": "SCALAR"
        },
        "accessor_18": {
            "bufferView": "bufferView_23",
            "byteOffset": 0,
            "byteStride": 12,
            "componentType": 5126,
            "count": 424,
            "max": [
                30.4656,
                26.7253,
                12.0556
            ],
            "min": [
                -30.4748,
                -46.3055,
                -4.67546
            ],
            "type": "VEC3"
        },
        "accessor_20": {
            "bufferView": "bufferView_23",
            "byteOffset": 5088,
            "byteStride": 12,
            "componentType": 5126,
            "count": 424,
            "max": [
                0.999323,
                0.992492,
                0.999897
            ],
            "min": [
                -0.999819,
                -0.999916,
                -1
            ],
            "type": "VEC3"
        }
    },
    "animations": {},
    "asset": {
        "generator": "collada2gltf@6779c094d694e951beeb1012d03d4faa1edb0ddf",
        "premultipliedAlpha": true,
        "profile": {
            "api": "WebGL",
            "version": "1.0.2"
        },
        "version": "1.0.1"
    },
    "bufferViews": {
        "bufferView_22": {
            "buffer": "\\PROJECTS\\GeoFS\\tools\\collada2gltf\\convert\\gltf\\multiplayer-low",
            "byteLength": 2876,
            "byteOffset": 0,
            "target": 34963
        },
        "bufferView_23": {
            "buffer": "\\PROJECTS\\GeoFS\\tools\\collada2gltf\\convert\\gltf\\multiplayer-low",
            "byteLength": 10176,
            "byteOffset": 2876,
            "target": 34962
        }
    },
    "buffers": {
        "\\PROJECTS\\GeoFS\\tools\\collada2gltf\\convert\\gltf\\multiplayer-low": {
            "byteLength": 13052,
            "type": "arraybuffer",
            "uri": "data:application/octet-stream;base64,"
        }
    },
    "materials": {
        "Material__1062": {
            "name": "Material__1062",
            "technique": "technique0",
            "values": {
                "ambient": [
                    0.678431,
                    0.678431,
                    0.678431,
                    1
                ],
                "diffuse": [
                    0.678431,
                    0.678431,
                    0.678431,
                    1
                ],
                "emission": [
                    0,
                    0,
                    0,
                    1
                ],
                "shininess": 60,
                "specular": [
                    0.9,
                    0.9,
                    0.9,
                    1
                ]
            }
        }
    },
    "meshes": {
        "geom-fuselage": {
            "name": "fuselage",
            "primitives": [
                {
                    "attributes": {
                        "NORMAL": "accessor_20",
                        "POSITION": "accessor_18"
                    },
                    "indices": "accessor_16",
                    "material": "Material__1062",
                    "mode": 4
                }
            ]
        }
    },
    "nodes": {
        "node-fuselage": {
            "children": [
                "node_2"
            ],
            "matrix": [
                1,
                0,
                0,
                0,
                0,
                1,
                0,
                0,
                0,
                0,
                1,
                0,
                0.00280832,
                7.80121,
                1.76034,
                1
            ],
            "name": "fuselage"
        },
        "node_0": {
            "children": [],
            "name": "EnvironmentAmbientLight"
        },
        "node_2": {
            "children": [],
            "matrix": [
                1,
                0,
                0,
                0,
                0,
                1,
                0,
                0,
                0,
                0,
                1,
                0,
                0,
                2.78819e-008,
                -0.637863,
                1
            ],
            "meshes": [
                "geom-fuselage"
            ],
            "name": ""
        },
        "node_3": {
            "children": [
                "node_0",
                "node-fuselage"
            ],
            "matrix": [
                1,
                0,
                0,
                0,
                0,
                0,
                -1,
                0,
                0,
                1,
                0,
                0,
                0,
                0,
                0,
                1
            ],
            "name": "Y_UP_Transform"
        }
    },
    "programs": {
        "program_0": {
            "attributes": [
                "a_normal",
                "a_position"
            ],
            "fragmentShader": "\\PROJECTS\\GeoFS\\tools\\collada2gltf\\convert\\gltf\\multiplayer-low0FS",
            "vertexShader": "\\PROJECTS\\GeoFS\\tools\\collada2gltf\\convert\\gltf\\multiplayer-low0VS"
        }
    },
    "scene": "defaultScene",
    "scenes": {
        "defaultScene": {
            "nodes": [
                "node_3"
            ]
        }
    },
    "shaders": {
        "\\PROJECTS\\GeoFS\\tools\\collada2gltf\\convert\\gltf\\multiplayer-low0FS": {
            "type": 35632,
            "uri": "data:text/plain;base64,"
        },
        "\\PROJECTS\\GeoFS\\tools\\collada2gltf\\convert\\gltf\\multiplayer-low0VS": {
            "type": 35633,
            "uri": "data:text/plain;base64,"
        }
    },
    "skins": {},
    "techniques": {
        "technique0": {
            "attributes": {
                "a_normal": "normal",
                "a_position": "position"
            },
            "parameters": {
                "ambient": {
                    "type": 35666
                },
                "diffuse": {
                    "type": 35666
                },
                "emission": {
                    "type": 35666
                },
                "modelViewMatrix": {
                    "semantic": "MODELVIEW",
                    "type": 35676
                },
                "normal": {
                    "semantic": "NORMAL",
                    "type": 35665
                },
                "normalMatrix": {
                    "semantic": "MODELVIEWINVERSETRANSPOSE",
                    "type": 35675
                },
                "position": {
                    "semantic": "POSITION",
                    "type": 35665
                },
                "projectionMatrix": {
                    "semantic": "PROJECTION",
                    "type": 35676
                },
                "shininess": {
                    "type": 5126
                },
                "specular": {
                    "type": 35666
                }
            },
            "program": "program_0",
            "states": {
                "enable": [
                    2929,
                    2884
                ]
            },
            "uniforms": {
                "u_ambient": "ambient",
                "u_diffuse": "diffuse",
                "u_emission": "emission",
                "u_modelViewMatrix": "modelViewMatrix",
                "u_normalMatrix": "normalMatrix",
                "u_projectionMatrix": "projectionMatrix",
                "u_shininess": "shininess",
                "u_specular": "specular"
            }
        }
    }
}