{
    "accessors": {
        "accessor_55": {
            "bufferView": "bufferView_96",
            "byteOffset": 0,
            "byteStride": 2,
            "componentType": 5123,
            "count": 22263,
            "max": [
                5577
            ],
            "min": [
                0
            ],
            "type": "SCALAR"
        },
        "accessor_58": {
            "bufferView": "bufferView_96",
            "byteOffset": 44526,
            "byteStride": 2,
            "componentType": 5123,
            "count": 552,
            "max": [
                8463
            ],
            "min": [
                0
            ],
            "type": "SCALAR"
        },
        "accessor_61": {
            "bufferView": "bufferView_96",
            "byteOffset": 45630,
            "byteStride": 2,
            "componentType": 5123,
            "count": 72,
            "max": [
                8502
            ],
            "min": [
                0
            ],
            "type": "SCALAR"
        },
        "accessor_63": {
            "bufferView": "bufferView_97",
            "byteOffset": 0,
            "byteStride": 12,
            "componentType": 5126,
            "count": 8509,
            "max": [
                5.16645,
                3.6559,
                2.38937
            ],
            "min": [
                -5.16645,
                -6.08852,
                -0.643336
            ],
            "type": "VEC3"
        },
        "accessor_65": {
            "bufferView": "bufferView_97",
            "byteOffset": 102108,
            "byteStride": 12,
            "componentType": 5126,
            "count": 8509,
            "max": [
                1,
                1,
                1
            ],
            "min": [
                -1,
                -1,
                -1
            ],
            "type": "VEC3"
        },
        "accessor_67": {
            "bufferView": "bufferView_97",
            "byteOffset": 204216,
            "byteStride": 8,
            "componentType": 5126,
            "count": 8509,
            "max": [
                1,
                1.00159
            ],
            "min": [
                0,
                -0.00386298
            ],
            "type": "VEC2"
        },
        "accessor_88": {
            "bufferView": "bufferView_96",
            "byteOffset": 45774,
            "byteStride": 2,
            "componentType": 5123,
            "count": 4944,
            "max": [
                1353
            ],
            "min": [
                0
            ],
            "type": "SCALAR"
        },
        "accessor_90": {
            "bufferView": "bufferView_97",
            "byteOffset": 272288,
            "byteStride": 12,
            "componentType": 5126,
            "count": 1887,
            "max": [
                0.297721,
                0.229187,
                0.241027
            ],
            "min": [
                -2.48918,
                -0.95595,
                -2.53011
            ],
            "type": "VEC3"
        },
        "accessor_92": {
            "bufferView": "bufferView_97",
            "byteOffset": 294932,
            "byteStride": 12,
            "componentType": 5126,
            "count": 1887,
            "max": [
                1,
                0.999999,
                1
            ],
            "min": [
                -1,
                -0.999988,
                -0.999989
            ],
            "type": "VEC3"
        },
        "accessor_94": {
            "bufferView": "bufferView_97",
            "byteOffset": 317576,
            "byteStride": 8,
            "componentType": 5126,
            "count": 1887,
            "max": [
                0.89213,
                0.933065
            ],
            "min": [
                0.00247539,
                0.117194
            ],
            "type": "VEC2"
        }
    },
    "animations": {},
    "asset": {
        "generator": "collada2gltf@6779c094d694e951beeb1012d03d4faa1edb0ddf",
        "premultipliedAlpha": true,
        "profile": {
            "api": "WebGL",
            "version": "1.0.2"
        },
        "version": "1.0.1"
    },
    "bufferViews": {
        "bufferView_96": {
            "buffer": "multiplayer",
            "byteLength": 55664,
            "byteOffset": 0,
            "target": 34963
        },
        "bufferView_97": {
            "buffer": "multiplayer",
            "byteLength": 332672,
            "byteOffset": 55664,
            "target": 34962
        }
    },
    "buffers": {
        "multiplayer": {
            "byteLength": 388336,
            "type": "arraybuffer",
            "uri": "data:application/octet-stream;base64,"
        }
    },
    "images": {
        "propblur_png": {
            "name": "propblur_png",
            "uri": "propblur.png"
        },
        "texture-low_jpg": {
            "name": "texture-low_jpg",
            "uri": "texture-low.jpg"
        }
    },
    "materials": {
        "bodyMaterial": {
            "name": "bodyMaterial",
            "technique": "technique0",
            "values": {
                "ambient": [
                    0.588,
                    0.588,
                    0.588,
                    1
                ],
                "diffuse": "texture_texture-low_jpg",
                "emission": [
                    0,
                    0,
                    0,
                    1
                ],
                "shininess": 50
            }
        },
        "glassMaterial": {
            "name": "glassMaterial",
            "technique": "technique1",
            "values": {
                "ambient": [
                    0.584314,
                    0.666667,
                    0.733333,
                    1
                ],
                "diffuse": [
                    0.584314,
                    0.666667,
                    0.733333,
                    1
                ],
                "emission": [
                    0,
                    0,
                    0,
                    1
                ],
                "shininess": 30,
                "transparency": 0.1
            }
        },
        "propMaterial": {
            "name": "propMaterial",
            "technique": "technique2",
            "values": {
                "ambient": "texture_propblur_png",
                "diffuse": "texture_propblur_png",
                "emission": [
                    0,
                    0,
                    0,
                    1
                ],
                "shininess": 10,
                "specular": [
                    0,
                    0,
                    0,
                    1
                ],
                "transparency": 0.99
            }
        }
    },
    "meshes": {
        "geom-body": {
            "name": "body",
            "primitives": [
                {
                    "attributes": {
                        "NORMAL": "accessor_65",
                        "POSITION": "accessor_63",
                        "TEXCOORD_0": "accessor_67"
                    },
                    "indices": "accessor_55",
                    "material": "bodyMaterial",
                    "mode": 4
                },
                {
                    "attributes": {
                        "NORMAL": "accessor_65",
                        "POSITION": "accessor_63"
                    },
                    "indices": "accessor_58",
                    "material": "glassMaterial",
                    "mode": 4
                },
                {
                    "attributes": {
                        "NORMAL": "accessor_65",
                        "POSITION": "accessor_63",
                        "TEXCOORD_0": "accessor_67"
                    },
                    "indices": "accessor_61",
                    "material": "propMaterial",
                    "mode": 4
                }
            ]
        },
        "geom-gear": {
            "name": "gear",
            "primitives": [
                {
                    "attributes": {
                        "NORMAL": "accessor_92",
                        "POSITION": "accessor_90",
                        "TEXCOORD_0": "accessor_94"
                    },
                    "indices": "accessor_88",
                    "material": "bodyMaterial",
                    "mode": 4
                }
            ]
        }
    },
    "nodes": {
        "node-body": {
            "children": [
                "node-gear"
            ],
            "matrix": [
                1,
                0,
                0,
                0,
                0,
                1,
                0,
                0,
                0,
                0,
                1,
                0,
                0,
                4.34881e-008,
                0.00510716,
                1
            ],
            "meshes": [
                "geom-body"
            ],
            "name": "body"
        },
        "node-gear": {
            "children": [
                "node_3"
            ],
            "matrix": [
                0.990777,
                0.135498,
                -0.00061568,
                0,
                -0.134325,
                0.982771,
                0.126961,
                0,
                0.0178081,
                -0.125708,
                0.991908,
                0,
                1.102,
                -0.309169,
                -0.0863972,
                1
            ],
            "name": "gear"
        },
        "node_0": {
            "children": [],
            "name": "EnvironmentAmbientLight"
        },
        "node_3": {
            "children": [],
            "matrix": [
                0.990777,
                -0.134325,
                0.0178081,
                0,
                -0.000615686,
                0.126961,
                0.991908,
                0,
                -0.135498,
                -0.982771,
                0.125707,
                0,
                0,
                0,
                0,
                1
            ],
            "meshes": [
                "geom-gear"
            ],
            "name": ""
        },
        "node_4": {
            "children": [
                "node_0",
                "node-body"
            ],
            "matrix": [
                1,
                0,
                0,
                0,
                0,
                0,
                -1,
                0,
                0,
                1,
                0,
                0,
                0,
                0,
                0,
                1
            ],
            "name": "Y_UP_Transform"
        }
    },
    "programs": {
        "program_0": {
            "attributes": [
                "a_normal",
                "a_position",
                "a_texcoord0"
            ],
            "fragmentShader": "multiplayer0FS",
            "vertexShader": "multiplayer0VS"
        },
        "program_1": {
            "attributes": [
                "a_normal",
                "a_position"
            ],
            "fragmentShader": "multiplayer1FS",
            "vertexShader": "multiplayer1VS"
        },
        "program_2": {
            "attributes": [
                "a_normal",
                "a_position",
                "a_texcoord0"
            ],
            "fragmentShader": "multiplayer2FS",
            "vertexShader": "multiplayer2VS"
        }
    },
    "samplers": {
        "sampler_0": {
            "magFilter": 9729,
            "minFilter": 9729,
            "wrapS": 10497,
            "wrapT": 10497
        }
    },
    "scene": "defaultScene",
    "scenes": {
        "defaultScene": {
            "nodes": [
                "node_4"
            ]
        }
    },
    "shaders": {
        "multiplayer0FS": {
            "type": 35632,
            "uri": "../../../../shaders/multiplayerFS.glsl"
        },
        "multiplayer0VS": {
            "type": 35633,
            "uri": "../../../../shaders/baseVS.glsl"
        },
        "multiplayer1FS": {
            "type": 35632,
            "uri": "../../../../shaders/simpleGlassFS.glsl"
        },
        "multiplayer1VS": {
            "type": 35633,
            "uri": "../../../../shaders/baseVS.glsl"
        },
        "multiplayer2FS": {
            "type": 35632,
            "uri": "data:text/plain;base64,"
        },
        "multiplayer2VS": {
            "type": 35633,
            "uri": "data:text/plain;base64,"
        }
    },
    "skins": {},
    "techniques": {
        "technique0": {
            "attributes": {
                "a_normal": "normal",
                "a_position": "position",
                "a_texcoord0": "texcoord0"
            },
            "parameters": {
                "ambient": {
                    "type": 35666
                },
                "diffuse": {
                    "type": 35678
                },
                "emission": {
                    "type": 35666
                },
                "modelViewMatrix": {
                    "semantic": "MODELVIEW",
                    "type": 35676
                },
                "normal": {
                    "semantic": "NORMAL",
                    "type": 35665
                },
                "normalMatrix": {
                    "semantic": "MODELVIEWINVERSETRANSPOSE",
                    "type": 35675
                },
                "position": {
                    "semantic": "POSITION",
                    "type": 35665
                },
                "projectionMatrix": {
                    "semantic": "PROJECTION",
                    "type": 35676
                },
                "shininess": {
                    "type": 5126
                },
                "texcoord0": {
                    "semantic": "TEXCOORD_0",
                    "type": 35664
                }
            },
            "program": "program_0",
            "states": {
                "enable": [
                    2929,
                    2884
                ]
            },
            "uniforms": {
                "u_ambient": "ambient",
                "u_diffuse": "diffuse",
                "u_emission": "emission",
                "u_modelViewMatrix": "modelViewMatrix",
                "u_normalMatrix": "normalMatrix",
                "u_projectionMatrix": "projectionMatrix",
                "u_shininess": "shininess"
            }
        },
        "technique1": {
            "attributes": {
                "a_normal": "normal",
                "a_position": "position"
            },
            "parameters": {
                "ambient": {
                    "type": 35666
                },
                "diffuse": {
                    "type": 35666
                },
                "emission": {
                    "type": 35666
                },
                "modelViewMatrix": {
                    "semantic": "MODELVIEW",
                    "type": 35676
                },
                "normal": {
                    "semantic": "NORMAL",
                    "type": 35665
                },
                "normalMatrix": {
                    "semantic": "MODELVIEWINVERSETRANSPOSE",
                    "type": 35675
                },
                "position": {
                    "semantic": "POSITION",
                    "type": 35665
                },
                "projectionMatrix": {
                    "semantic": "PROJECTION",
                    "type": 35676
                },
                "shininess": {
                    "type": 5126
                },
                "transparency": {
                    "type": 5126
                }
            },
            "program": "program_1",
            "states": {
                "enable": [
                    2929,
                    3042
                ],
                "functions": {
                    "blendEquationSeparate": [
                        32774,
                        32774
                    ],
                    "blendFuncSeparate": [
                        1,
                        771,
                        1,
                        771
                    ],
                    "depthMask": [
                        false
                    ]
                }
            },
            "uniforms": {
                "u_ambient": "ambient",
                "u_diffuse": "diffuse",
                "u_emission": "emission",
                "u_modelViewMatrix": "modelViewMatrix",
                "u_normalMatrix": "normalMatrix",
                "u_projectionMatrix": "projectionMatrix",
                "u_shininess": "shininess",
                "u_transparency": "transparency"
            }
        },
        "technique2": {
            "attributes": {
                "a_normal": "normal",
                "a_position": "position",
                "a_texcoord0": "texcoord0"
            },
            "parameters": {
                "ambient": {
                    "type": 35678
                },
                "diffuse": {
                    "type": 35678
                },
                "emission": {
                    "type": 35666
                },
                "modelViewMatrix": {
                    "semantic": "MODELVIEW",
                    "type": 35676
                },
                "normal": {
                    "semantic": "NORMAL",
                    "type": 35665
                },
                "normalMatrix": {
                    "semantic": "MODELVIEWINVERSETRANSPOSE",
                    "type": 35675
                },
                "position": {
                    "semantic": "POSITION",
                    "type": 35665
                },
                "projectionMatrix": {
                    "semantic": "PROJECTION",
                    "type": 35676
                },
                "shininess": {
                    "type": 5126
                },
                "specular": {
                    "type": 35666
                },
                "texcoord0": {
                    "semantic": "TEXCOORD_0",
                    "type": 35664
                },
                "transparency": {
                    "type": 5126
                }
            },
            "program": "program_2",
            "states": {
                "enable": [
                    2929,
                    3042
                ],
                "functions": {
                    "blendEquationSeparate": [
                        32774,
                        32774
                    ],
                    "blendFuncSeparate": [
                        1,
                        771,
                        1,
                        771
                    ],
                    "depthMask": [
                        false
                    ]
                }
            },
            "uniforms": {
                "u_ambient": "ambient",
                "u_diffuse": "diffuse",
                "u_emission": "emission",
                "u_modelViewMatrix": "modelViewMatrix",
                "u_normalMatrix": "normalMatrix",
                "u_projectionMatrix": "projectionMatrix",
                "u_shininess": "shininess",
                "u_specular": "specular",
                "u_transparency": "transparency"
            }
        }
    },
    "textures": {
        "texture_propblur_png": {
            "format": 6408,
            "internalFormat": 6408,
            "sampler": "sampler_0",
            "source": "propblur_png",
            "target": 3553,
            "type": 5121
        },
        "texture_texture-low_jpg": {
            "format": 6408,
            "internalFormat": 6408,
            "sampler": "sampler_0",
            "source": "texture-low_jpg",
            "target": 3553,
            "type": 5121
        }
    }
}