{
    "accessors": {
        "accessor_16": {
            "bufferView": "bufferView_22",
            "byteOffset": 0,
            "byteStride": 2,
            "componentType": 5123,
            "count": 495,
            "max": [
                107
            ],
            "min": [
                0
            ],
            "type": "SCALAR"
        },
        "accessor_18": {
            "bufferView": "bufferView_23",
            "byteOffset": 0,
            "byteStride": 12,
            "componentType": 5126,
            "count": 144,
            "max": [
                7.80076,
                5.66465,
                1.10734
            ],
            "min": [
                -7.80164,
                -5.23036,
                -1.03459
            ],
            "type": "VEC3"
        },
        "accessor_20": {
            "bufferView": "bufferView_23",
            "byteOffset": 1728,
            "byteStride": 12,
            "componentType": 5126,
            "count": 144,
            "max": [
                0.997653,
                0.993599,
                1
            ],
            "min": [
                -0.999341,
                -1,
                -1
            ],
            "type": "VEC3"
        }
    },
    "animations": {},
    "asset": {
        "generator": "collada2gltf@6779c094d694e951beeb1012d03d4faa1edb0ddf",
        "premultipliedAlpha": true,
        "profile": {
            "api": "WebGL",
            "version": "1.0.2"
        },
        "version": "1.0.1"
    },
    "bufferViews": {
        "bufferView_22": {
            "buffer": "\\PROJECTS\\GeoFS\\tools\\collada2gltf\\convert\\gltf\\multiplayer-low",
            "byteLength": 992,
            "byteOffset": 0,
            "target": 34963
        },
        "bufferView_23": {
            "buffer": "\\PROJECTS\\GeoFS\\tools\\collada2gltf\\convert\\gltf\\multiplayer-low",
            "byteLength": 3456,
            "byteOffset": 992,
            "target": 34962
        }
    },
    "buffers": {
        "\\PROJECTS\\GeoFS\\tools\\collada2gltf\\convert\\gltf\\multiplayer-low": {
            "byteLength": 4448,
            "type": "arraybuffer",
            "uri": "data:application/octet-stream;base64,"
        }
    },
    "materials": {
        "_2_-_Default": {
            "name": "_2_-_Default",
            "technique": "technique0",
            "values": {
                "ambient": [
                    0.266667,
                    0.615686,
                    0.745098,
                    1
                ],
                "diffuse": [
                    0.266667,
                    0.615686,
                    0.745098,
                    1
                ],
                "emission": [
                    0,
                    0,
                    0,
                    1
                ],
                "shininess": 10,
                "specular": [
                    0,
                    0,
                    0,
                    1
                ]
            }
        }
    },
    "meshes": {
        "geom-body": {
            "name": "body",
            "primitives": [
                {
                    "attributes": {
                        "NORMAL": "accessor_20",
                        "POSITION": "accessor_18"
                    },
                    "indices": "accessor_16",
                    "material": "_2_-_Default",
                    "mode": 4
                }
            ]
        }
    },
    "nodes": {
        "node-body": {
            "children": [
                "node_2"
            ],
            "matrix": [
                1,
                0,
                0,
                0,
                0,
                1,
                0,
                0,
                0,
                0,
                1,
                0,
                0,
                2.73987e-011,
                -0.000626812,
                1
            ],
            "name": "body"
        },
        "node_0": {
            "children": [],
            "name": "EnvironmentAmbientLight"
        },
        "node_2": {
            "children": [],
            "matrix": [
                1,
                0,
                0,
                0,
                0,
                0.996435,
                -0.0843606,
                0,
                0,
                0.0843606,
                0.996435,
                0,
                0,
                -1.76876,
                0.127158,
                1
            ],
            "meshes": [
                "geom-body"
            ],
            "name": ""
        },
        "node_3": {
            "children": [
                "node_0",
                "node-body"
            ],
            "matrix": [
                1,
                0,
                0,
                0,
                0,
                0,
                -1,
                0,
                0,
                1,
                0,
                0,
                0,
                0,
                0,
                1
            ],
            "name": "Y_UP_Transform"
        }
    },
    "programs": {
        "program_0": {
            "attributes": [
                "a_normal",
                "a_position"
            ],
            "fragmentShader": "\\PROJECTS\\GeoFS\\tools\\collada2gltf\\convert\\gltf\\multiplayer-low0FS",
            "vertexShader": "\\PROJECTS\\GeoFS\\tools\\collada2gltf\\convert\\gltf\\multiplayer-low0VS"
        }
    },
    "scene": "defaultScene",
    "scenes": {
        "defaultScene": {
            "nodes": [
                "node_3"
            ]
        }
    },
    "shaders": {
        "\\PROJECTS\\GeoFS\\tools\\collada2gltf\\convert\\gltf\\multiplayer-low0FS": {
            "type": 35632,
            "uri": "data:text/plain;base64,"
        },
        "\\PROJECTS\\GeoFS\\tools\\collada2gltf\\convert\\gltf\\multiplayer-low0VS": {
            "type": 35633,
            "uri": "data:text/plain;base64,"
        }
    },
    "skins": {},
    "techniques": {
        "technique0": {
            "attributes": {
                "a_normal": "normal",
                "a_position": "position"
            },
            "parameters": {
                "ambient": {
                    "type": 35666
                },
                "diffuse": {
                    "type": 35666
                },
                "emission": {
                    "type": 35666
                },
                "modelViewMatrix": {
                    "semantic": "MODELVIEW",
                    "type": 35676
                },
                "normal": {
                    "semantic": "NORMAL",
                    "type": 35665
                },
                "normalMatrix": {
                    "semantic": "MODELVIEWINVERSETRANSPOSE",
                    "type": 35675
                },
                "position": {
                    "semantic": "POSITION",
                    "type": 35665
                },
                "projectionMatrix": {
                    "semantic": "PROJECTION",
                    "type": 35676
                },
                "shininess": {
                    "type": 5126
                },
                "specular": {
                    "type": 35666
                }
            },
            "program": "program_0",
            "states": {
                "enable": [
                    2929,
                    2884
                ]
            },
            "uniforms": {
                "u_ambient": "ambient",
                "u_diffuse": "diffuse",
                "u_emission": "emission",
                "u_modelViewMatrix": "modelViewMatrix",
                "u_normalMatrix": "normalMatrix",
                "u_projectionMatrix": "projectionMatrix",
                "u_shininess": "shininess",
                "u_specular": "specular"
            }
        }
    }
}